<svg width="512" height="512" viewBox="0 0 512 512" fill="none" xmlns="http://www.w3.org/2000/svg">
<rect width="512" height="512" fill="#02193A"/>
<path fill-rule="evenodd" clip-rule="evenodd" d="M306.289 78.4453C311.882 70.9378 322.753 66.0413 334.115 71.0172C412.182 105.229 455.751 191.914 432.955 276.56C408.993 365.546 317.119 418.233 227.848 394.433C216.938 391.52 206.464 387.165 196.705 381.481C199.919 389.417 203.751 397.552 208.29 405.377C210.722 409.562 211.87 414.37 211.59 419.203C211.311 424.036 209.617 428.68 206.719 432.557C201.109 440.049 190.239 444.961 178.884 439.986C100.825 405.773 57.2486 319.089 80.0444 234.443C104.007 145.457 195.888 92.7697 285.151 116.57C296.339 119.554 306.773 123.95 316.294 129.521C313.081 121.585 309.248 113.451 304.71 105.626C302.279 101.44 301.132 96.6311 301.413 91.7982C301.694 86.9653 303.389 82.3217 306.289 78.4453ZM139.188 241.53C130.677 272.913 134.853 306.385 150.812 334.715L150.971 335.746C152.461 344.623 154.407 353.417 156.803 362.094C160.182 374.629 164.448 386.908 169.569 398.837C119.772 365.609 94.3344 303.447 110.695 242.705C130.071 170.741 204.481 127.91 276.979 147.234C326.982 160.567 356.53 211.635 343.176 261.211C332.227 301.875 290.15 326.128 249.105 315.184C247.086 314.63 244.977 314.481 242.9 314.745C240.823 315.01 238.818 315.683 237.003 316.726C235.187 317.769 233.596 319.161 232.32 320.822C231.045 322.482 230.11 324.379 229.571 326.403C229.032 328.427 228.899 330.537 229.179 332.612C229.459 334.688 230.146 336.687 231.202 338.495C232.258 340.304 233.662 341.885 235.332 343.149C237.002 344.412 238.905 345.332 240.932 345.857C298.743 361.276 358.283 327.159 373.819 269.465C382.326 238.083 378.147 204.614 362.187 176.288L362.029 175.257C361.703 173.267 361.349 171.283 360.965 169.305C359.628 162.45 358.04 155.647 356.205 148.909C352.823 136.374 348.554 124.095 343.43 112.165C393.227 145.393 418.665 207.556 402.304 268.298C382.928 340.262 308.518 383.084 236.021 363.76C186.025 350.428 156.477 299.368 169.831 249.799C180.781 209.127 222.857 184.875 263.903 195.819C267.97 196.903 272.302 196.326 275.945 194.216C279.587 192.105 282.242 188.634 283.326 184.565C284.41 180.497 283.833 176.164 281.723 172.521C279.613 168.878 276.143 166.222 272.075 165.138C214.256 149.726 154.724 183.843 139.18 241.538M256.5 303.145C269.126 303.145 281.235 298.128 290.163 289.199C299.091 280.269 304.107 268.158 304.107 255.529C304.107 242.901 299.091 230.789 290.163 221.86C281.235 212.93 269.126 207.913 256.5 207.913C243.874 207.913 231.765 212.93 222.836 221.86C213.908 230.789 208.893 242.901 208.893 255.529C208.893 268.158 213.908 280.269 222.836 289.199C231.765 298.128 243.874 303.145 256.5 303.145Z" fill="#F8F9FF"/>
</svg>
