<svg width="14" height="15" viewBox="0 0 14 15" fill="none" xmlns="http://www.w3.org/2000/svg">
<path d="M5.31248 3.67808C5.66131 2.65725 7.07181 2.62633 7.48539 3.58533L7.52039 3.67866L7.99114 5.05533C8.09903 5.37105 8.27336 5.65996 8.5024 5.90258C8.73143 6.14519 9.00982 6.33587 9.31881 6.46175L9.44539 6.509L10.8221 6.97916C11.8429 7.328 11.8738 8.7385 10.9154 9.15208L10.8221 9.18708L9.44539 9.65783C9.12957 9.76564 8.84054 9.93995 8.59782 10.169C8.3551 10.398 8.16433 10.6765 8.03839 10.9855L7.99114 11.1115L7.52098 12.4887C7.17214 13.5096 5.76164 13.5405 5.34864 12.5821L5.31248 12.4887L4.84231 11.1121C4.7345 10.7963 4.56019 10.5072 4.33116 10.2645C4.10213 10.0218 3.82369 9.83102 3.51464 9.70508L3.38864 9.65783L2.01198 9.18766C0.990561 8.83883 0.959644 7.42833 1.91864 7.01533L2.01198 6.97916L3.38864 6.509C3.70436 6.40111 3.99328 6.22678 4.23589 5.99775C4.47851 5.76872 4.66918 5.49032 4.79506 5.18133L4.84231 5.05533L5.31248 3.67808ZM6.41673 4.05491L5.94656 5.43158C5.78229 5.91301 5.51505 6.35284 5.16346 6.72045C4.81186 7.08807 4.38436 7.37462 3.91073 7.56016L3.76489 7.61325L2.38823 8.08341L3.76489 8.55358C4.24632 8.71785 4.68615 8.98509 5.05377 9.33669C5.42138 9.68828 5.70793 10.1158 5.89348 10.5894L5.94656 10.7352L6.41673 12.1119L6.88689 10.7352C7.05117 10.2538 7.3184 9.81399 7.67 9.44637C8.02159 9.07876 8.44909 8.79221 8.92273 8.60666L9.06856 8.55416L10.4452 8.08341L9.06856 7.61325C8.58713 7.44898 8.1473 7.18174 7.77969 6.83014C7.41208 6.47855 7.12552 6.05105 6.93998 5.57741L6.88748 5.43158L6.41673 4.05491ZM11.0834 1.66675C11.1925 1.66675 11.2995 1.69736 11.3921 1.75511C11.4847 1.81285 11.5592 1.89542 11.6072 1.99341L11.6352 2.06166L11.8394 2.66016L12.4385 2.86433C12.5478 2.90149 12.6437 2.97027 12.7139 3.06197C12.7842 3.15367 12.8256 3.26416 12.833 3.37943C12.8403 3.4947 12.8133 3.60956 12.7554 3.70946C12.6974 3.80936 12.6111 3.8898 12.5073 3.94058L12.4385 3.96858L11.84 4.17275L11.6358 4.77183C11.5986 4.88116 11.5298 4.97699 11.438 5.04716C11.3463 5.11733 11.2358 5.15869 11.1205 5.166C11.0053 5.17331 10.8904 5.14624 10.7906 5.08822C10.6907 5.0302 10.6103 4.94384 10.5596 4.84008L10.5316 4.77183L10.3274 4.17333L9.72831 3.96916C9.61895 3.93201 9.52307 3.86322 9.45284 3.77152C9.38261 3.67982 9.34119 3.56934 9.33382 3.45407C9.32644 3.3388 9.35346 3.22394 9.41143 3.12404C9.46941 3.02414 9.55574 2.9437 9.65948 2.89291L9.72831 2.86491L10.3268 2.66075L10.531 2.06166C10.5703 1.94641 10.6447 1.84636 10.7438 1.77554C10.8429 1.70472 10.9616 1.66667 11.0834 1.66675Z" fill="white"/>
</svg>
