<svg width="24" height="25" viewBox="0 0 24 25" fill="none" xmlns="http://www.w3.org/2000/svg">
<circle cx="12" cy="12.5" r="12" fill="#F8F9FF"/>
<path d="M6.64941 15.07C6.29069 15.2771 6.16779 15.7358 6.3749 16.0945C6.582 16.4532 7.04069 16.5761 7.39941 16.369L6.64941 15.07ZM17.8877 10.0599C17.9949 9.65984 17.7575 9.24859 17.3574 9.14138L10.8374 7.39435C10.4373 7.28714 10.026 7.52458 9.9188 7.92468C9.8116 8.32478 10.049 8.73603 10.4491 8.84324L16.2447 10.3962L14.6918 16.1917C14.5846 16.5918 14.822 17.0031 15.2221 17.1103C15.6222 17.2175 16.0335 16.98 16.1407 16.5799L17.8877 10.0599ZM7.02441 15.7195L7.39941 16.369L17.5382 10.5153L17.1632 9.86582L16.7882 9.2163L6.64941 15.07L7.02441 15.7195Z" fill="#7958FF"/>
</svg>
