<svg width="189" height="35" viewBox="0 0 189 35" fill="none" xmlns="http://www.w3.org/2000/svg">
<path d="M31.5208 29.6924V10.4164H40.9385C43.3617 10.4164 45.1792 10.8753 46.3908 11.7932C47.6209 12.7111 48.2358 13.9228 48.2358 15.4281C48.2358 16.4378 47.9879 17.319 47.4923 18.0717C46.9967 18.806 46.3173 19.3751 45.4545 19.779C44.5918 20.1828 43.6005 20.3848 42.4805 20.3848L43.0037 19.2558C44.2154 19.2558 45.2894 19.4577 46.2256 19.8616C47.1618 20.2471 47.8869 20.8254 48.4011 21.5964C48.9333 22.3675 49.1996 23.3129 49.1996 24.4327C49.1996 26.085 48.5478 27.3792 47.2444 28.3155C45.9412 29.2333 44.0227 29.6924 41.4892 29.6924H31.5208ZM35.9542 26.3328H41.1588C42.3153 26.3328 43.1874 26.1492 43.7748 25.7821C44.3806 25.3965 44.6835 24.7908 44.6835 23.9647C44.6835 23.1569 44.3806 22.5602 43.7748 22.1747C43.1874 21.7708 42.3153 21.5689 41.1588 21.5689H35.6238V18.3195H40.3877C41.4707 18.3195 42.2969 18.1359 42.8661 17.7688C43.4534 17.3832 43.7472 16.805 43.7472 16.0339C43.7472 15.2812 43.4534 14.7213 42.8661 14.3542C42.2969 13.9686 41.4707 13.7759 40.3877 13.7759H35.9542V26.3328ZM60.7005 30.0228C59.1769 30.0228 57.7632 29.775 56.4598 29.2793C55.1746 28.7836 54.055 28.0861 53.1002 27.1864C52.164 26.2869 51.4296 25.2314 50.8973 24.0197C50.3832 22.808 50.1262 21.4863 50.1262 20.0543C50.1262 18.6224 50.3832 17.3006 50.8973 16.089C51.4296 14.8774 52.1731 13.8218 53.1278 12.9222C54.0825 12.0226 55.2022 11.3251 56.4873 10.8294C57.7725 10.3337 59.1675 10.0859 60.6729 10.0859C62.1966 10.0859 63.5919 10.3337 64.8586 10.8294C66.1438 11.3251 67.2544 12.0226 68.1906 12.9222C69.1453 13.8218 69.8888 14.8774 70.4211 16.089C70.9534 17.2823 71.2197 18.6041 71.2197 20.0543C71.2197 21.4863 70.9534 22.8172 70.4211 24.0473C69.8888 25.2588 69.1453 26.3143 68.1906 27.214C67.2544 28.0952 66.1438 28.7836 64.8586 29.2793C63.5919 29.775 62.2059 30.0228 60.7005 30.0228ZM60.6729 26.2226C61.5357 26.2226 62.3252 26.0759 63.0412 25.7821C63.7756 25.4882 64.418 25.0661 64.9688 24.5153C65.5195 23.9647 65.9417 23.3129 66.2355 22.5602C66.5475 21.8076 66.7036 20.9723 66.7036 20.0543C66.7036 19.1365 66.5475 18.3012 66.2355 17.5485C65.9417 16.7958 65.5195 16.1441 64.9688 15.5933C64.4365 15.0426 63.8031 14.6203 63.0687 14.3266C62.3343 14.0329 61.5357 13.886 60.6729 13.886C59.8103 13.886 59.0116 14.0329 58.2772 14.3266C57.5613 14.6203 56.9279 15.0426 56.3772 15.5933C55.8264 16.1441 55.3949 16.7958 55.0829 17.5485C54.7891 18.3012 54.6423 19.1365 54.6423 20.0543C54.6423 20.9539 54.7891 21.7892 55.0829 22.5602C55.3949 23.3129 55.8173 23.9647 56.3496 24.5153C56.9004 25.0661 57.5429 25.4882 58.2772 25.7821C59.0116 26.0759 59.8103 26.2226 60.6729 26.2226ZM79.6667 30.0228C78.1244 30.0228 76.647 29.821 75.2336 29.417C73.8195 28.9949 72.6814 28.4531 71.8187 27.7923L73.3332 24.4327C74.1591 25.0201 75.1325 25.5067 76.2517 25.8922C77.3903 26.2593 78.5374 26.4429 79.6945 26.4429C80.5752 26.4429 81.2823 26.3603 81.8149 26.1952C82.3652 26.0114 82.7697 25.7636 83.026 25.4517C83.2831 25.1397 83.412 24.7816 83.412 24.3777C83.412 23.8636 83.2097 23.4598 82.806 23.166C82.4023 22.854 81.8697 22.6061 81.2089 22.4225C80.5482 22.2206 79.8133 22.037 79.0059 21.8718C78.2162 21.6882 77.4181 21.4679 76.6099 21.2109C75.8202 20.9539 75.0954 20.6235 74.4347 20.2196C73.7739 19.8157 73.232 19.2833 72.81 18.6224C72.406 17.9615 72.2042 17.1171 72.2042 16.089C72.2042 14.9875 72.498 13.987 73.0854 13.0875C73.6913 12.1695 74.5906 11.4444 75.784 10.912C76.9959 10.3612 78.5103 10.0859 80.3274 10.0859C81.5393 10.0859 82.7327 10.2327 83.9075 10.5265C85.0824 10.8019 86.1198 11.2241 87.0191 11.7932L85.642 15.1803C84.7427 14.6663 83.8435 14.2899 82.9434 14.0513C82.0441 13.7942 81.1626 13.6657 80.3004 13.6657C79.4374 13.6657 78.7303 13.7667 78.18 13.9686C77.6288 14.1705 77.2344 14.4368 76.9959 14.7672C76.7566 15.0793 76.6377 15.4465 76.6377 15.8687C76.6377 16.3644 76.8392 16.7682 77.2436 17.0803C77.6474 17.3741 78.18 17.6127 78.8407 17.7963C79.5015 17.9799 80.2263 18.1635 81.016 18.347C81.8234 18.5307 82.6223 18.7417 83.412 18.9804C84.2194 19.219 84.9542 19.5403 85.615 19.9442C86.2757 20.3481 86.8076 20.8805 87.2121 21.5413C87.6343 22.2022 87.845 23.0375 87.845 24.0473C87.845 25.1302 87.5424 26.1216 86.9365 27.0213C86.3305 27.9209 85.422 28.646 84.2101 29.1966C83.0175 29.7474 81.5023 30.0228 79.6667 30.0228Z" fill="#FEFEFE"/>
<path d="M109.433 10.4164H113.893V29.6924H109.433V10.4164ZM100.675 29.6924H96.2144V10.4164H100.675V29.6924ZM109.763 21.7892H100.345V18.0166H109.763V21.7892ZM114.681 29.6924L123.273 10.4164H127.679L136.298 29.6924H131.616L124.567 12.6744H126.33L119.252 29.6924H114.681ZM118.977 25.5618L120.161 22.1747H130.074L131.286 25.5618H118.977ZM146.015 30.0228C144.527 30.0228 143.142 29.7841 141.856 29.3068C140.59 28.8112 139.488 28.1137 138.552 27.214C137.616 26.3143 136.882 25.2588 136.349 24.0473C135.835 22.8356 135.578 21.5047 135.578 20.0543C135.578 18.6041 135.835 17.2731 136.349 16.0615C136.882 14.8498 137.616 13.7942 138.552 12.8946C139.507 11.9951 140.617 11.3067 141.884 10.8294C143.151 10.3337 144.537 10.0859 146.042 10.0859C147.713 10.0859 149.218 10.3796 150.558 10.9671C151.917 11.5362 153.055 12.3806 153.972 13.5005L151.109 16.1441C150.448 15.3914 149.714 14.8314 148.906 14.4643C148.098 14.0788 147.217 13.886 146.263 13.886C145.363 13.886 144.537 14.0329 143.784 14.3266C143.031 14.6203 142.38 15.0426 141.829 15.5933C141.278 16.1441 140.847 16.7958 140.534 17.5485C140.241 18.3012 140.094 19.1365 140.094 20.0543C140.094 20.9723 140.241 21.8076 140.534 22.5602C140.847 23.3129 141.278 23.9647 141.829 24.5153C142.38 25.0661 143.031 25.4882 143.784 25.7821C144.537 26.0759 145.363 26.2226 146.263 26.2226C147.217 26.2226 148.098 26.039 148.906 25.672C149.714 25.2864 150.448 24.7082 151.109 23.9371L153.972 26.5807C153.055 27.7006 151.917 28.5543 150.558 29.1416C149.218 29.729 147.704 30.0228 146.015 30.0228ZM159.739 25.2864L159.492 20.1369L168.716 10.4164H173.673L165.356 19.3659L162.878 22.0095L159.739 25.2864ZM155.746 29.6924V10.4164H160.179V29.6924H155.746ZM168.937 29.6924L162.08 21.2935L164.998 18.1267L174.141 29.6924H168.937ZM180.821 30.0228C179.279 30.0228 177.801 29.821 176.388 29.417C174.974 28.9949 173.836 28.4531 172.973 27.7923L174.487 24.4327C175.314 25.0201 176.287 25.5067 177.407 25.8922C178.545 26.2593 179.692 26.4429 180.849 26.4429C181.73 26.4429 182.436 26.3603 182.969 26.1952C183.519 26.0114 183.923 25.7636 184.181 25.4517C184.437 25.1397 184.566 24.7816 184.566 24.3777C184.566 23.8636 184.364 23.4598 183.96 23.166C183.557 22.854 183.024 22.6061 182.363 22.4225C181.702 22.2206 180.968 22.037 180.16 21.8718C179.37 21.6882 178.572 21.4679 177.765 21.2109C176.975 20.9539 176.25 20.6235 175.589 20.2196C174.928 19.8157 174.386 19.2833 173.965 18.6224C173.56 17.9615 173.359 17.1171 173.359 16.089C173.359 14.9875 173.652 13.987 174.24 13.0875C174.846 12.1695 175.745 11.4444 176.938 10.912C178.15 10.3612 179.665 10.0859 181.482 10.0859C182.694 10.0859 183.887 10.2327 185.062 10.5265C186.237 10.8019 187.274 11.2241 188.173 11.7932L186.797 15.1803C185.897 14.6663 184.998 14.2899 184.098 14.0513C183.198 13.7942 182.318 13.6657 181.455 13.6657C180.592 13.6657 179.885 13.7667 179.334 13.9686C178.783 14.1705 178.389 14.4368 178.15 14.7672C177.912 15.0793 177.792 15.4465 177.792 15.8687C177.792 16.3644 177.994 16.7682 178.398 17.0803C178.802 17.3741 179.334 17.6127 179.995 17.7963C180.656 17.9799 181.381 18.1635 182.17 18.347C182.978 18.5307 183.777 18.7417 184.566 18.9804C185.374 19.219 186.108 19.5403 186.769 19.9442C187.43 20.3481 187.963 20.8805 188.366 21.5413C188.789 22.2022 189 23.0375 189 24.0473C189 25.1302 188.697 26.1216 188.091 27.0213C187.486 27.9209 186.576 28.646 185.365 29.1966C184.172 29.7474 182.656 30.0228 180.821 30.0228Z" fill="#FEFEFE"/>
<path d="M22.1561 13.4739C21.3714 13.4739 20.6428 13.8787 20.2317 14.5442L15.8029 21.0864C15.6586 21.302 15.7172 21.5927 15.9339 21.7362C16.1095 21.8528 16.3419 21.8383 16.5019 21.7014L20.8613 17.9393C20.9337 17.8744 21.0454 17.8811 21.1106 17.9532C21.1402 17.9862 21.1559 18.0288 21.1559 18.0727V29.8514C21.1559 29.9486 21.0768 30.0267 20.979 30.0267C20.9265 30.0267 20.877 30.0039 20.8438 29.9637L7.66587 14.2692C7.23669 13.7653 6.6065 13.4746 5.94313 13.4739H5.48253C4.23605 13.4739 3.22559 14.4793 3.22559 15.7196V32.309C3.22559 33.5491 4.23605 34.5545 5.48253 34.5545C6.26725 34.5545 6.99585 34.1497 7.40697 33.4843L11.8358 26.9421C11.9801 26.7265 11.9215 26.4358 11.7048 26.2922C11.5291 26.1758 11.2968 26.1902 11.1368 26.3271L6.77733 30.0892C6.70492 30.154 6.59323 30.1475 6.52808 30.0754C6.49851 30.0423 6.48277 29.9997 6.48338 29.9559V18.1742C6.48338 18.0768 6.56243 17.9988 6.66023 17.9988C6.71218 17.9988 6.76227 18.0216 6.79547 18.0618L19.9715 33.7594C20.4007 34.2633 21.0309 34.5539 21.6943 34.5545H22.1549C23.4014 34.5551 24.4125 33.5503 24.4136 32.3101V15.7196C24.4136 14.4793 23.4027 13.4739 22.1561 13.4739Z" fill="#FEFEFE"/>
<path d="M10.46 18.213C10.46 18.213 12.6811 18.4333 15.8661 18.2406C17.7902 18.1252 20.3614 15.8924 21.7429 14.8328C23.1262 13.7708 25.4576 11.7952 24.4005 11.3607C23.3436 10.9264 20.5354 10.231 20.5354 10.231C20.5354 10.231 23.9846 12.7504 10.46 18.213Z" fill="#696969" stroke="#696969" stroke-width="3" stroke-linejoin="round"/>
<path d="M21.8501 10.5805C22.4435 12.0025 18.6705 14.9311 13.422 17.1216C8.17395 19.3118 3.43922 19.9339 2.8457 18.5118C3.60904 17.2614 3.17207 16.6593 3.17207 16.6593L20.3481 9.49103C20.3481 9.49103 20.4745 10.223 21.8501 10.5805Z" fill="#696969" stroke="#696969" stroke-width="3" stroke-linejoin="round"/>
<path d="M2.09194 11.1332C2.10211 10.5597 2.22654 8.54185 3.40809 6.66481C5.5489 3.25933 9.48107 2.0975 12.2288 2.4586C14.0864 2.70434 15.5837 3.3951 17.0861 4.69968C17.4529 5.01848 18.1819 5.72107 18.9482 6.84157C19.6124 7.81364 19.9136 8.4757 20.4141 9.57529C20.8026 10.5063 19.3843 12.0843 16.5103 13.7639C12.4873 16.1128 7.13077 17.7663 4.54742 17.4567C3.80832 17.3683 3.37582 17.1265 3.23083 16.7756C2.67387 15.3176 2.04641 13.6643 2.09194 11.1332Z" fill="#696969"/>
<path d="M10.3728 18.2C10.3728 18.2 12.5937 18.4184 15.7788 18.2275C17.7018 18.1112 20.2731 15.8797 21.6543 14.8185C23.0382 13.7581 25.37 11.7823 24.3122 11.3462C23.2553 10.9121 20.4487 10.2171 20.4487 10.2171C20.4487 10.2171 23.8969 12.7371 10.3728 18.2Z" fill="#696969" stroke="#696969" stroke-width="3" stroke-linejoin="round"/>
<path d="M21.7604 10.568C22.3539 11.9902 18.5818 14.9172 13.3327 17.1079C8.08476 19.298 3.34972 19.9217 2.7561 18.4993C3.52016 17.2489 3.08194 16.6475 3.08194 16.6475L20.2592 9.47876C20.2592 9.47876 20.4824 10.3009 21.8571 10.6587L21.7604 10.568Z" fill="#696969" stroke="#696969" stroke-width="3" stroke-linejoin="round"/>
<path d="M2.00223 11.1202C2.0125 10.5472 2.13764 8.52979 3.31826 6.65182C5.45876 3.24658 9.39086 2.08532 12.1392 2.44601C13.9977 2.6914 15.4943 3.3823 16.9955 4.68584C17.3627 5.00449 18.0926 5.70669 18.8579 6.82835C19.5211 7.80003 19.8229 8.46256 20.3233 9.56044C20.712 10.4916 19.2934 12.0713 16.4182 13.7497C12.3961 16.1 7.03931 17.7518 4.45659 17.4419C3.71741 17.3535 3.28492 17.1132 3.13947 16.7611C2.58537 15.3045 1.95782 13.651 2.00223 11.1202Z" stroke="#696969" stroke-width="3" stroke-linejoin="round"/>
<path d="M2.00223 11.1202C2.0125 10.5472 2.13764 8.52979 3.31826 6.65182C5.45876 3.24658 9.39086 2.08532 12.1392 2.44601C13.9977 2.6914 15.4943 3.3823 16.9955 4.68584C17.3627 5.00449 18.0926 5.70669 18.8579 6.82835C19.5211 7.80003 19.8229 8.46256 20.3233 9.56044C20.712 10.4916 19.2934 12.0713 16.4182 13.7497C12.3961 16.1 7.03931 17.7518 4.45659 17.4419C3.71741 17.3535 3.28492 17.1132 3.13947 16.7611C2.58537 15.3045 1.95782 13.651 2.00223 11.1202Z" fill="#303030" stroke="#696969" stroke-width="3" stroke-linejoin="round"/>
<path d="M3.58008 6.16535C8.26332 -0.56715 18.2281 5.08722 20.2653 10.5387L20.9588 10.5304C18.5172 4.68081 8.57988 -1.29632 3.58008 6.16535Z" fill="#696969"/>
<path d="M21.6485 11.2737L20.958 10.5305L20.2644 10.5387L21.6485 11.2737Z" fill="#696969"/>
<path d="M18.8262 12.4038C16.6166 7.10917 10.0145 0.178797 5.07471 4.43937C10.3435 -0.19791 18.7399 5.21776 20.9569 10.5299L21.6474 11.2733L19.5149 13.1462L18.8262 12.4038Z" fill="#303030"/>
<path d="M18.8271 12.4031L19.5174 13.1467L17.6366 12.734C15.5998 7.282 8.26448 -0.566941 3.58008 6.1642C8.58034 -1.29623 16.3853 6.55217 18.8271 12.4031Z" fill="#696969"/>
<path d="M18.8271 12.4031L19.5174 13.1467L17.6366 12.734C15.5998 7.282 8.26448 -0.566941 3.58008 6.1642C8.58034 -1.29623 16.3853 6.55217 18.8271 12.4031Z" fill="#696969"/>
<path d="M8.88717 12.5721L8.51904 13.471L9.48941 16.0846L9.6942 14.2341L8.88717 12.5721Z" fill="#696969" stroke="#696969" stroke-width="3" stroke-linecap="round" stroke-linejoin="round"/>
<path d="M4.79874 13.9221L4.60522 14.3928L5.57652 17.0067L5.47771 15.2821L4.79874 13.9221Z" fill="#696969"/>
<path d="M9.48882 16.0842C9.48882 16.0842 5.82503 17.106 5.5774 17.0044C5.32993 16.9043 4.60596 14.3911 4.60596 14.3911L8.51806 13.4689L9.48882 16.0842Z" fill="#3A3A3A" stroke="#3A3A3A" stroke-width="3" stroke-linecap="round" stroke-linejoin="round"/>
<path d="M4.60693 14.3933L4.97652 13.4944L8.88786 12.5724L8.51974 13.4714L4.60693 14.3933Z" stroke="#696969" stroke-width="3" stroke-linecap="round" stroke-linejoin="round"/>
</svg>
