<svg width="1920" height="1016" viewBox="0 0 1920 1016" fill="none" xmlns="http://www.w3.org/2000/svg">
<path d="M2000.51 475.715C2000.67 474.61 2002.22 474.575 2002.47 475.61L2002.49 475.715L2010.66 531.713C2011.11 534.824 2015.37 535.188 2016.42 532.364L2016.52 532.081L2031.64 477.548C2031.94 476.472 2033.48 476.632 2033.59 477.691L2033.6 477.796L2034.68 534.377C2034.75 537.52 2038.92 538.415 2040.32 535.746L2040.45 535.477L2062.29 483.269C2062.72 482.239 2064.23 482.59 2064.21 483.655L2064.2 483.761L2058.19 540.031C2057.85 543.157 2061.89 544.569 2063.61 542.097L2063.77 541.846L2091.98 492.786C2092.54 491.818 2093.99 492.356 2093.84 493.41L2093.82 493.515L2080.8 548.587C2080.08 551.646 2083.9 553.553 2085.92 551.315L2086.11 551.086L2120.25 505.949C2120.92 505.058 2122.29 505.774 2122.01 506.802L2121.98 506.902L2102.16 559.908C2101.06 562.853 2104.62 565.225 2106.9 563.259L2107.12 563.055L2146.64 522.551C2147.42 521.751 2148.69 522.635 2148.28 523.619L2148.24 523.715L2121.93 573.818C2120.47 576.601 2123.7 579.4 2126.21 577.736L2126.46 577.561L2170.74 542.33C2171.62 541.635 2172.77 542.671 2172.24 543.596L2172.18 543.685L2139.8 590.097C2138.01 592.675 2140.86 595.857 2143.56 594.521L2143.82 594.377L2192.18 564.975C2193.13 564.394 2194.15 565.566 2193.5 566.418L2193.44 566.499L2155.5 608.486C2153.39 610.819 2155.82 614.334 2158.67 613.347L2158.95 613.236L2210.6 590.126C2211.62 589.67 2212.48 590.961 2211.74 591.726L2211.67 591.798L2168.76 628.698C2166.38 630.748 2168.35 634.541 2171.3 633.918L2171.59 633.843L2225.73 617.39C2226.8 617.065 2227.49 618.453 2226.66 619.118L2226.58 619.181L2179.38 650.413C2176.76 652.148 2178.25 656.157 2181.25 655.909L2181.55 655.872L2237.33 646.334C2238.43 646.146 2238.94 647.61 2238.03 648.166L2237.94 648.217L2187.21 673.288C2184.39 674.681 2185.36 678.845 2188.37 678.975H2188.67L2245.2 676.504C2246.32 676.455 2246.64 677.972 2245.67 678.409L2245.57 678.448L2192.1 696.963C2189.13 697.991 2189.57 702.244 2192.54 702.751L2192.83 702.788L2249.23 707.423C2250.35 707.514 2250.48 709.058 2249.46 709.371L2249.36 709.397L2193.98 721.064C2190.91 721.713 2190.81 725.987 2193.69 726.861L2193.98 726.936L2249.36 738.603C2250.45 738.833 2250.39 740.382 2249.34 740.564L2249.23 740.577L2192.83 745.212C2189.7 745.469 2189.07 749.699 2191.82 750.928L2192.1 751.037L2245.57 769.552C2246.66 769.929 2246.35 771.546 2245.2 771.496L2188.67 769.025H2188.37C2185.45 769.151 2184.45 773.054 2186.94 774.568L2187.21 774.712L2237.94 799.783C2238.94 800.278 2238.49 801.763 2237.43 801.679L2237.33 801.666L2181.55 792.128C2178.45 791.598 2176.78 795.537 2179.14 797.412L2179.38 797.587L2226.58 828.819C2227.51 829.436 2226.88 830.854 2225.84 830.637L2225.73 830.61L2171.59 814.157C2168.58 813.243 2166.44 816.942 2168.54 819.098L2168.76 819.302L2211.67 856.202C2212.51 856.931 2211.71 858.258 2210.7 857.912L2210.6 857.873L2158.95 834.764C2156.08 833.48 2153.49 836.881 2155.31 839.284L2155.5 839.514L2193.44 881.501C2194.19 882.33 2193.22 883.546 2192.27 883.076L2192.18 883.025L2143.82 853.623C2141.14 851.99 2138.14 855.041 2139.64 857.652L2139.8 857.903L2172.18 904.315C2172.82 905.231 2171.72 906.317 2170.83 905.731L2170.74 905.67L2126.46 870.439C2123.99 868.482 2120.64 871.132 2121.8 873.912L2121.93 874.182L2148.24 924.285C2148.76 925.274 2147.52 926.214 2146.71 925.521L2146.64 925.449L2107.12 884.945C2104.92 882.695 2101.26 884.905 2102.07 887.809L2102.16 888.092L2121.98 941.098C2122.37 942.144 2121.03 942.921 2120.31 942.132L2120.25 942.051L2086.11 896.914C2084.22 894.407 2080.31 896.139 2080.74 899.121L2080.8 899.413L2093.82 954.485C2094.08 955.572 2092.65 956.176 2092.04 955.304L2091.98 955.215V955.214L2063.77 906.154C2062.21 903.429 2058.11 904.659 2058.17 907.672L2058.19 907.969L2064.2 964.239C2064.32 965.35 2062.83 965.768 2062.33 964.827L2062.29 964.731L2040.45 912.523C2039.24 909.623 2035.02 910.329 2034.7 913.326L2034.68 913.623L2033.6 970.204C2033.58 971.321 2032.04 971.549 2031.67 970.552L2031.64 970.452L2016.52 915.919C2015.68 912.889 2011.4 913.062 2010.71 915.995L2010.66 916.287L2002.49 972.285C2002.33 973.39 2000.78 973.425 2000.53 972.39L2000.51 972.285L1992.34 916.287C1991.89 913.176 1987.63 912.812 1986.58 915.636L1986.48 915.919L1971.36 970.452C1971.06 971.528 1969.52 971.368 1969.41 970.309L1969.4 970.204L1968.32 913.623C1968.25 910.48 1964.08 909.585 1962.68 912.254L1962.55 912.523L1940.71 964.731C1940.28 965.761 1938.77 965.41 1938.79 964.345L1938.8 964.239L1944.81 907.969C1945.15 904.843 1941.11 903.431 1939.39 905.903L1939.23 906.154L1911.02 955.214C1910.46 956.182 1909.01 955.644 1909.16 954.59L1909.18 954.485L1922.2 899.413C1922.92 896.354 1919.1 894.447 1917.08 896.685L1916.89 896.914L1882.75 942.051C1882.08 942.942 1880.71 942.226 1880.99 941.198L1881.02 941.098L1900.84 888.092C1901.94 885.147 1898.38 882.775 1896.1 884.741L1895.88 884.945L1856.36 925.449C1855.58 926.249 1854.31 925.365 1854.72 924.381L1854.76 924.285L1881.07 874.182C1882.53 871.399 1879.3 868.6 1876.79 870.264L1876.54 870.439L1832.26 905.67C1831.38 906.365 1830.23 905.329 1830.76 904.404L1830.82 904.315L1863.2 857.903C1864.99 855.325 1862.14 852.143 1859.44 853.479L1859.18 853.623L1810.82 883.025C1809.87 883.606 1808.85 882.434 1809.5 881.582L1809.56 881.501L1847.5 839.514C1849.61 837.181 1847.18 833.666 1844.33 834.653L1844.05 834.764L1792.4 857.873C1791.38 858.329 1790.52 857.039 1791.26 856.274L1791.33 856.202L1834.24 819.302C1836.62 817.252 1834.65 813.46 1831.7 814.083L1831.41 814.157L1777.27 830.61C1776.2 830.935 1775.51 829.547 1776.34 828.882L1776.42 828.819L1823.62 797.587C1826.24 795.852 1824.75 791.843 1821.75 792.091L1821.45 792.128L1765.67 801.666C1764.57 801.854 1764.06 800.39 1764.97 799.834L1765.06 799.783L1815.79 774.712C1818.7 773.274 1817.58 768.884 1814.33 769.025L1757.8 771.496H1757.69C1756.66 771.448 1756.39 770.014 1757.33 769.591L1757.43 769.552L1810.9 751.037C1813.87 750.009 1813.43 745.756 1810.46 745.249L1810.17 745.212L1753.77 740.577C1752.65 740.486 1752.52 738.942 1753.54 738.629L1753.64 738.603L1809.02 726.936C1812.09 726.287 1812.19 722.013 1809.31 721.139L1809.02 721.064L1753.64 709.397C1752.55 709.167 1752.61 707.618 1753.66 707.436L1753.77 707.423L1810.17 702.788C1813.3 702.531 1813.93 698.301 1811.18 697.072L1810.9 696.963L1757.43 678.448C1756.37 678.083 1756.63 676.553 1757.69 676.504H1757.8L1814.33 678.975C1817.48 679.111 1818.63 674.996 1816.06 673.432L1815.79 673.288L1765.06 648.217C1764.06 647.722 1764.51 646.237 1765.57 646.321L1765.67 646.334L1821.45 655.872C1824.55 656.402 1826.22 652.463 1823.86 650.588L1823.62 650.413L1776.42 619.181C1775.49 618.564 1776.12 617.146 1777.16 617.363L1777.27 617.39L1831.41 633.843C1834.42 634.757 1836.56 631.058 1834.46 628.902L1834.24 628.698L1791.33 591.798C1790.49 591.069 1791.29 589.742 1792.3 590.088L1792.4 590.126L1844.05 613.236C1846.92 614.52 1849.51 611.119 1847.69 608.716L1847.5 608.486L1809.56 566.499C1808.81 565.67 1809.77 564.454 1810.73 564.924L1810.82 564.975L1859.18 594.377C1861.86 596.01 1864.86 592.959 1863.36 590.348L1863.2 590.097L1830.82 543.685C1830.18 542.768 1831.28 541.683 1832.17 542.269L1832.26 542.33L1876.54 577.561C1879.01 579.518 1882.36 576.868 1881.2 574.088L1881.07 573.818L1854.76 523.715C1854.24 522.726 1855.48 521.786 1856.29 522.479L1856.36 522.551L1895.88 563.055C1898.08 565.305 1901.74 563.095 1900.93 560.191L1900.84 559.908L1881.02 506.902C1880.63 505.856 1881.97 505.079 1882.69 505.868L1882.75 505.949L1916.89 551.086C1918.78 553.593 1922.69 551.861 1922.26 548.879L1922.2 548.587L1909.18 493.515C1908.92 492.428 1910.35 491.824 1910.96 492.696L1911.02 492.786L1939.23 541.846C1940.79 544.571 1944.89 543.341 1944.83 540.328L1944.81 540.031L1938.8 483.761C1938.68 482.65 1940.17 482.232 1940.67 483.173L1940.71 483.269L1962.55 535.477C1963.76 538.377 1967.98 537.671 1968.3 534.674L1968.32 534.377L1969.4 477.796C1969.42 476.679 1970.96 476.451 1971.33 477.448L1971.36 477.548L1986.48 532.081C1987.32 535.111 1991.6 534.938 1992.29 532.005L1992.34 531.713L2000.51 475.715Z" stroke="#D9D9D9" stroke-width="2"/>
<path d="M96.7998 -231.729C96.8917 -228.127 102.048 -227.746 102.735 -231.188L102.765 -231.354L139.978 -475.664L115.266 -229.775C114.905 -226.189 119.974 -225.165 121.087 -228.493L121.137 -228.655L188.676 -466.373L133.341 -225.521C132.534 -222.009 137.434 -220.358 138.955 -223.521L139.025 -223.675L235.822 -451.043L150.74 -219.036C149.499 -215.652 154.154 -213.4 156.06 -216.348L156.148 -216.491L280.679 -429.936L167.19 -210.421C165.535 -207.219 169.87 -204.402 172.13 -207.087L172.236 -207.219L322.541 -403.378L182.43 -199.812C180.387 -196.844 184.334 -193.505 186.913 -195.886L187.035 -196.003L360.749 -371.787L196.221 -187.378C193.821 -184.689 197.319 -180.881 200.176 -182.919L200.312 -183.021L394.674 -335.635L208.344 -173.312C205.626 -170.945 208.619 -166.729 211.709 -168.394L211.856 -168.477L423.826 -295.536L218.608 -157.838C215.615 -155.83 218.057 -151.272 221.331 -152.536L221.487 -152.601L447.708 -252.09L226.853 -141.199C223.632 -139.582 225.482 -134.755 228.889 -135.599L229.053 -135.643L465.942 -205.989L232.946 -123.659C229.548 -122.458 230.779 -117.437 234.265 -117.847L234.433 -117.87L478.284 -157.975L236.793 -105.493C233.271 -104.727 233.864 -99.5916 237.373 -99.5615L237.542 -99.5635L484.5 -108.789L238.334 -86.9883C234.744 -86.6704 234.688 -81.5001 238.165 -81.0303L238.334 -81.0117L484.5 -59.2119L237.543 -68.4365C233.941 -68.5711 233.237 -63.4487 236.629 -62.5469L236.793 -62.5068L478.284 -10.0264L234.433 -50.1299C230.876 -50.7147 229.536 -45.721 232.788 -44.4014L232.946 -44.3408L465.942 37.9883L229.053 -32.3574C225.598 -33.3834 223.642 -28.597 226.702 -26.8799L226.853 -26.8008L447.708 84.0889L221.487 -15.3994C218.188 -16.8503 215.648 -12.3468 218.47 -10.2598L218.608 -10.1621L423.826 127.535L211.856 0.476562C208.765 -1.37662 205.681 2.77424 208.219 5.19824L208.344 5.3125L394.684 167.642L200.312 15.0205C197.477 12.7952 193.897 16.525 196.11 19.248L196.221 19.377L360.75 203.787L187.035 28.0029C184.462 25.399 180.355 28.7957 182.43 31.8115V31.8125L322.541 235.377L172.236 39.2188C170.044 36.3577 165.649 39.0813 167.116 42.2695L167.19 42.4209L280.679 261.935L156.148 48.4912C154.332 45.3784 149.63 47.5292 150.686 50.876L150.74 51.0361L235.822 283.042L139.025 55.6748C137.614 52.3586 132.679 53.9029 133.307 57.3555L133.341 57.5215L188.676 298.372L121.137 60.6553C120.152 57.1883 115.062 58.1018 115.253 61.6064L115.266 61.7754L139.978 307.663L102.765 63.3545C102.222 59.7911 97.0588 60.0601 96.8086 63.5605L96.7998 63.7295L90.5 310.762L84.2002 63.7295C84.1082 60.1264 78.9517 59.7461 78.2646 63.1875L78.2354 63.3545L41.0215 307.663L65.7344 61.7754C66.0948 58.1894 61.0261 57.1647 59.9131 60.4932L59.8633 60.6553L-7.67676 298.372L47.6592 57.5215C48.466 54.009 43.5663 52.3579 42.0449 55.5205L41.9746 55.6748L-54.8232 283.042L30.2598 51.0361C31.5005 47.6523 26.846 45.4004 24.9404 48.3477L24.8516 48.4912L-99.6797 261.935L13.8096 42.4209C15.4645 39.2196 11.1302 36.4022 8.87012 39.0869L8.76367 39.2188L-141.542 235.377L-1.42969 31.8125C0.613408 28.8436 -3.33443 25.5053 -5.91309 27.8857L-6.03516 28.0029L-179.751 203.787L-15.2207 19.377C-12.8214 16.6875 -16.3193 12.8812 -19.1758 14.9189L-19.3115 15.0205L-213.685 167.642L-27.3438 5.3125C-24.6262 2.9451 -27.6191 -1.27094 -30.709 0.393555L-30.8564 0.476562L-242.827 127.535L-37.6084 -10.1621C-34.6153 -12.1704 -37.057 -16.7283 -40.3311 -15.4639L-40.4873 -15.3994L-266.709 84.0889L-45.8525 -26.8008C-42.6316 -28.418 -44.4822 -33.2449 -47.8887 -32.4014L-48.0527 -32.3574L-284.943 37.9883L-51.9463 -44.3408C-48.548 -45.5416 -49.7791 -50.5635 -53.2646 -50.1533L-53.4326 -50.1299L-297.285 -10.0264L-55.793 -62.5068C-52.2715 -63.2725 -52.8639 -68.4084 -56.373 -68.4385L-56.542 -68.4365L-303.501 -59.2119L-57.334 -81.0117C-53.7438 -81.3296 -53.6874 -86.4999 -57.165 -86.9697L-57.334 -86.9883L-303.501 -108.789L-56.542 -99.5635C-52.9407 -99.4294 -52.2373 -104.551 -55.6289 -105.453L-55.793 -105.493L-297.285 -157.975L-53.4326 -117.87C-49.8761 -117.285 -48.5359 -122.279 -51.7881 -123.599L-51.9463 -123.659L-284.943 -205.989L-48.0527 -135.643C-44.5978 -134.617 -42.6419 -139.403 -45.7021 -141.12L-45.8525 -141.199L-266.709 -252.09L-40.4873 -152.601C-37.188 -151.15 -34.6483 -155.653 -37.4697 -157.74L-37.6084 -157.838L-242.827 -295.536L-30.8564 -168.477C-27.765 -166.624 -24.6803 -170.774 -27.2188 -173.198L-27.3438 -173.312L-213.675 -335.635L-19.3115 -183.021C-16.4768 -180.795 -12.8962 -184.526 -15.1104 -187.249L-15.2207 -187.378L-179.75 -371.787L-6.03516 -196.003C-3.50182 -193.44 0.517865 -196.692 -1.33691 -199.671L-1.42969 -199.812L-141.542 -403.378L8.76367 -207.219C10.9559 -204.358 15.3516 -207.081 13.8838 -210.27L13.8096 -210.421L-99.6797 -429.936L24.8516 -216.491C26.6679 -213.378 31.3703 -215.529 30.3145 -218.876L30.2598 -219.036L-54.8232 -451.043L41.9746 -223.675C43.3864 -220.359 48.3212 -221.903 47.6934 -225.355L47.6592 -225.521L-7.67676 -466.373L59.8633 -228.655C60.8483 -225.188 65.9378 -226.102 65.7471 -229.606L65.7344 -229.775L41.0215 -475.664L78.2354 -231.354C78.7781 -227.791 83.9413 -228.06 84.1914 -231.561L84.2002 -231.729L90.5 -478.763L96.7998 -231.729Z" stroke="#D9D9D9" stroke-width="2"/>
<path d="M645.004 110.743C645.104 109.56 646.784 109.523 646.982 110.632L646.996 110.743L647.787 120.129C647.995 122.598 650.912 123.734 652.732 122.152L652.904 121.991L659.543 115.31C660.38 114.467 661.69 115.519 661.13 116.496L661.069 116.591L655.643 124.289C654.215 126.314 655.719 129.058 658.13 129.018L658.365 129.005L667.745 128.154C668.928 128.047 669.256 129.695 668.198 130.083L668.092 130.116L658.986 132.524C656.591 133.158 655.979 136.227 657.852 137.746L658.04 137.888L665.773 143.266C666.748 143.944 665.94 145.417 664.88 145.034L664.776 144.991L656.254 140.983C654.012 139.929 651.57 141.887 652.028 144.254L652.082 144.484L654.549 153.573C654.86 154.719 653.293 155.329 652.728 154.354L652.676 154.255L648.723 145.706C647.683 143.458 644.554 143.387 643.384 145.495L643.277 145.706L639.324 154.255C638.826 155.333 637.234 154.793 637.427 153.683L637.451 153.573L639.918 144.484C640.567 142.093 638.216 140.028 635.964 140.891L635.746 140.983L627.224 144.991C626.149 145.497 625.276 144.06 626.138 143.333L626.227 143.266L633.96 137.888C635.993 136.473 635.519 133.38 633.24 132.594L633.014 132.524L623.908 130.116C622.76 129.812 623.016 128.151 624.143 128.148L624.255 128.154L633.635 129.005C636.102 129.229 637.727 126.554 636.486 124.486L636.357 124.289L630.931 116.591C630.246 115.62 631.51 114.512 632.375 115.234L632.457 115.31L639.096 121.991C640.842 123.748 643.806 122.745 644.185 120.363L644.213 120.129L645.004 110.743Z" stroke="#D9D9D9" stroke-width="2"/>
<path d="M1715.5 271.743C1715.6 270.56 1717.28 270.523 1717.48 271.632L1717.5 271.743L1717.88 276.256C1718.08 278.725 1721 279.861 1722.82 278.28L1722.99 278.119L1726.19 274.906C1727.02 274.064 1728.33 275.116 1727.77 276.093L1727.71 276.188L1725.1 279.889C1723.68 281.913 1725.18 284.658 1727.59 284.618L1727.83 284.605L1732.34 284.195C1733.52 284.088 1733.85 285.737 1732.79 286.125L1732.68 286.158L1728.3 287.316C1725.91 287.95 1725.3 291.02 1727.17 292.538L1727.36 292.68L1731.08 295.266C1732.05 295.944 1731.24 297.417 1730.18 297.034L1730.08 296.991L1725.98 295.064C1723.74 294.01 1721.3 295.967 1721.76 298.334L1721.81 298.564L1723 302.936C1723.31 304.081 1721.74 304.691 1721.18 303.717L1721.12 303.617L1719.22 299.507C1718.18 297.258 1715.05 297.187 1713.88 299.296L1713.78 299.507L1711.88 303.617C1711.38 304.695 1709.79 304.155 1709.98 303.045L1710 302.936L1711.19 298.564C1711.84 296.174 1709.49 294.109 1707.24 294.972L1707.02 295.064L1702.92 296.991C1701.85 297.497 1700.97 296.059 1701.83 295.333L1701.92 295.266L1705.64 292.68C1707.68 291.265 1707.2 288.171 1704.92 287.385L1704.7 287.316L1700.32 286.158C1699.17 285.855 1699.42 284.193 1700.55 284.19L1700.66 284.195L1705.17 284.605C1707.64 284.829 1709.27 282.154 1708.03 280.087L1707.9 279.889L1705.29 276.188C1704.6 275.217 1705.87 274.108 1706.73 274.83L1706.81 274.906L1710.01 278.119C1711.75 279.876 1714.72 278.872 1715.09 276.491L1715.12 276.256L1715.5 271.743Z" stroke="#D9D9D9" stroke-width="2"/>
<path d="M311.963 584.401C311.585 583.276 313.112 582.575 313.735 583.513L313.793 583.61L315.125 586.095C316.297 588.277 319.424 588.162 320.467 585.988L320.562 585.771L321.591 583.147C322.024 582.042 323.645 582.486 323.518 583.606L323.5 583.717L322.925 586.476C322.419 588.901 324.889 590.824 327.086 589.829L327.297 589.724L329.772 588.375C330.815 587.807 331.771 589.189 330.954 589.965L330.87 590.039L328.655 591.782C326.708 593.315 327.365 596.374 329.686 597.024L329.917 597.08L332.68 597.638C333.844 597.873 333.687 599.546 332.562 599.616L332.45 599.618L329.633 599.53C327.157 599.453 325.692 602.219 327.054 604.21L327.194 604.4L328.952 606.603C329.692 607.531 328.497 608.713 327.591 608.043L327.504 607.972L325.402 606.093C323.555 604.443 320.656 605.621 320.419 608.02L320.404 608.256L320.334 611.074C320.305 612.261 318.629 612.398 318.366 611.302L318.345 611.192L317.942 608.403C317.588 605.951 314.61 604.989 312.886 606.675L312.723 606.847L310.858 608.96C310.073 609.85 308.702 608.879 309.204 607.87L309.258 607.772L310.743 605.376C312.048 603.271 310.385 600.619 307.981 600.802L307.746 600.829L304.958 601.25C303.784 601.427 303.359 599.801 304.392 599.351L304.497 599.311L307.174 598.431C309.527 597.656 309.957 594.556 307.997 593.151L307.8 593.02L305.394 591.551C304.381 590.932 305.1 589.413 306.181 589.733L306.287 589.769L308.904 590.815C311.205 591.735 313.527 589.636 312.929 587.3L312.862 587.074L311.963 584.401Z" stroke="#D9D9D9" stroke-width="2"/>
<path d="M336.525 573.248C336.481 572.381 337.467 571.9 338.119 572.392L338.245 572.503L338.382 572.646C339.621 573.934 341.691 573.854 342.831 572.51L342.938 572.376L343.057 572.219C343.58 571.527 344.646 571.791 344.828 572.587L344.853 572.754L344.866 572.951C344.987 574.734 346.624 576.003 348.361 575.706L348.53 575.672L348.722 575.628C349.568 575.434 350.214 576.322 349.843 577.049L349.754 577.192L349.637 577.352C348.584 578.795 349.022 580.821 350.544 581.709L350.694 581.791L350.871 581.882C351.643 582.277 351.567 583.372 350.814 583.69L350.655 583.743L350.463 583.791C348.728 584.219 347.763 586.052 348.358 587.711L348.42 587.871L348.496 588.053C348.834 588.852 348.073 589.643 347.291 589.402L347.136 589.341L346.958 589.253C345.353 588.466 343.436 589.25 342.825 590.903L342.769 591.065L342.711 591.255C342.456 592.084 341.365 592.2 340.92 591.514L340.84 591.366L340.761 591.185C340.038 589.551 338.065 588.918 336.534 589.792L336.388 589.881L336.221 589.988C335.493 590.459 334.583 589.847 334.683 589.036L334.717 588.871L334.772 588.681C335.268 586.964 334.163 585.212 332.43 584.897L332.26 584.871L332.063 584.846C331.203 584.739 330.899 583.684 331.497 583.128L331.629 583.024L331.794 582.913C333.277 581.917 333.558 579.864 332.432 578.509L332.318 578.38L332.184 578.235C331.593 577.6 332.039 576.596 332.855 576.555L333.022 576.56L333.22 576.581C334.997 576.772 336.53 575.379 336.539 573.617L336.535 573.445L336.525 573.248Z" stroke="#D9D9D9" stroke-width="2"/>
<circle cx="503" cy="296.5" r="7" stroke="#7958FF"/>
<circle cx="481" cy="272.5" r="3" stroke="#7958FF"/>
<circle cx="381" cy="752.5" r="3" stroke="#7958FF"/>
<circle cx="1496" cy="89.0374" r="6" stroke="#7958FF"/>
<circle cx="1606" cy="569.037" r="6" stroke="#7958FF"/>
<circle cx="1586" cy="589" r="9.5" stroke="#7958FF"/>
<path d="M478.267 321.947C475.85 328.233 473.118 323.717 470.813 324.335C469.91 324.577 469.864 325.358 469.948 325.673C469.864 325.358 469.435 324.704 468.532 324.946C466.225 325.564 466.119 330.841 460.881 326.605C462.354 332.395 468.296 332.27 470.517 327.801C474.677 330.555 479.886 327.697 478.267 321.947Z" fill="#7958FF"/>
<path fill-rule="evenodd" clip-rule="evenodd" d="M474.221 322.439C475.734 322.034 476.629 320.47 476.221 318.945C475.813 317.421 474.255 316.514 472.742 316.92C471.229 317.325 470.333 318.889 470.742 320.414C471.15 321.938 472.708 322.845 474.221 322.439ZM474.101 321.991C475.368 321.651 476.118 320.341 475.776 319.065C475.434 317.788 474.129 317.029 472.862 317.368C471.595 317.708 470.845 319.018 471.187 320.294C471.529 321.571 472.833 322.33 474.101 321.991Z" fill="#7958FF"/>
<path d="M471.574 321.67C471.808 321.607 471.619 321.318 471.486 321.128C471.268 320.816 471.235 320.487 470.979 320.25C470.286 319.607 469.292 319.323 468.317 319.584C467.312 319.854 466.579 320.634 466.32 321.575C466.24 321.866 466.32 322.195 466.319 322.503C466.318 322.734 466.305 323.081 466.539 323.018C466.662 322.986 466.62 322.889 466.599 322.762C466.574 322.612 466.677 322.432 466.68 322.284C466.701 321.249 467.394 320.312 468.437 320.033C469.485 319.752 470.558 320.222 471.092 321.115C471.165 321.238 471.31 321.218 471.361 321.357C471.406 321.477 471.451 321.702 471.574 321.67Z" fill="#7958FF"/>
<path fill-rule="evenodd" clip-rule="evenodd" d="M464.632 325.009C466.145 324.603 467.04 323.039 466.632 321.515C466.224 319.99 464.666 319.084 463.153 319.489C461.64 319.894 460.744 321.459 461.153 322.983C461.561 324.507 463.119 325.414 464.632 325.009ZM464.512 324.56C465.779 324.221 466.529 322.91 466.187 321.634C465.845 320.357 464.54 319.598 463.273 319.937C462.006 320.277 461.256 321.587 461.598 322.864C461.94 324.14 463.244 324.9 464.512 324.56Z" fill="#7958FF"/>
<path d="M1544.26 69.2884C1531.78 74.8376 1534.34 64.4448 1530.15 62.0243C1528.51 61.0765 1527.32 62.1309 1526.99 62.7041C1527.32 62.1309 1527.64 60.5785 1526 59.6307C1521.81 57.209 1514.09 64.6223 1512.65 51.0394C1506.46 61.4522 1515.16 69.7946 1524.75 66.571C1526.77 76.4838 1538.34 79.8558 1544.26 69.2884Z" fill="#7958FF"/>
<path fill-rule="evenodd" clip-rule="evenodd" d="M1537.75 64.1931C1540.5 65.7814 1544.03 64.8225 1545.63 62.0514C1547.23 59.2802 1546.3 55.7462 1543.55 54.1579C1540.8 52.5697 1537.27 53.5286 1535.67 56.2997C1534.07 59.0708 1535 62.6048 1537.75 64.1931ZM1538.22 63.3778C1540.53 64.7079 1543.48 63.9049 1544.82 61.584C1546.16 59.2632 1545.38 56.3035 1543.08 54.9733C1540.77 53.6431 1537.82 54.4462 1536.48 56.767C1535.14 59.0878 1535.92 62.0476 1538.22 63.3778Z" fill="#7958FF"/>
<path d="M1535.06 59.2938C1535.49 59.5393 1535.63 58.8549 1535.71 58.3918C1535.85 57.6322 1536.27 57.1123 1536.24 56.4052C1536.17 54.49 1535.15 52.6578 1533.38 51.634C1531.55 50.5788 1529.38 50.6479 1527.66 51.6258C1527.13 51.9283 1526.77 52.5141 1526.33 52.9537C1526 53.2845 1525.48 53.7637 1525.91 54.0094C1526.13 54.1385 1526.21 53.9394 1526.36 53.7277C1526.54 53.4759 1526.95 53.3651 1527.16 53.1575C1528.68 51.7049 1531.01 51.3545 1532.91 52.4494C1534.82 53.549 1535.68 55.762 1535.16 57.8073C1535.09 58.0898 1535.33 58.2681 1535.21 58.5408C1535.1 58.7772 1534.84 59.1647 1535.06 59.2938Z" fill="#7958FF"/>
<path fill-rule="evenodd" clip-rule="evenodd" d="M1520.32 54.1277C1523.07 55.716 1526.6 54.7571 1528.2 51.9859C1529.8 49.2148 1528.86 45.6808 1526.11 44.0925C1523.36 42.5043 1519.83 43.4631 1518.23 46.2343C1516.63 49.0054 1517.57 52.5394 1520.32 54.1277ZM1520.79 53.3123C1523.09 54.6425 1526.05 53.8394 1527.39 51.5186C1528.73 49.1978 1527.95 46.2381 1525.64 44.9079C1523.34 43.5777 1520.38 44.3808 1519.04 46.7016C1517.7 49.0224 1518.49 51.9822 1520.79 53.3123Z" fill="#7958FF"/>
</svg>
