<svg width="32" height="32" viewBox="0 0 32 32" fill="none" xmlns="http://www.w3.org/2000/svg">
<path d="M22 13.9375H10C9.8625 13.9375 9.75 14.05 9.75 14.1875V26.75C9.75 26.8875 9.8625 27 10 27H22C22.1375 27 22.25 26.8875 22.25 26.75V14.1875C22.25 14.05 22.1375 13.9375 22 13.9375ZM11.75 15.9375H20.25V19.5938H11.75V15.9375ZM20.25 25H11.75V21.3438H20.25V25Z" fill="#7958FF"/>
<path d="M13.25 23.375C13.25 23.6402 13.3554 23.8946 13.5429 24.0821C13.7304 24.2696 13.9848 24.375 14.25 24.375C14.5152 24.375 14.7696 24.2696 14.9571 24.0821C15.1446 23.8946 15.25 23.6402 15.25 23.375C15.25 23.1098 15.1446 22.8554 14.9571 22.6679C14.7696 22.4804 14.5152 22.375 14.25 22.375C13.9848 22.375 13.7304 22.4804 13.5429 22.6679C13.3554 22.8554 13.25 23.1098 13.25 23.375ZM13.25 17.8125C13.25 18.0777 13.3554 18.3321 13.5429 18.5196C13.7304 18.7071 13.9848 18.8125 14.25 18.8125C14.5152 18.8125 14.7696 18.7071 14.9571 18.5196C15.1446 18.3321 15.25 18.0777 15.25 17.8125C15.25 17.5473 15.1446 17.2929 14.9571 17.1054C14.7696 16.9179 14.5152 16.8125 14.25 16.8125C13.9848 16.8125 13.7304 16.9179 13.5429 17.1054C13.3554 17.2929 13.25 17.5473 13.25 17.8125Z" fill="#7958FF"/>
<path d="M25.3562 11.5281C23.925 7.75 20.2781 5.0625 16.0062 5.0625C11.7343 5.0625 8.08747 7.74687 6.65622 11.525C3.96559 12.2344 1.98434 14.6937 1.99997 17.6125C2.01872 20.875 4.54997 23.5281 7.73747 23.8125C7.88434 23.825 8.00934 23.7094 8.00934 23.5625V21.675C8.00934 21.55 7.91559 21.4438 7.79059 21.4281C6.94684 21.3219 6.14997 20.9531 5.53747 20.35C4.78747 19.6156 4.37497 18.6281 4.37497 17.5812C4.37497 16.7062 4.65934 15.8813 5.19372 15.1938C5.71559 14.525 6.44997 14.0406 7.25934 13.8281L8.44372 13.5156L8.87809 12.3687C9.14684 11.6562 9.52184 10.9875 9.99372 10.3844C10.4593 9.78437 11.0125 9.25937 11.6312 8.82187C12.9156 7.91875 14.4281 7.44063 16.0062 7.44063C17.5843 7.44063 19.0968 7.91875 20.3812 8.825C21.0031 9.2625 21.5531 9.7875 22.0187 10.3875C22.4906 10.9906 22.8656 11.6594 23.1343 12.3719L23.5656 13.5156L24.7468 13.8281C26.4406 14.2781 27.625 15.8188 27.625 17.5781C27.625 18.6281 27.2125 19.6125 26.4625 20.3469C25.8531 20.9469 25.0593 21.3187 24.2156 21.425C24.0906 21.4406 24 21.5469 24 21.6719V23.5625C24 23.7094 24.1281 23.825 24.275 23.8125C27.4531 23.525 29.9781 20.875 30 17.6187C30.0187 14.7 28.0406 12.2406 25.3562 11.5281Z" fill="#7958FF"/>
</svg>
