<svg width="22" height="22" viewBox="0 0 22 22" fill="none" xmlns="http://www.w3.org/2000/svg">
<path d="M6.87444 11.6037C6.87444 12.485 7.52986 13.2036 8.32443 13.2036C9.13177 13.2036 9.77441 12.4856 9.77441 11.6037C9.78718 10.7278 9.13782 10.0038 8.32443 10.0038C7.51709 10.0038 6.87444 10.7217 6.87444 11.6037Z" fill="#02193A"/>
<path d="M12.2354 11.6037C12.2354 12.485 12.8902 13.2036 13.6854 13.2036C14.4995 13.2036 15.1354 12.4856 15.1354 11.6037C15.1482 10.7278 14.4988 10.0038 13.6854 10.0038C12.8774 10.0038 12.2354 10.7217 12.2354 11.6037Z" fill="#02193A"/>
<path fill-rule="evenodd" clip-rule="evenodd" d="M11 22C17.0751 22 22 17.0751 22 11C22 4.92487 17.0751 0 11 0C4.92487 0 0 4.92487 0 11C0 17.0751 4.92487 22 11 22ZM13.3069 4.95136C14.4598 5.1463 15.5622 5.48913 16.5907 5.95297C16.5997 5.95654 16.6071 5.96322 16.6116 5.97179C18.434 8.60824 19.3334 11.5835 18.9973 15.0078C18.9965 15.015 18.9942 15.022 18.9905 15.0283C18.9868 15.0345 18.9818 15.0399 18.9758 15.0441C17.7534 15.9346 16.3893 16.6122 14.9411 17.048C14.9309 17.0511 14.92 17.0509 14.9099 17.0475C14.8998 17.0441 14.891 17.0377 14.8846 17.0292C14.5801 16.6117 14.3032 16.1721 14.0612 15.7103C14.0579 15.7039 14.056 15.6969 14.0556 15.6897C14.0552 15.6826 14.0564 15.6754 14.059 15.6687C14.0616 15.6621 14.0656 15.656 14.0707 15.651C14.0759 15.646 14.082 15.6421 14.0887 15.6397C14.5277 15.477 14.9458 15.2814 15.3478 15.0502C15.355 15.0459 15.361 15.0399 15.3653 15.0328C15.3696 15.0256 15.372 15.0175 15.3724 15.0092C15.3728 15.0009 15.3711 14.9926 15.3676 14.9851C15.364 14.9776 15.3586 14.971 15.3518 14.9661C15.2665 14.9036 15.1824 14.8384 15.1018 14.7725C15.0944 14.7666 15.0855 14.763 15.0761 14.7619C15.0667 14.7608 15.0572 14.7624 15.0487 14.7665C12.4398 15.9523 9.58081 15.9523 6.94099 14.7665C6.93249 14.7626 6.92308 14.7612 6.91383 14.7624C6.90457 14.7636 6.89582 14.7673 6.88856 14.7732C6.80789 14.8384 6.72319 14.9036 6.63849 14.9661C6.63183 14.9712 6.62652 14.9778 6.62304 14.9853C6.61956 14.9929 6.61802 15.0013 6.61855 15.0096C6.61909 15.0179 6.62168 15.026 6.6261 15.0331C6.63052 15.0401 6.63662 15.046 6.64387 15.0502C7.04726 15.2795 7.46802 15.4768 7.90227 15.6404C7.93051 15.6511 7.94395 15.6834 7.92983 15.7103C7.69321 16.1728 7.41626 16.6131 7.10569 17.0298C7.09913 17.0381 7.09023 17.0442 7.08015 17.0473C7.07008 17.0504 7.0593 17.0504 7.04922 17.0473C5.6035 16.6103 4.24161 15.9331 3.02059 15.0441C3.01479 15.0397 3.00996 15.0341 3.00637 15.0278C3.00279 15.0214 3.00054 15.0144 2.99976 15.0071C2.71809 12.0453 3.2915 9.04586 5.38346 5.97045C5.38861 5.96234 5.39611 5.95601 5.40497 5.9523C6.43414 5.48779 7.53658 5.14496 8.68877 4.95001C8.69917 4.94836 8.70983 4.94992 8.71932 4.95449C8.7288 4.95905 8.73668 4.9664 8.74188 4.97556C8.89538 5.24325 9.03385 5.51929 9.15664 5.80239C10.3793 5.6197 11.6224 5.6197 12.8451 5.80239C12.9554 5.54695 13.1127 5.22361 13.2538 4.97556C13.2591 4.96651 13.267 4.95933 13.2765 4.95499C13.286 4.95066 13.2967 4.94939 13.3069 4.95136Z" fill="#02193A"/>
</svg>
