<svg width="22" height="22" viewBox="0 0 22 22" fill="none" xmlns="http://www.w3.org/2000/svg">
<path fill-rule="evenodd" clip-rule="evenodd" d="M11 22C17.0751 22 22 17.0751 22 11C22 4.92487 17.0751 0 11 0C4.92487 0 0 4.92487 0 11C0 17.0751 4.92487 22 11 22ZM18.3331 14.4834V8.51259L11.255 12.2203C11.1762 12.2616 11.0887 12.2831 10.9998 12.2831C10.9109 12.2831 10.8233 12.2616 10.7446 12.2203L3.66643 8.51259V14.4834L3.67009 14.6183C3.70456 15.2261 3.9703 15.7977 4.41279 16.2158C4.85529 16.6339 5.44099 16.8668 6.04976 16.8667H15.9498L16.0847 16.8631C16.6925 16.8286 17.264 16.5629 17.6821 16.1204C18.1002 15.6779 18.3331 15.0922 18.3331 14.4834ZM15.9498 5.13339H6.04976L5.91336 5.13706C5.34699 5.16946 4.81076 5.40283 4.40104 5.7952C3.99133 6.18757 3.73501 6.71322 3.67816 7.27766L10.9998 11.113L18.3214 7.27766C18.2621 6.68988 17.9867 6.14505 17.5485 5.74886C17.1103 5.35266 16.5405 5.13332 15.9498 5.13339Z" fill="#02193A"/>
</svg>
