<svg width="193" height="52" viewBox="0 0 193 52" fill="none" xmlns="http://www.w3.org/2000/svg">
<g clip-path="url(#clip0_12_658)">
<path d="M44.6719 13.4688H38.3828V2.26566H44.4219V3.84378H40.2422V7.01566H44.0938V8.58597H40.2422V11.8985H44.6719V13.4688ZM56.1641 13.4688H54.1328L48.7812 5.23441C48.6458 5.02607 48.5339 4.80993 48.4453 4.58597H48.3984C48.4401 4.82555 48.4609 5.33857 48.4609 6.12503V13.4688H46.6641V2.26566H48.8281L54 10.3047C54.2188 10.6381 54.3594 10.8672 54.4219 10.9922H54.4531C54.401 10.6953 54.375 10.1927 54.375 9.48441V2.26566H56.1641V13.4688ZM66.7578 13C65.9141 13.4375 64.8646 13.6563 63.6094 13.6563C61.9844 13.6563 60.6823 13.1433 59.7031 12.1172C58.724 11.0912 58.2344 9.74482 58.2344 8.07816C58.2344 6.28649 58.7839 4.83857 59.8828 3.73441C60.987 2.63024 62.3802 2.07816 64.0625 2.07816C65.1458 2.07816 66.0443 2.2318 66.7578 2.53909V4.38284C66.0026 3.93493 65.1693 3.71097 64.2578 3.71097C63.0443 3.71097 62.0599 4.09899 61.3047 4.87503C60.5547 5.65107 60.1797 6.68753 60.1797 7.98441C60.1797 9.21878 60.5312 10.2032 61.2344 10.9375C61.9375 11.6667 62.862 12.0313 64.0078 12.0313C65.0651 12.0313 65.9818 11.7813 66.7578 11.2813V13ZM73.2969 13.6563C71.6823 13.6563 70.388 13.1328 69.4141 12.086C68.4453 11.0391 67.9609 9.67711 67.9609 8.00003C67.9609 6.19795 68.4557 4.76045 69.4453 3.68753C70.4349 2.61461 71.7786 2.07816 73.4766 2.07816C75.0495 2.07816 76.3151 2.59899 77.2734 3.64066C78.237 4.68232 78.7188 6.0443 78.7188 7.72659C78.7188 9.55472 78.2266 11 77.2422 12.0625C76.2578 13.125 74.9427 13.6563 73.2969 13.6563ZM73.3828 3.71097C72.3568 3.71097 71.5208 4.09378 70.875 4.85941C70.2344 5.62503 69.9141 6.63284 69.9141 7.88284C69.9141 9.12763 70.2266 10.1302 70.8516 10.8907C71.4766 11.6511 72.2943 12.0313 73.3047 12.0313C74.3776 12.0313 75.224 11.6693 75.8438 10.9453C76.4635 10.2214 76.7734 9.20836 76.7734 7.90628C76.7734 6.56774 76.4714 5.53388 75.8672 4.80472C75.2682 4.07555 74.4401 3.71097 73.3828 3.71097ZM80.7734 13.4688V2.26566H84.0078C88.138 2.26566 90.2031 4.08597 90.2031 7.72659C90.2031 9.45576 89.6302 10.8464 88.4844 11.8985C87.3385 12.9453 85.8021 13.4688 83.875 13.4688H80.7734ZM82.625 3.84378V11.8985H84.1094C85.4167 11.8985 86.4323 11.5391 87.1562 10.8203C87.8854 10.1016 88.25 9.08597 88.25 7.77347C88.25 5.15368 86.8932 3.84378 84.1797 3.84378H82.625ZM98.5469 13.4688H92.2578V2.26566H98.2969V3.84378H94.1172V7.01566H97.9688V8.58597H94.1172V11.8985H98.5469V13.4688ZM111.43 5.46878L108.766 9.51566L111.398 13.4688H109.297L107.891 10.9922C107.802 10.8412 107.698 10.6485 107.578 10.4141H107.547C107.526 10.461 107.417 10.6537 107.219 10.9922L105.789 13.4688H103.695L106.414 9.54691L103.836 5.46878H105.945L107.328 8.07034C107.432 8.26305 107.534 8.46097 107.633 8.66409H107.656L109.445 5.46878H111.43ZM47.8828 29.4688H45.8516L40.5 21.2344C40.3646 21.0261 40.2526 20.8099 40.1641 20.586H40.1172C40.1589 20.8256 40.1797 21.3386 40.1797 22.125V29.4688H38.3828V18.2657H40.5469L45.7188 26.3047C45.9375 26.6381 46.0781 26.8672 46.1406 26.9922H46.1719C46.1198 26.6953 46.0938 26.1927 46.0938 25.4844V18.2657H47.8828V29.4688ZM56.9531 29.4688H50.6641V18.2657H56.7031V19.8438H52.5234V23.0157H56.375V24.586H52.5234V27.8985H56.9531V29.4688ZM68.3047 29.4688H66.2656L65.2578 26.6172H60.8516L59.8828 29.4688H57.8516L62.0469 18.2657H64.1406L68.3047 29.4688ZM64.7656 25.1016L63.2109 20.6328C63.1641 20.487 63.1146 20.2526 63.0625 19.9297H63.0312C62.9844 20.2266 62.9323 20.461 62.875 20.6328L61.3359 25.1016H64.7656ZM78.5078 29.4688H76.3359L74.5469 26.4688C74.3854 26.1927 74.2266 25.9584 74.0703 25.7657C73.9193 25.5677 73.763 25.4063 73.6016 25.2813C73.4453 25.1563 73.2734 25.0651 73.0859 25.0078C72.8984 24.9506 72.6875 24.9219 72.4531 24.9219H71.7031V29.4688H69.8516V18.2657H73.5391C74.0651 18.2657 74.5495 18.3282 74.9922 18.4532C75.4349 18.5782 75.8203 18.7683 76.1484 19.0235C76.4766 19.2735 76.7318 19.5886 76.9141 19.9688C77.1016 20.3438 77.1953 20.7839 77.1953 21.2891C77.1953 21.6849 77.1354 22.0495 77.0156 22.3828C76.901 22.711 76.7344 23.0052 76.5156 23.2657C76.3021 23.5209 76.0417 23.7396 75.7344 23.9219C75.4323 24.1042 75.0911 24.2448 74.7109 24.3438V24.375C74.9141 24.4896 75.0911 24.6172 75.2422 24.7578C75.3932 24.8933 75.5365 25.0339 75.6719 25.1797C75.8073 25.3256 75.9401 25.4922 76.0703 25.6797C76.2057 25.862 76.3542 26.0756 76.5156 26.3203L78.5078 29.4688ZM71.7031 19.7735V23.4141H73.25C73.5365 23.4141 73.7995 23.3698 74.0391 23.2813C74.2839 23.1927 74.4948 23.0651 74.6719 22.8985C74.849 22.7318 74.987 22.5287 75.0859 22.2891C75.1849 22.0495 75.2344 21.7813 75.2344 21.4844C75.2344 20.9479 75.0651 20.5287 74.7266 20.2266C74.388 19.9245 73.901 19.7735 73.2656 19.7735H71.7031ZM93.2266 29.4688H91.3594V24.6094H86.0859V29.4688H84.2266V18.2657H86.0859V22.9766H91.3594V18.2657H93.2266V29.4688ZM100.609 29.6563C98.9948 29.6563 97.7005 29.1328 96.7266 28.086C95.7578 27.0391 95.2734 25.6771 95.2734 24C95.2734 22.1979 95.7682 20.7604 96.7578 19.6875C97.7474 18.6146 99.0911 18.0782 100.789 18.0782C102.362 18.0782 103.628 18.599 104.586 19.6407C105.549 20.6823 106.031 22.0443 106.031 23.7266C106.031 25.5547 105.539 27 104.555 28.0625C103.57 29.125 102.255 29.6563 100.609 29.6563ZM100.695 19.711C99.6693 19.711 98.8333 20.0938 98.1875 20.8594C97.5469 21.625 97.2266 22.6328 97.2266 23.8828C97.2266 25.1276 97.5391 26.1302 98.1641 26.8907C98.7891 27.6511 99.6068 28.0313 100.617 28.0313C101.69 28.0313 102.536 27.6693 103.156 26.9453C103.776 26.2214 104.086 25.2084 104.086 23.9063C104.086 22.5677 103.784 21.5339 103.18 20.8047C102.581 20.0756 101.753 19.711 100.695 19.711ZM116.742 29.4688H114.57L112.781 26.4688C112.62 26.1927 112.461 25.9584 112.305 25.7657C112.154 25.5677 111.997 25.4063 111.836 25.2813C111.68 25.1563 111.508 25.0651 111.32 25.0078C111.133 24.9506 110.922 24.9219 110.688 24.9219H109.938V29.4688H108.086V18.2657H111.773C112.299 18.2657 112.784 18.3282 113.227 18.4532C113.669 18.5782 114.055 18.7683 114.383 19.0235C114.711 19.2735 114.966 19.5886 115.148 19.9688C115.336 20.3438 115.43 20.7839 115.43 21.2891C115.43 21.6849 115.37 22.0495 115.25 22.3828C115.135 22.711 114.969 23.0052 114.75 23.2657C114.536 23.5209 114.276 23.7396 113.969 23.9219C113.667 24.1042 113.326 24.2448 112.945 24.3438V24.375C113.148 24.4896 113.326 24.6172 113.477 24.7578C113.628 24.8933 113.771 25.0339 113.906 25.1797C114.042 25.3256 114.174 25.4922 114.305 25.6797C114.44 25.862 114.589 26.0756 114.75 26.3203L116.742 29.4688ZM109.938 19.7735V23.4141H111.484C111.771 23.4141 112.034 23.3698 112.273 23.2813C112.518 23.1927 112.729 23.0651 112.906 22.8985C113.083 22.7318 113.221 22.5287 113.32 22.2891C113.419 22.0495 113.469 21.7813 113.469 21.4844C113.469 20.9479 113.299 20.5287 112.961 20.2266C112.622 19.9245 112.135 19.7735 111.5 19.7735H109.938ZM119.961 29.4688H118.047V18.2657H119.961V29.4688ZM130.367 19.0782L124.227 27.8985H130.289V29.4688H121.625V28.6172L127.789 19.8438H122.102V18.2657H130.367V19.0782ZM136.734 29.6563C135.12 29.6563 133.826 29.1328 132.852 28.086C131.883 27.0391 131.398 25.6771 131.398 24C131.398 22.1979 131.893 20.7604 132.883 19.6875C133.872 18.6146 135.216 18.0782 136.914 18.0782C138.487 18.0782 139.753 18.599 140.711 19.6407C141.674 20.6823 142.156 22.0443 142.156 23.7266C142.156 25.5547 141.664 27 140.68 28.0625C139.695 29.125 138.38 29.6563 136.734 29.6563ZM136.82 19.711C135.794 19.711 134.958 20.0938 134.312 20.8594C133.672 21.625 133.352 22.6328 133.352 23.8828C133.352 25.1276 133.664 26.1302 134.289 26.8907C134.914 27.6511 135.732 28.0313 136.742 28.0313C137.815 28.0313 138.661 27.6693 139.281 26.9453C139.901 26.2214 140.211 25.2084 140.211 23.9063C140.211 22.5677 139.909 21.5339 139.305 20.8047C138.706 20.0756 137.878 19.711 136.82 19.711ZM153.711 29.4688H151.68L146.328 21.2344C146.193 21.0261 146.081 20.8099 145.992 20.586H145.945C145.987 20.8256 146.008 21.3386 146.008 22.125V29.4688H144.211V18.2657H146.375L151.547 26.3047C151.766 26.6381 151.906 26.8672 151.969 26.9922H152C151.948 26.6953 151.922 26.1927 151.922 25.4844V18.2657H153.711V29.4688Z" fill="#FEFEFE"/>
<path d="M57.7422 48.4688H56.7812V41.209C56.707 41.2832 56.5977 41.3692 56.4531 41.4668C56.3125 41.5606 56.1523 41.6543 55.9727 41.7481C55.7969 41.8418 55.6094 41.9297 55.4102 42.0117C55.2148 42.0938 55.0234 42.1582 54.8359 42.2051V41.2325C55.0469 41.1739 55.2695 41.0957 55.5039 40.9981C55.7422 40.8965 55.9746 40.7852 56.2012 40.6641C56.4316 40.5391 56.6484 40.4102 56.8516 40.2774C57.0547 40.1407 57.2305 40.0078 57.3789 39.8789H57.7422V48.4688ZM60.5781 48.252V47.2207C61.1016 47.6075 61.6777 47.8008 62.3066 47.8008C63.1504 47.8008 63.5723 47.5196 63.5723 46.9571C63.5723 46.7969 63.5352 46.6621 63.4609 46.5528C63.3906 46.4395 63.293 46.3399 63.168 46.2539C63.0469 46.168 62.9023 46.0918 62.7344 46.0254C62.5703 45.9551 62.3926 45.8828 62.2012 45.8086C61.9355 45.7032 61.7012 45.5977 61.498 45.4922C61.2988 45.3828 61.1309 45.2617 60.9941 45.1289C60.8613 44.9922 60.7598 44.8379 60.6895 44.666C60.623 44.4942 60.5898 44.293 60.5898 44.0625C60.5898 43.7813 60.6543 43.5332 60.7832 43.3184C60.9121 43.0996 61.084 42.918 61.2988 42.7735C61.5137 42.625 61.7578 42.5137 62.0312 42.4395C62.3086 42.3653 62.5938 42.3282 62.8867 42.3282C63.4062 42.3282 63.8711 42.418 64.2812 42.5977V43.5703C63.8398 43.2813 63.332 43.1367 62.7578 43.1367C62.5781 43.1367 62.416 43.1582 62.2715 43.2012C62.127 43.2403 62.002 43.2969 61.8965 43.3711C61.7949 43.4453 61.7148 43.5352 61.6562 43.6407C61.6016 43.7422 61.5742 43.8555 61.5742 43.9805C61.5742 44.1367 61.6016 44.2676 61.6562 44.3731C61.7148 44.4785 61.7988 44.5723 61.9082 44.6543C62.0176 44.7364 62.1504 44.8106 62.3066 44.877C62.4629 44.9434 62.6406 45.0157 62.8398 45.0938C63.1055 45.1953 63.3438 45.3008 63.5547 45.4102C63.7656 45.5157 63.9453 45.6367 64.0938 45.7735C64.2422 45.9063 64.3555 46.0606 64.4336 46.2364C64.5156 46.4121 64.5566 46.6211 64.5566 46.8633C64.5566 47.1602 64.4902 47.418 64.3574 47.6367C64.2285 47.8555 64.0547 48.0371 63.8359 48.1817C63.6172 48.3262 63.3652 48.4336 63.0801 48.5039C62.7949 48.5742 62.4961 48.6094 62.1836 48.6094C61.5664 48.6094 61.0312 48.4903 60.5781 48.252ZM68.8223 48.4102C68.5957 48.5352 68.2969 48.5977 67.9258 48.5977C66.875 48.5977 66.3496 48.0117 66.3496 46.8399V43.2891H65.3184V42.4688H66.3496V41.0039L67.3105 40.6934V42.4688H68.8223V43.2891H67.3105V46.67C67.3105 47.0723 67.3789 47.3594 67.5156 47.5313C67.6523 47.7032 67.8789 47.7891 68.1953 47.7891C68.4375 47.7891 68.6465 47.7227 68.8223 47.5899V48.4102ZM74.3828 47.6016H74.3594V51.2285H73.3984V42.4688H74.3594V43.5235H74.3828C74.8555 42.7266 75.5469 42.3282 76.457 42.3282C77.2305 42.3282 77.834 42.5977 78.2676 43.1367C78.7012 43.6719 78.918 44.3907 78.918 45.293C78.918 46.2969 78.6738 47.1016 78.1855 47.7071C77.6973 48.3086 77.0293 48.6094 76.1816 48.6094C75.4043 48.6094 74.8047 48.2735 74.3828 47.6016ZM74.3594 45.1817V46.0196C74.3594 46.5157 74.5195 46.9375 74.8398 47.2852C75.1641 47.6289 75.5742 47.8008 76.0703 47.8008C76.6523 47.8008 77.1074 47.5782 77.4355 47.1328C77.7676 46.6875 77.9336 46.0684 77.9336 45.2754C77.9336 44.6075 77.7793 44.084 77.4707 43.7051C77.1621 43.3262 76.7441 43.1367 76.2168 43.1367C75.6582 43.1367 75.209 43.3321 74.8691 43.7227C74.5293 44.1094 74.3594 44.5957 74.3594 45.1817ZM81.4141 48.4688H80.4531V39.586H81.4141V48.4688ZM87.6543 48.4688H86.6934V47.5313H86.6699C86.252 48.25 85.6367 48.6094 84.8242 48.6094C84.2266 48.6094 83.7578 48.4512 83.418 48.1348C83.082 47.8184 82.9141 47.3985 82.9141 46.875C82.9141 45.7539 83.5742 45.1016 84.8945 44.918L86.6934 44.666C86.6934 43.6465 86.2812 43.1367 85.457 43.1367C84.7344 43.1367 84.082 43.3828 83.5 43.875V42.8907C84.0898 42.5157 84.7695 42.3282 85.5391 42.3282C86.9492 42.3282 87.6543 43.0742 87.6543 44.5664V48.4688ZM86.6934 45.4336L85.2461 45.6328C84.8008 45.6953 84.4648 45.8067 84.2383 45.9668C84.0117 46.1231 83.8984 46.4024 83.8984 46.8047C83.8984 47.0977 84.002 47.3379 84.209 47.5254C84.4199 47.709 84.6992 47.8008 85.0469 47.8008C85.5234 47.8008 85.916 47.6348 86.2246 47.3028C86.5371 46.9668 86.6934 46.543 86.6934 46.0313V45.4336ZM93.5547 48.1934C93.0938 48.4707 92.5469 48.6094 91.9141 48.6094C91.0586 48.6094 90.3672 48.3321 89.8398 47.7774C89.3164 47.2188 89.0547 46.4961 89.0547 45.6094C89.0547 44.6211 89.3379 43.8282 89.9043 43.2305C90.4707 42.6289 91.2266 42.3282 92.1719 42.3282C92.6992 42.3282 93.1641 42.4258 93.5664 42.6211V43.6055C93.1211 43.293 92.6445 43.1367 92.1367 43.1367C91.5234 43.1367 91.0195 43.3575 90.625 43.7989C90.2344 44.2364 90.0391 44.8125 90.0391 45.5274C90.0391 46.2305 90.2227 46.7852 90.5898 47.1914C90.9609 47.5977 91.457 47.8008 92.0781 47.8008C92.6016 47.8008 93.0938 47.627 93.5547 47.2793V48.1934ZM99.8301 45.709H95.5938C95.6094 46.377 95.7891 46.8926 96.1328 47.2559C96.4766 47.6192 96.9492 47.8008 97.5508 47.8008C98.2266 47.8008 98.8477 47.5782 99.4141 47.1328V48.0352C98.8867 48.418 98.1895 48.6094 97.3223 48.6094C96.4746 48.6094 95.8086 48.3379 95.3242 47.795C94.8398 47.2481 94.5977 46.4805 94.5977 45.4922C94.5977 44.5586 94.8613 43.7989 95.3887 43.2129C95.9199 42.6231 96.5781 42.3282 97.3633 42.3282C98.1484 42.3282 98.7559 42.5821 99.1855 43.0899C99.6152 43.5977 99.8301 44.3028 99.8301 45.2051V45.709ZM98.8457 44.8946C98.8418 44.3399 98.707 43.9082 98.4414 43.5996C98.1797 43.291 97.8145 43.1367 97.3457 43.1367C96.8926 43.1367 96.5078 43.2989 96.1914 43.6231C95.875 43.9473 95.6797 44.3711 95.6055 44.8946H98.8457ZM112.141 42.4688L110.342 48.4688H109.346L108.109 44.1739C108.062 44.0098 108.031 43.8242 108.016 43.6172H107.992C107.98 43.7578 107.939 43.9395 107.869 44.1621L106.527 48.4688H105.566L103.75 42.4688H104.758L106 46.9805C106.039 47.1172 106.066 47.2969 106.082 47.5196H106.129C106.141 47.3477 106.176 47.1641 106.234 46.9688L107.617 42.4688H108.496L109.738 46.9922C109.777 47.1367 109.807 47.3164 109.826 47.5313H109.873C109.881 47.3789 109.914 47.1992 109.973 46.9922L111.191 42.4688H112.141ZM113.746 40.9453C113.574 40.9453 113.428 40.8867 113.307 40.7696C113.186 40.6524 113.125 40.5039 113.125 40.3242C113.125 40.1446 113.186 39.9961 113.307 39.8789C113.428 39.7578 113.574 39.6973 113.746 39.6973C113.922 39.6973 114.07 39.7578 114.191 39.8789C114.316 39.9961 114.379 40.1446 114.379 40.3242C114.379 40.4961 114.316 40.6426 114.191 40.7637C114.07 40.8848 113.922 40.9453 113.746 40.9453ZM114.215 48.4688H113.254V42.4688H114.215V48.4688ZM121.141 48.4688H120.18V45.0469C120.18 43.7735 119.715 43.1367 118.785 43.1367C118.305 43.1367 117.906 43.3184 117.59 43.6817C117.277 44.041 117.121 44.4961 117.121 45.0469V48.4688H116.16V42.4688H117.121V43.4649H117.145C117.598 42.7071 118.254 42.3282 119.113 42.3282C119.77 42.3282 120.271 42.541 120.619 42.9668C120.967 43.3887 121.141 44 121.141 44.8008V48.4688ZM127.938 48.4688H126.977V45.0469C126.977 43.7735 126.512 43.1367 125.582 43.1367C125.102 43.1367 124.703 43.3184 124.387 43.6817C124.074 44.041 123.918 44.4961 123.918 45.0469V48.4688H122.957V42.4688H123.918V43.4649H123.941C124.395 42.7071 125.051 42.3282 125.91 42.3282C126.566 42.3282 127.068 42.541 127.416 42.9668C127.764 43.3887 127.938 44 127.938 44.8008V48.4688ZM134.576 45.709H130.34C130.355 46.377 130.535 46.8926 130.879 47.2559C131.223 47.6192 131.695 47.8008 132.297 47.8008C132.973 47.8008 133.594 47.5782 134.16 47.1328V48.0352C133.633 48.418 132.936 48.6094 132.068 48.6094C131.221 48.6094 130.555 48.3379 130.07 47.795C129.586 47.2481 129.344 46.4805 129.344 45.4922C129.344 44.5586 129.607 43.7989 130.135 43.2129C130.666 42.6231 131.324 42.3282 132.109 42.3282C132.895 42.3282 133.502 42.5821 133.932 43.0899C134.361 43.5977 134.576 44.3028 134.576 45.2051V45.709ZM133.592 44.8946C133.588 44.3399 133.453 43.9082 133.188 43.5996C132.926 43.291 132.561 43.1367 132.092 43.1367C131.639 43.1367 131.254 43.2989 130.938 43.6231C130.621 43.9473 130.426 44.3711 130.352 44.8946H133.592ZM139.164 43.4414C138.996 43.3125 138.754 43.2481 138.438 43.2481C138.027 43.2481 137.684 43.4414 137.406 43.8282C137.133 44.2149 136.996 44.7422 136.996 45.4102V48.4688H136.035V42.4688H136.996V43.7051H137.02C137.156 43.2832 137.365 42.9551 137.646 42.7207C137.928 42.4825 138.242 42.3633 138.59 42.3633C138.84 42.3633 139.031 42.3907 139.164 42.4453V43.4414Z" fill="#FEFEFE"/>
</g>
<defs>
<clipPath id="clip0_12_658">
<rect width="119" height="51" fill="white" transform="translate(37 0.468781)"/>
</clipPath>
</defs>
</svg>
