<svg width="281" height="37" viewBox="0 0 281 37" fill="none" xmlns="http://www.w3.org/2000/svg">
<g clip-path="url(#clip0_194_24)">
<path d="M42 26.785C42 28.5584 41.5717 30.1836 40.7161 31.6618C39.8595 33.1399 38.7147 34.3157 37.2797 35.1892C35.8447 36.0637 34.2457 36.5 32.4838 36.5C30.9226 36.5 29.4747 36.153 28.1411 35.4591C26.8065 34.7651 25.6985 33.8277 24.818 32.6448C23.9614 33.8277 22.8663 34.7651 21.5327 35.4591C20.198 36.153 18.7501 36.5 17.1899 36.5C15.4529 36.5 13.8609 36.0637 12.413 35.1892C10.9651 34.3157 9.81332 33.1399 8.9577 31.6618C8.10108 30.1846 7.67377 28.5584 7.67377 26.785V11.4415C7.67377 10.3773 8.51945 9.51392 9.5619 9.51392C10.6043 9.51392 11.45 10.3773 11.45 11.4415V26.785C11.45 27.8644 11.7074 28.8475 12.2242 29.7342C12.7399 30.6209 13.4326 31.328 14.3011 31.8545C15.1697 32.3821 16.1326 32.6448 17.1899 32.6448C18.2473 32.6448 19.1655 32.3942 20.0221 31.8931C20.8778 31.3919 21.5645 30.7172 22.0802 29.8691C22.596 29.021 22.8792 28.0836 22.9299 27.0548V11.4415C22.9299 10.3773 23.7756 9.51392 24.818 9.51392H24.8558C25.8982 9.51392 26.7439 10.3773 26.7439 11.4415V26.785C26.7439 27.8644 27.0013 28.8475 27.518 29.7342C28.0338 30.6209 28.7264 31.328 29.595 31.8545C30.4635 32.3821 31.4265 32.6448 32.4838 32.6448C33.5412 32.6448 34.5041 32.3821 35.3727 31.8545C36.2412 31.328 36.9329 30.6209 37.4496 29.7342C37.9654 28.8475 38.2237 27.8644 38.2237 26.785V11.4415C38.2237 10.3773 39.0694 9.51392 40.1119 9.51392C41.1543 9.51392 42 10.3773 42 11.4415V26.785Z" fill="#02193A"/>
<path d="M0 10.215C0 8.44161 0.428308 6.81636 1.28393 5.33821C2.14055 3.86007 3.28535 2.68425 4.72033 1.81075C6.15531 0.936241 7.75426 0.5 9.51618 0.5C11.0774 0.5 12.5253 0.846963 13.8589 1.54089C15.1935 2.23482 16.3015 3.17223 17.182 4.35515C18.0386 3.17223 19.1337 2.23482 20.4673 1.54089C21.802 0.846963 23.2499 0.5 24.8101 0.5C26.5471 0.5 28.1391 0.936241 29.587 1.81075C31.0349 2.68425 32.1867 3.86007 33.0423 5.33821C33.8989 6.81534 34.3262 8.44161 34.3262 10.215V25.5585C34.3262 26.6227 33.4806 27.486 32.4381 27.486C31.3957 27.486 30.55 26.6227 30.55 25.5585V10.215C30.55 9.13554 30.2926 8.15247 29.7758 7.26579C29.2601 6.3791 28.5674 5.67199 27.6989 5.14546C26.8304 4.61791 25.8674 4.35515 24.8101 4.35515C23.7527 4.35515 22.8345 4.60573 21.9779 5.1069C21.1222 5.60807 20.4355 6.28272 19.9198 7.13086C19.404 7.97899 19.1208 8.9164 19.0701 9.94512V25.5585C19.0701 26.6227 18.2244 27.486 17.182 27.486H17.1442C16.1018 27.486 15.2561 26.6227 15.2561 25.5585V10.215C15.2561 9.13554 14.9987 8.15247 14.482 7.26579C13.9662 6.3791 13.2736 5.67199 12.405 5.14546C11.5365 4.61791 10.5735 4.35515 9.51618 4.35515C8.45883 4.35515 7.49588 4.61791 6.62734 5.14546C5.7588 5.67199 5.06715 6.3791 4.5504 7.26579C4.03464 8.15247 3.77626 9.13554 3.77626 10.215V25.5585C3.77626 26.6227 2.93058 27.486 1.88813 27.486C0.845684 27.486 0 26.6227 0 25.5585V10.215Z" fill="#02193A"/>
</g>
<path d="M57.9219 10.125V20.4375C57.9219 21.2917 58.0729 21.9479 58.375 22.4062C58.6771 22.8646 59.1667 23.0938 59.8438 23.0938C60.375 23.0938 60.9323 22.8333 61.5156 22.3125C62.099 21.7812 62.7344 21.0156 63.4219 20.0156V10.125H67.2344V20.8125C67.2344 21.1875 67.2448 21.5156 67.2656 21.7969C67.2969 22.0781 67.3542 22.3125 67.4375 22.5C67.5312 22.6875 67.6562 22.8281 67.8125 22.9219C67.9688 23.0156 68.1823 23.0625 68.4531 23.0625H68.9219V26C68.4948 26.1146 68.1302 26.1927 67.8281 26.2344C67.526 26.2865 67.1979 26.3125 66.8438 26.3125C66.3542 26.3125 65.9323 26.2552 65.5781 26.1406C65.2344 26.0365 64.9427 25.875 64.7031 25.6562C64.4635 25.4375 64.2708 25.1667 64.125 24.8438C63.9896 24.5104 63.8854 24.1302 63.8125 23.7031C62.5521 25.474 61.1667 26.3594 59.6562 26.3594C59.2292 26.3594 58.8385 26.2917 58.4844 26.1562C58.1302 26.0312 57.8594 25.8646 57.6719 25.6562L57.9219 28.75V32.2031H54.1094V10.125H57.9219ZM85.5312 26H81.0156L79 19.7031L78.2656 17.1406L77.5625 19.7656L75.5781 26H71.25L70.1094 5.57812H73.5L73.9844 18.6719L74.1094 22.25L75.0312 19.0625L77.2812 11.7969H79.7031L82.0781 19.5L82.8438 22.2188L82.9062 19.0312L83.4219 5.57812H86.6875L85.5312 26ZM103.188 16.8438C103.188 17.1042 103.177 17.4427 103.156 17.8594C103.146 18.276 103.125 18.6667 103.094 19.0312H92.6562C92.6562 19.7292 92.7604 20.3438 92.9688 20.875C93.1875 21.4062 93.4896 21.8542 93.875 22.2188C94.2708 22.5729 94.7396 22.8438 95.2812 23.0312C95.8333 23.2188 96.4427 23.3125 97.1094 23.3125C97.8802 23.3125 98.7031 23.2552 99.5781 23.1406C100.464 23.0156 101.38 22.8177 102.328 22.5469V25.5781C101.922 25.6927 101.479 25.7969 101 25.8906C100.521 25.9844 100.031 26.0677 99.5312 26.1406C99.0312 26.2135 98.526 26.2656 98.0156 26.2969C97.5052 26.3385 97.0104 26.3594 96.5312 26.3594C95.3229 26.3594 94.2396 26.1875 93.2812 25.8438C92.3229 25.5 91.5104 24.9948 90.8438 24.3281C90.1771 23.651 89.6667 22.8177 89.3125 21.8281C88.9583 20.8385 88.7812 19.6927 88.7812 18.3906C88.7812 17.099 88.9583 15.9271 89.3125 14.875C89.6667 13.8125 90.1667 12.9062 90.8125 12.1562C91.4583 11.3958 92.2396 10.8125 93.1562 10.4062C94.0833 9.98958 95.1146 9.78125 96.25 9.78125C97.375 9.78125 98.3698 9.95833 99.2344 10.3125C100.099 10.6562 100.823 11.1406 101.406 11.7656C101.99 12.3906 102.432 13.1354 102.734 14C103.036 14.8646 103.188 15.8125 103.188 16.8438ZM99.3125 16.2969C99.3229 15.6719 99.2448 15.1302 99.0781 14.6719C98.9115 14.2031 98.6823 13.8177 98.3906 13.5156C98.1094 13.2135 97.776 12.9896 97.3906 12.8438C97.0156 12.6979 96.6094 12.625 96.1719 12.625C95.2135 12.625 94.4271 12.9479 93.8125 13.5938C93.1979 14.2292 92.8333 15.1302 92.7188 16.2969H99.3125ZM121.234 17.7812C121.234 19.2396 121.026 20.5 120.609 21.5625C120.203 22.625 119.63 23.5104 118.891 24.2188C118.161 24.9167 117.297 25.4375 116.297 25.7812C115.297 26.1146 114.208 26.2812 113.031 26.2812C111.875 26.2812 110.797 26.1927 109.797 26.0156C108.807 25.849 107.859 25.6198 106.953 25.3281V3.92188H110.766V9.10938L110.609 12.2344C111.182 11.4948 111.849 10.901 112.609 10.4531C113.38 10.0052 114.302 9.78125 115.375 9.78125C116.312 9.78125 117.146 9.96875 117.875 10.3438C118.604 10.7188 119.214 11.2552 119.703 11.9531C120.203 12.6406 120.583 13.4792 120.844 14.4688C121.104 15.4479 121.234 16.5521 121.234 17.7812ZM117.234 17.9375C117.234 17.0625 117.172 16.3177 117.047 15.7031C116.922 15.0885 116.74 14.5833 116.5 14.1875C116.271 13.7917 115.984 13.5052 115.641 13.3281C115.307 13.1406 114.922 13.0469 114.484 13.0469C113.839 13.0469 113.219 13.3073 112.625 13.8281C112.042 14.349 111.422 15.0573 110.766 15.9531V22.8906C111.068 23.0052 111.438 23.099 111.875 23.1719C112.323 23.2448 112.776 23.2812 113.234 23.2812C113.839 23.2812 114.385 23.1562 114.875 22.9062C115.375 22.6562 115.797 22.3021 116.141 21.8438C116.495 21.3854 116.766 20.8281 116.953 20.1719C117.141 19.5052 117.234 18.7604 117.234 17.9375ZM156.25 12.0781C156.25 13.1406 156.073 14.125 155.719 15.0312C155.365 15.9271 154.839 16.7031 154.141 17.3594C153.443 18.0156 152.573 18.526 151.531 18.8906C150.49 19.2552 149.281 19.4375 147.906 19.4375H145.953V26H142.078V5.57812H148.062C149.385 5.57812 150.552 5.72396 151.562 6.01562C152.583 6.29688 153.438 6.71354 154.125 7.26562C154.823 7.81771 155.349 8.5 155.703 9.3125C156.068 10.1146 156.25 11.0365 156.25 12.0781ZM152.219 12.3438C152.219 11.8021 152.13 11.3125 151.953 10.875C151.786 10.4271 151.526 10.0469 151.172 9.73438C150.828 9.42188 150.391 9.18229 149.859 9.01562C149.328 8.84896 148.698 8.76562 147.969 8.76562H145.953V16.25H148.094C148.76 16.25 149.349 16.1615 149.859 15.9844C150.37 15.7969 150.797 15.5312 151.141 15.1875C151.495 14.8438 151.76 14.4323 151.938 13.9531C152.125 13.474 152.219 12.9375 152.219 12.3438ZM164.859 6.89062H160.375V3.92188H168.766V23.0312H173.344V26H159.828V23.0312H164.859V6.89062ZM187.281 26L187.188 23.9219C186.854 24.276 186.505 24.6042 186.141 24.9062C185.776 25.1979 185.375 25.4531 184.938 25.6719C184.5 25.8906 184.021 26.0573 183.5 26.1719C182.99 26.2969 182.427 26.3594 181.812 26.3594C181 26.3594 180.286 26.2396 179.672 26C179.057 25.7604 178.542 25.4271 178.125 25C177.708 24.5729 177.391 24.0573 177.172 23.4531C176.964 22.849 176.859 22.1823 176.859 21.4531C176.859 20.7031 177.016 20.0104 177.328 19.375C177.651 18.7396 178.135 18.1927 178.781 17.7344C179.438 17.276 180.25 16.9167 181.219 16.6562C182.198 16.3958 183.344 16.2656 184.656 16.2656H186.734V15.3125C186.734 14.9062 186.677 14.5417 186.562 14.2188C186.448 13.8854 186.26 13.6042 186 13.375C185.75 13.1458 185.422 12.9688 185.016 12.8438C184.609 12.7188 184.109 12.6562 183.516 12.6562C182.578 12.6562 181.651 12.7656 180.734 12.9844C179.828 13.1927 178.948 13.4896 178.094 13.875V10.8281C178.854 10.526 179.729 10.276 180.719 10.0781C181.719 9.88021 182.755 9.78125 183.828 9.78125C185.005 9.78125 186.016 9.89583 186.859 10.125C187.703 10.3438 188.396 10.6771 188.938 11.125C189.49 11.5729 189.896 12.1354 190.156 12.8125C190.417 13.4792 190.547 14.2604 190.547 15.1562V26H187.281ZM186.734 18.9844H184.406C183.76 18.9844 183.214 19.0469 182.766 19.1719C182.318 19.2969 181.953 19.4688 181.672 19.6875C181.391 19.9062 181.182 20.1615 181.047 20.4531C180.922 20.7344 180.859 21.0365 180.859 21.3594C180.859 22.0052 181.068 22.5 181.484 22.8438C181.901 23.1771 182.469 23.3438 183.188 23.3438C183.719 23.3438 184.271 23.151 184.844 22.7656C185.417 22.3802 186.047 21.8281 186.734 21.1094V18.9844ZM208.016 25.8438C207.328 26 206.635 26.125 205.938 26.2188C205.24 26.3125 204.578 26.3594 203.953 26.3594C202.911 26.3594 202.01 26.25 201.25 26.0312C200.5 25.8125 199.875 25.4792 199.375 25.0312C198.885 24.5833 198.521 24.0156 198.281 23.3281C198.052 22.6302 197.938 21.8021 197.938 20.8438V13.0938H193.672V10.125H197.938V6.0625L201.844 5.04688V10.125H208.016V13.0938H201.844V20.5625C201.844 21.4688 202.052 22.1562 202.469 22.625C202.885 23.0833 203.583 23.3125 204.562 23.3125C205.188 23.3125 205.797 23.2604 206.391 23.1562C206.984 23.0521 207.526 22.9323 208.016 22.7969V25.8438ZM226.766 7.15625C226.307 7.01042 225.76 6.89062 225.125 6.79688C224.5 6.69271 223.859 6.64062 223.203 6.64062C222.755 6.64062 222.339 6.70312 221.953 6.82812C221.568 6.94271 221.234 7.13021 220.953 7.39062C220.672 7.65104 220.448 7.98438 220.281 8.39062C220.125 8.78646 220.047 9.27083 220.047 9.84375V12.4062H226.281V15.375H220.047V26H216.203V15.375H211.594V12.4062H216.203V10C216.203 8.875 216.365 7.91146 216.688 7.10938C217.021 6.29688 217.484 5.63542 218.078 5.125C218.682 4.60417 219.406 4.22396 220.25 3.98438C221.094 3.74479 222.036 3.625 223.078 3.625C223.766 3.625 224.417 3.67188 225.031 3.76562C225.656 3.84896 226.234 3.95312 226.766 4.07812V7.15625ZM244.406 17.9375C244.406 19.1875 244.229 20.3333 243.875 21.375C243.521 22.4062 243.01 23.2917 242.344 24.0312C241.677 24.7708 240.859 25.3438 239.891 25.75C238.922 26.1562 237.818 26.3594 236.578 26.3594C235.401 26.3594 234.349 26.1875 233.422 25.8438C232.495 25.5 231.708 24.9896 231.062 24.3125C230.417 23.625 229.922 22.7708 229.578 21.75C229.234 20.7188 229.062 19.5208 229.062 18.1562C229.062 16.8958 229.24 15.75 229.594 14.7188C229.958 13.6875 230.474 12.8073 231.141 12.0781C231.818 11.349 232.641 10.7865 233.609 10.3906C234.578 9.98438 235.672 9.78125 236.891 9.78125C238.078 9.78125 239.135 9.95833 240.062 10.3125C240.99 10.6562 241.776 11.1719 242.422 11.8594C243.068 12.5469 243.557 13.401 243.891 14.4219C244.234 15.4323 244.406 16.6042 244.406 17.9375ZM240.438 18.0312C240.438 16.3854 240.125 15.151 239.5 14.3281C238.885 13.4948 237.974 13.0781 236.766 13.0781C236.099 13.0781 235.531 13.2083 235.062 13.4688C234.594 13.7292 234.208 14.0885 233.906 14.5469C233.604 14.9948 233.38 15.5208 233.234 16.125C233.099 16.7292 233.031 17.375 233.031 18.0625C233.031 19.7188 233.365 20.9688 234.031 21.8125C234.698 22.6458 235.609 23.0625 236.766 23.0625C237.401 23.0625 237.953 22.9375 238.422 22.6875C238.891 22.4271 239.271 22.0729 239.562 21.625C239.854 21.1667 240.073 20.6302 240.219 20.0156C240.365 19.401 240.438 18.7396 240.438 18.0312ZM257.922 16.2969C257.943 15.7031 257.911 15.1979 257.828 14.7812C257.755 14.3646 257.63 14.0208 257.453 13.75C257.286 13.4792 257.078 13.2812 256.828 13.1562C256.578 13.0312 256.292 12.9688 255.969 12.9688C255.406 12.9688 254.823 13.2031 254.219 13.6719C253.625 14.1302 252.969 14.8906 252.25 15.9531V26H248.344V10.125H251.797L251.938 12.4375C252.198 12.0312 252.49 11.6667 252.812 11.3438C253.146 11.0208 253.51 10.7448 253.906 10.5156C254.312 10.276 254.76 10.0938 255.25 9.96875C255.74 9.84375 256.276 9.78125 256.859 9.78125C257.661 9.78125 258.37 9.92188 258.984 10.2031C259.609 10.474 260.13 10.8802 260.547 11.4219C260.974 11.9635 261.286 12.6458 261.484 13.4688C261.693 14.2812 261.781 15.224 261.75 16.2969H257.922ZM276.5 26V15.1875C276.5 14.7917 276.49 14.4479 276.469 14.1562C276.448 13.8542 276.406 13.6042 276.344 13.4062C276.281 13.2083 276.188 13.0625 276.062 12.9688C275.948 12.8646 275.786 12.8125 275.578 12.8125C275.255 12.8125 274.938 13.0312 274.625 13.4688C274.312 13.9062 273.958 14.651 273.562 15.7031V26H270.297V15.1875C270.297 14.7917 270.286 14.4479 270.266 14.1562C270.245 13.8542 270.203 13.6042 270.141 13.4062C270.078 13.2083 269.984 13.0625 269.859 12.9688C269.734 12.8646 269.568 12.8125 269.359 12.8125C269.089 12.8125 268.786 13.0312 268.453 13.4688C268.12 13.9062 267.75 14.651 267.344 15.7031V26H264.047V10.125H266.875L266.938 12.4375C267.167 11.9688 267.396 11.5677 267.625 11.2344C267.854 10.901 268.099 10.6302 268.359 10.4219C268.62 10.2031 268.896 10.0469 269.188 9.95312C269.49 9.85938 269.828 9.8125 270.203 9.8125C271.089 9.8125 271.76 10.0469 272.219 10.5156C272.688 10.974 272.953 11.6146 273.016 12.4375C273.266 11.9688 273.51 11.5677 273.75 11.2344C274 10.901 274.255 10.6302 274.516 10.4219C274.786 10.2031 275.073 10.0469 275.375 9.95312C275.688 9.85938 276.031 9.8125 276.406 9.8125C277.562 9.8125 278.417 10.2188 278.969 11.0312C279.521 11.8333 279.797 13.026 279.797 14.6094V26H276.5Z" fill="#02193A"/>
<defs>
<clipPath id="clip0_194_24">
<rect width="42" height="36" fill="white" transform="translate(0 0.5)"/>
</clipPath>
</defs>
</svg>
