<svg width="19" height="18" viewBox="0 0 19 18" fill="none" xmlns="http://www.w3.org/2000/svg">
<path fill-rule="evenodd" clip-rule="evenodd" d="M9.5 18C14.4706 18 18.5 13.9706 18.5 9C18.5 4.02944 14.4706 0 9.5 0C4.52944 0 0.5 4.02944 0.5 9C0.5 13.9706 4.52944 18 9.5 18ZM2.2998 9.00005C2.2998 5.02205 5.5218 1.80005 9.4998 1.80005C13.4778 1.80005 16.6998 5.02205 16.6998 9.00005C16.6994 10.5086 16.2259 11.9791 15.346 13.2045C14.4661 14.4299 13.2241 15.3485 11.7948 15.831C11.4348 15.903 11.2998 15.678 11.2998 15.489C11.2998 15.4078 11.3008 15.2672 11.3021 15.08C11.3048 14.7073 11.3088 14.1501 11.3088 13.509C11.3088 12.834 11.0838 12.402 10.8228 12.177C12.4248 11.997 14.1078 11.385 14.1078 8.62205C14.1078 7.83005 13.8288 7.19105 13.3698 6.68705C13.4418 6.50705 13.6938 5.76905 13.2978 4.77905C13.2978 4.77905 12.6948 4.58105 11.3178 5.51705C10.7418 5.35505 10.1298 5.27405 9.5178 5.27405C8.9058 5.27405 8.2938 5.35505 7.7178 5.51705C6.3408 4.59005 5.7378 4.77905 5.7378 4.77905C5.3418 5.76905 5.5938 6.50705 5.6658 6.68705C5.2068 7.19105 4.9278 7.83905 4.9278 8.62205C4.9278 11.376 6.6018 11.997 8.2038 12.177C7.9968 12.357 7.8078 12.672 7.7448 13.14C7.3308 13.329 6.2958 13.635 5.6478 12.546C5.5128 12.33 5.1078 11.799 4.5408 11.808C3.9378 11.817 4.2978 12.15 4.5498 12.285C4.8558 12.456 5.2068 13.095 5.2878 13.302C5.4318 13.707 5.8998 14.481 7.7088 14.148C7.7088 14.5415 7.71264 14.9197 7.7153 15.1825C7.71672 15.3224 7.7178 15.4296 7.7178 15.489C7.7178 15.678 7.5828 15.894 7.2228 15.831C4.3608 14.877 2.2998 12.186 2.2998 9.00005Z" fill="white"/>
</svg>
