<svg width="22" height="22" viewBox="0 0 22 22" fill="none" xmlns="http://www.w3.org/2000/svg">
<path fill-rule="evenodd" clip-rule="evenodd" d="M11 22C17.0751 22 22 17.0751 22 11C22 4.92487 17.0751 0 11 0C4.92487 0 0 4.92487 0 11C0 17.0751 4.92487 22 11 22ZM2.19976 11.0001C2.19976 6.13806 6.13776 2.20006 10.9998 2.20006C15.8618 2.20006 19.7998 6.13806 19.7998 11.0001C19.7992 12.8439 19.2205 14.6411 18.1451 16.1388C17.0697 17.6365 15.5517 18.7593 13.8048 19.3491C13.3648 19.4371 13.1998 19.1621 13.1998 18.9311C13.1998 18.8318 13.201 18.6599 13.2026 18.4311C13.2059 17.9756 13.2108 17.2945 13.2108 16.5111C13.2108 15.6861 12.9358 15.1581 12.6168 14.8831C14.5748 14.6631 16.6318 13.9151 16.6318 10.5381C16.6318 9.57006 16.2908 8.78906 15.7298 8.17306C15.8178 7.95306 16.1258 7.05106 15.6418 5.84106C15.6418 5.84106 14.9048 5.59906 13.2218 6.74306C12.5178 6.54506 11.7698 6.44606 11.0218 6.44606C10.2738 6.44606 9.52576 6.54506 8.82176 6.74306C7.13876 5.61006 6.40176 5.84106 6.40176 5.84106C5.91776 7.05106 6.22576 7.95306 6.31376 8.17306C5.75276 8.78906 5.41176 9.58106 5.41176 10.5381C5.41176 13.9041 7.45776 14.6631 9.41576 14.8831C9.16276 15.1031 8.93176 15.4881 8.85476 16.0601C8.34876 16.2911 7.08376 16.6651 6.29176 15.3341C6.12676 15.0701 5.63176 14.4211 4.93876 14.4321C4.20176 14.4431 4.64176 14.8501 4.94976 15.0151C5.32376 15.2241 5.75276 16.0051 5.85176 16.2581C6.02776 16.7531 6.59976 17.6991 8.81076 17.2921C8.81076 17.773 8.81544 18.2351 8.8187 18.5563C8.82043 18.7274 8.82176 18.8584 8.82176 18.9311C8.82176 19.1621 8.65676 19.4261 8.21676 19.3491C4.71876 18.1831 2.19976 14.8941 2.19976 11.0001Z" fill="#02193A"/>
</svg>
