<svg width="369" height="396" viewBox="0 0 369 396" fill="none" xmlns="http://www.w3.org/2000/svg">
<path d="M169 164.433C215.644 164.433 257.858 168.405 288.398 174.82C303.673 178.028 316 181.843 324.497 186.063C328.746 188.173 332.011 190.372 334.208 192.627C336.403 194.881 337.5 197.155 337.5 199.433C337.5 201.711 336.403 203.985 334.208 206.239C332.011 208.494 328.746 210.693 324.497 212.803C316 217.023 303.673 220.838 288.398 224.046C257.858 230.462 215.644 234.433 169 234.433C122.356 234.433 80.1417 230.462 49.6016 224.046C34.3275 220.838 21.9997 217.023 13.5029 212.803C9.25392 210.693 5.98872 208.494 3.79199 206.239C1.59696 203.985 0.5 201.711 0.5 199.433C0.5 197.155 1.59696 194.881 3.79199 192.627C5.98872 190.372 9.25392 188.173 13.5029 186.063C21.9997 181.843 34.3275 178.028 49.6016 174.82C80.1417 168.405 122.356 164.433 169 164.433Z" stroke="#02193A"/>
<path d="M169 139.433C215.644 139.433 257.858 143.405 288.398 149.82C303.673 153.028 316 156.843 324.497 161.063C328.746 163.173 332.011 165.372 334.208 167.627C336.403 169.881 337.5 172.155 337.5 174.433C337.5 176.711 336.403 178.985 334.208 181.239C332.011 183.494 328.746 185.693 324.497 187.803C316 192.023 303.673 195.838 288.398 199.046C257.858 205.462 215.644 209.433 169 209.433C122.356 209.433 80.1417 205.462 49.6016 199.046C34.3275 195.838 21.9997 192.023 13.5029 187.803C9.25392 185.693 5.98872 183.494 3.79199 181.239C1.59696 178.985 0.5 176.711 0.5 174.433C0.5 172.155 1.59696 169.881 3.79199 167.627C5.98872 165.372 9.25392 163.173 13.5029 161.063C21.9997 156.843 34.3275 153.028 49.6016 149.82C80.1417 143.405 122.356 139.433 169 139.433Z" stroke="#02193A"/>
<path d="M169 189.433C215.644 189.433 257.858 193.405 288.398 199.82C303.673 203.028 316 206.843 324.497 211.063C328.746 213.173 332.011 215.372 334.208 217.627C336.403 219.881 337.5 222.155 337.5 224.433C337.5 226.711 336.403 228.985 334.208 231.239C332.011 233.494 328.746 235.693 324.497 237.803C316 242.023 303.673 245.838 288.398 249.046C257.858 255.462 215.644 259.433 169 259.433C122.356 259.433 80.1417 255.462 49.6016 249.046C34.3275 245.838 21.9997 242.023 13.5029 237.803C9.25392 235.693 5.98872 233.494 3.79199 231.239C1.59696 228.985 0.5 226.711 0.5 224.433C0.5 222.155 1.59696 219.881 3.79199 217.627C5.98872 215.372 9.25392 213.173 13.5029 211.063C21.9997 206.843 34.3275 203.028 49.6016 199.82C80.1417 193.405 122.356 189.433 169 189.433Z" stroke="#02193A"/>
<path d="M169 214.433C215.644 214.433 257.858 218.405 288.398 224.82C303.673 228.028 316 231.843 324.497 236.063C328.746 238.173 332.011 240.372 334.208 242.627C336.403 244.881 337.5 247.155 337.5 249.433C337.5 251.711 336.403 253.985 334.208 256.239C332.011 258.494 328.746 260.693 324.497 262.803C316 267.023 303.673 270.838 288.398 274.046C257.858 280.462 215.644 284.433 169 284.433C122.356 284.433 80.1417 280.462 49.6016 274.046C34.3275 270.838 21.9997 267.023 13.5029 262.803C9.25392 260.693 5.98872 258.494 3.79199 256.239C1.59696 253.985 0.5 251.711 0.5 249.433C0.5 247.155 1.59696 244.881 3.79199 242.627C5.98872 240.372 9.25392 238.173 13.5029 236.063C21.9997 231.843 34.3275 228.028 49.6016 224.82C80.1417 218.405 122.356 214.433 169 214.433Z" stroke="#02193A"/>
<path d="M207.343 67.5625L207.511 68.4678L208.179 67.834L255.312 23.1094L227.341 81.7568L226.944 82.5879L227.857 82.4678L292.277 73.9883L235.177 104.994L234.367 105.434L235.177 105.873L292.277 136.878L227.857 128.399L226.944 128.279L227.341 129.11L255.312 187.757L208.179 143.033L207.511 142.399L207.343 143.305L195.5 207.192L183.657 143.305L183.489 142.399L182.821 143.033L135.688 187.757L163.659 129.11L164.056 128.279L163.143 128.399L98.7217 136.878L155.823 105.873L156.633 105.434L155.823 104.994L98.7217 73.9883L163.143 82.4678L164.056 82.5879L163.659 81.7568L135.688 23.1094L182.821 67.834L183.489 68.4678L183.657 67.5625L195.5 3.67383L207.343 67.5625Z" stroke="#02193A"/>
<path d="M304.324 218.244L304.494 218.674L304.936 218.538L350.046 204.722L326.538 245.628L326.309 246.028L326.689 246.289L365.616 272.943L318.979 280.068L318.522 280.139L318.557 280.6L321.987 327.652L287.339 295.633L287 295.319L286.661 295.633L252.012 327.652L255.443 280.6L255.478 280.139L255.021 280.068L208.383 272.943L247.311 246.289L247.691 246.028L247.462 245.628L223.953 204.722L269.064 218.538L269.506 218.674L269.676 218.244L287 174.36L304.324 218.244Z" fill="#F8F9FF" stroke="#02193A"/>
<path d="M156.921 319.867L126.213 304.284C125.848 304.094 125.661 303.709 125.473 303.325L110.307 271.389C107.713 265.81 101.057 263.497 95.6876 266.189C93.5153 267.3 91.7586 269.128 90.6929 271.389L75.5265 303.325C75.325 303.679 75.076 304.002 74.7869 304.284L44.0792 320.062C38.7147 322.754 36.4908 329.682 39.0793 335.261C40.1463 337.522 41.9049 339.351 44.0792 340.461L74.7869 356.039C75.1515 356.234 75.339 356.618 75.5265 356.808L90.8804 388.744C93.4689 394.323 100.13 396.636 105.495 393.944C107.667 392.833 109.424 391.004 110.489 388.744L125.473 356.808C125.661 356.429 126.031 356.039 126.213 356.039L156.921 340.266C162.285 337.568 164.509 330.646 161.921 325.067C160.994 322.754 159.145 321.026 156.921 319.867ZM134.171 322.18L119.927 335.071C117.151 337.763 115.114 341.225 114.375 345.076L110.677 364.31C110.489 365.085 109.75 365.664 109.01 365.469C108.64 365.469 108.453 365.274 108.271 364.89L95.8751 350.075C93.2866 347.188 89.9533 345.076 86.2555 344.301L67.7558 340.455C67.0162 340.266 66.459 339.491 66.6465 338.722C66.6465 338.343 66.8287 338.148 67.1985 337.953L81.4431 325.062C84.2191 322.369 86.2555 318.908 86.995 315.057L90.6929 295.823C90.8804 295.048 91.62 294.469 92.3595 294.664C92.6375 294.712 92.8952 294.846 93.0991 295.048L105.495 309.863C108.083 312.75 111.416 314.868 115.114 315.637L133.614 319.482C134.354 319.677 134.911 320.447 134.723 321.216C134.624 321.582 134.434 321.914 134.171 322.18Z" fill="#7958FF"/>
</svg>
