<svg width="155" height="34" viewBox="0 0 155 34" fill="none" xmlns="http://www.w3.org/2000/svg">
<path d="M14.3984 26V13.3262C14.3984 12.7754 14.375 12.3242 14.3281 11.9727C14.293 11.6211 14.2285 11.3457 14.1348 11.1465C14.0527 10.9355 13.9414 10.7891 13.8008 10.707C13.6719 10.625 13.5078 10.584 13.3086 10.584C13.0742 10.584 12.8574 10.6543 12.6582 10.7949C12.459 10.9355 12.2422 11.1641 12.0078 11.4805C11.7852 11.7969 11.5332 12.2188 11.252 12.7461C10.9824 13.2617 10.6602 13.9004 10.2852 14.6621V26H7.49023V13.6602C7.49023 13.0156 7.4668 12.4941 7.41992 12.0957C7.38477 11.6973 7.32031 11.3867 7.22656 11.1641C7.14453 10.9414 7.0332 10.7891 6.89258 10.707C6.75195 10.625 6.58203 10.584 6.38281 10.584C6.17188 10.584 5.97266 10.6426 5.78516 10.7598C5.59766 10.877 5.38672 11.0879 5.15234 11.3926C4.92969 11.6973 4.67773 12.1133 4.39648 12.6406C4.11523 13.168 3.78125 13.8418 3.39453 14.6621V26H0.582031V8.35156H2.91992L3.06055 11.709C3.36523 11.041 3.6582 10.4727 3.93945 10.0039C4.23242 9.53516 4.53125 9.16016 4.83594 8.87891C5.14062 8.58594 5.46289 8.375 5.80273 8.24609C6.1543 8.10547 6.54102 8.03516 6.96289 8.03516C7.91211 8.03516 8.63281 8.3457 9.125 8.9668C9.61719 9.58789 9.86328 10.5488 9.86328 11.8496C10.1445 11.2402 10.4199 10.7012 10.6895 10.2324C10.959 9.75195 11.2461 9.35352 11.5508 9.03711C11.8672 8.70898 12.2129 8.46289 12.5879 8.29883C12.9629 8.12305 13.3965 8.03516 13.8887 8.03516C16.1035 8.03516 17.2109 9.74023 17.2109 13.1504V26H14.3984ZM37.3027 8.35156L31.291 24.1367C30.6699 25.7422 30.0254 27.125 29.3574 28.2852C28.7012 29.4453 27.9805 30.3945 27.1953 31.1328C26.4102 31.8828 25.5488 32.4336 24.6113 32.7852C23.6738 33.1367 22.625 33.3125 21.4648 33.3125C21.1602 33.3125 20.8848 33.3066 20.6387 33.2949C20.3926 33.2832 20.123 33.2656 19.8301 33.2422V30.4648C20.0879 30.5 20.3691 30.5293 20.6738 30.5527C20.9785 30.5879 21.3008 30.6055 21.6406 30.6055C22.2031 30.6055 22.7246 30.5234 23.2051 30.3594C23.6973 30.1953 24.1602 29.9258 24.5938 29.5508C25.0273 29.1875 25.4434 28.7129 25.8418 28.127C26.2402 27.541 26.627 26.832 27.002 26L19.9531 8.35156H23.4336L27.8984 20.0234L28.7949 22.7656L29.8145 19.9531L33.9453 8.35156H37.3027ZM57.3066 26H53.2461L48.4824 19.2676L43.7715 26H39.8164L46.6543 17.1406L40.1328 8.35156H44.0527L48.6934 15.1367L53.2461 8.35156H57.0254L50.3984 17.2109L57.3066 26ZM76.0977 16.2441C76.0977 16.6777 76.0918 17.041 76.0801 17.334C76.0684 17.627 76.0508 17.9023 76.0273 18.1602H63.6348C63.6348 19.9648 64.1387 21.3535 65.1465 22.3262C66.1543 23.2871 67.6074 23.7676 69.5059 23.7676C70.0215 23.7676 70.5371 23.75 71.0527 23.7148C71.5684 23.668 72.0664 23.6094 72.5469 23.5391C73.0273 23.4688 73.4844 23.3926 73.918 23.3105C74.3633 23.2168 74.7734 23.1172 75.1484 23.0117V25.5254C74.3164 25.7598 73.373 25.9473 72.3184 26.0879C71.2754 26.2402 70.1914 26.3164 69.0664 26.3164C67.5547 26.3164 66.2539 26.1113 65.1641 25.7012C64.0742 25.291 63.1777 24.6992 62.4746 23.9258C61.7832 23.1406 61.2676 22.1855 60.9277 21.0605C60.5996 19.9238 60.4355 18.6406 60.4355 17.2109C60.4355 15.9688 60.6113 14.7969 60.9629 13.6953C61.3262 12.582 61.8477 11.6094 62.5273 10.7773C63.2188 9.93359 64.0625 9.26562 65.0586 8.77344C66.0547 8.28125 67.1855 8.03516 68.4512 8.03516C69.6816 8.03516 70.7715 8.22852 71.7207 8.61523C72.6699 9.00195 73.4668 9.55273 74.1113 10.2676C74.7676 10.9707 75.2598 11.832 75.5879 12.8516C75.9277 13.8594 76.0977 14.9902 76.0977 16.2441ZM72.916 15.8047C72.9512 15.0195 72.875 14.3047 72.6875 13.6602C72.5 13.0039 72.207 12.4414 71.8086 11.9727C71.4219 11.5039 70.9355 11.1406 70.3496 10.8828C69.7637 10.6133 69.084 10.4785 68.3105 10.4785C67.6426 10.4785 67.0332 10.6074 66.4824 10.8652C65.9316 11.123 65.457 11.4863 65.0586 11.9551C64.6602 12.4238 64.3379 12.9863 64.0918 13.6426C63.8457 14.2988 63.6934 15.0195 63.6348 15.8047H72.916ZM80.9844 8.35156H83.709L83.832 11.1992C84.3477 10.5898 84.8457 10.0859 85.3262 9.6875C85.8066 9.27734 86.2754 8.94922 86.7324 8.70312C87.2012 8.45703 87.6758 8.28711 88.1562 8.19336C88.6367 8.08789 89.1348 8.03516 89.6504 8.03516C91.4668 8.03516 92.8379 8.57422 93.7637 9.65234C94.7012 10.7188 95.1699 12.3301 95.1699 14.4863V26H92.1113V14.7324C92.1113 13.3496 91.8535 12.3301 91.3379 11.6738C90.8223 11.0059 90.0547 10.6719 89.0352 10.6719C88.6602 10.6719 88.291 10.7305 87.9277 10.8477C87.5762 10.9531 87.207 11.1465 86.8203 11.4277C86.4336 11.6973 86.0117 12.0664 85.5547 12.5352C85.1094 13.0039 84.6055 13.5898 84.043 14.293V26H80.9844V8.35156ZM107.721 20.4629C108.119 20.4629 108.494 20.5391 108.846 20.6914C109.209 20.8438 109.52 21.0547 109.777 21.3242C110.047 21.5938 110.258 21.9102 110.41 22.2734C110.562 22.625 110.639 23.0059 110.639 23.416C110.639 23.8145 110.562 24.1895 110.41 24.541C110.258 24.8926 110.047 25.2031 109.777 25.4727C109.52 25.7305 109.209 25.9355 108.846 26.0879C108.494 26.2402 108.119 26.3164 107.721 26.3164C107.311 26.3164 106.93 26.2402 106.578 26.0879C106.227 25.9355 105.916 25.7305 105.646 25.4727C105.389 25.2031 105.184 24.8926 105.031 24.541C104.879 24.1895 104.803 23.8145 104.803 23.416C104.803 23.0059 104.879 22.625 105.031 22.2734C105.184 21.9102 105.389 21.5938 105.646 21.3242C105.916 21.0547 106.227 20.8438 106.578 20.6914C106.93 20.5391 107.311 20.4629 107.721 20.4629ZM131.908 26L131.838 23.627C130.877 24.5762 129.898 25.2617 128.902 25.6836C127.918 26.1055 126.881 26.3164 125.791 26.3164C124.783 26.3164 123.922 26.1875 123.207 25.9297C122.492 25.6719 121.9 25.3203 121.432 24.875C120.975 24.418 120.635 23.8848 120.412 23.2754C120.201 22.666 120.096 22.0039 120.096 21.2891C120.096 19.5195 120.752 18.1367 122.064 17.1406C123.389 16.1328 125.34 15.6289 127.918 15.6289H131.574V14.082C131.574 13.0391 131.24 12.207 130.572 11.5859C129.904 10.9531 128.885 10.6367 127.514 10.6367C126.518 10.6367 125.533 10.748 124.561 10.9707C123.6 11.1934 122.604 11.5098 121.572 11.9199V9.16016C121.959 9.01953 122.387 8.88477 122.855 8.75586C123.336 8.61523 123.84 8.49219 124.367 8.38672C124.895 8.28125 125.445 8.19922 126.02 8.14062C126.594 8.07031 127.174 8.03516 127.76 8.03516C128.826 8.03516 129.787 8.15234 130.643 8.38672C131.498 8.62109 132.219 8.97852 132.805 9.45898C133.402 9.93945 133.859 10.543 134.176 11.2695C134.492 11.9961 134.65 12.8516 134.65 13.8359V26H131.908ZM131.574 17.9668H127.689C126.928 17.9668 126.271 18.043 125.721 18.1953C125.17 18.3477 124.719 18.5645 124.367 18.8457C124.016 19.127 123.752 19.4668 123.576 19.8652C123.412 20.252 123.33 20.6914 123.33 21.1836C123.33 21.5234 123.383 21.8516 123.488 22.168C123.594 22.4727 123.764 22.748 123.998 22.9941C124.232 23.2285 124.537 23.416 124.912 23.5566C125.287 23.6973 125.744 23.7676 126.283 23.7676C126.986 23.7676 127.789 23.5566 128.691 23.1348C129.605 22.7012 130.566 22.0215 131.574 21.0957V17.9668ZM146.375 10.8828H141.154V8.35156H149.469V23.4512H154.725V26H140.574V23.4512H146.375V10.8828ZM147.447 0.951172C147.787 0.951172 148.104 1.01563 148.396 1.14453C148.689 1.26172 148.941 1.43164 149.152 1.6543C149.375 1.87695 149.545 2.13477 149.662 2.42773C149.791 2.70898 149.855 3.01953 149.855 3.35938C149.855 3.6875 149.791 3.99805 149.662 4.29102C149.545 4.58398 149.375 4.8418 149.152 5.06445C148.941 5.28711 148.689 5.46289 148.396 5.5918C148.104 5.70898 147.787 5.76758 147.447 5.76758C147.107 5.76758 146.791 5.70898 146.498 5.5918C146.205 5.46289 145.947 5.28711 145.725 5.06445C145.514 4.8418 145.344 4.58398 145.215 4.29102C145.098 3.99805 145.039 3.6875 145.039 3.35938C145.039 3.01953 145.098 2.70898 145.215 2.42773C145.344 2.13477 145.514 1.87695 145.725 1.6543C145.947 1.43164 146.205 1.26172 146.498 1.14453C146.791 1.01563 147.107 0.951172 147.447 0.951172Z" fill="#02193A"/>
</svg>
