<svg width="41" height="42" viewBox="0 0 41 42" fill="none" xmlns="http://www.w3.org/2000/svg">
<path fill-rule="evenodd" clip-rule="evenodd" d="M26.0927 1.53822C26.721 0.713004 27.9421 0.174782 29.2184 0.721727C37.9876 4.4823 42.8816 14.0107 40.321 23.3149C37.6293 33.0962 27.3093 38.8875 17.2816 36.2714C16.056 35.9513 14.8795 35.4725 13.7833 34.8478C14.1443 35.7201 14.5748 36.6143 15.0846 37.4744C15.3578 37.9344 15.4867 38.463 15.4554 38.9942C15.424 39.5254 15.2337 40.0359 14.9081 40.4621C14.278 41.2855 13.057 41.8255 11.7815 41.2786C3.0132 37.518 -1.88167 27.9896 0.67896 18.6854C3.3706 8.9041 13.6915 3.11276 23.7184 5.72885C24.975 6.05684 26.1471 6.54011 27.2166 7.15248C26.8556 6.28016 26.4251 5.38603 25.9153 4.52592C25.6423 4.06578 25.5135 3.5372 25.545 3.00597C25.5766 2.47474 25.767 1.96431 26.0927 1.53822ZM7.3225 19.4644C6.36647 22.914 6.83549 26.5933 8.62822 29.7072L8.64604 29.8206C8.81341 30.7964 9.03206 31.763 9.30113 32.7167C9.68071 34.0946 10.1599 35.4443 10.7352 36.7556C5.14156 33.1032 2.28414 26.2703 4.12195 19.5935C6.29843 11.6833 14.6568 6.9754 22.8003 9.0995C28.4171 10.565 31.7362 16.1784 30.2362 21.6278C29.0063 26.0976 24.2799 28.7634 19.6693 27.5604C19.4425 27.4995 19.2056 27.4831 18.9723 27.5122C18.739 27.5413 18.5139 27.6153 18.3099 27.7299C18.1059 27.8446 17.9272 27.9976 17.7839 28.1801C17.6406 28.3627 17.5357 28.5712 17.4751 28.7936C17.4146 29.0161 17.3996 29.248 17.431 29.4761C17.4625 29.7043 17.5397 29.9241 17.6584 30.1228C17.777 30.3216 17.9346 30.4954 18.1222 30.6343C18.3098 30.7732 18.5236 30.8743 18.7513 30.932C25.2451 32.6269 31.9332 28.8768 33.6783 22.535C34.6338 19.0856 34.1645 15.4067 32.3717 12.2931L32.3539 12.1797C32.3173 11.961 32.2775 11.7429 32.2345 11.5254C32.0843 10.772 31.9059 10.0242 31.6997 9.28356C31.3198 7.90568 30.8403 6.55599 30.2647 5.24471C35.8584 8.89712 38.7158 15.73 36.878 22.4068C34.7015 30.317 26.3431 35.024 18.1996 32.8999C12.5837 31.4344 9.26459 25.8219 10.7646 20.3734C11.9946 15.9027 16.721 13.2369 21.3315 14.4399C21.7884 14.559 22.275 14.4956 22.6842 14.2636C23.0934 14.0317 23.3916 13.6501 23.5134 13.2029C23.6351 12.7557 23.5703 12.2795 23.3333 11.879C23.0963 11.4785 22.7065 11.1866 22.2495 11.0675C15.7548 9.37341 9.06762 13.1235 7.32161 19.4653M20.5 26.2371C21.9182 26.2371 23.2784 25.6857 24.2813 24.7041C25.2842 23.7226 25.8476 22.3913 25.8476 21.0032C25.8476 19.6151 25.2842 18.2838 24.2813 17.3023C23.2784 16.3207 21.9182 15.7693 20.5 15.7693C19.0817 15.7693 17.7215 16.3207 16.7186 17.3023C15.7157 18.2838 15.1523 19.6151 15.1523 21.0032C15.1523 22.3913 15.7157 23.7226 16.7186 24.7041C17.7215 25.6857 19.0817 26.2371 20.5 26.2371Z" fill="#02193A"/>
</svg>
