<svg width="147" height="41" viewBox="0 0 147 41" fill="none" xmlns="http://www.w3.org/2000/svg">
<path d="M120.471 14.4134H117.403C117.135 14.4053 116.88 14.2931 116.694 14.1006C116.507 13.9081 116.403 13.6505 116.404 13.3828V11.362C116.404 11.226 116.431 11.0914 116.483 10.9657C116.536 10.8401 116.612 10.726 116.709 10.6299C116.805 10.5338 116.92 10.4577 117.046 10.4058C117.172 10.3539 117.307 10.3274 117.444 10.3276H120.471V1.01025C120.471 0.898254 120.493 0.787315 120.536 0.683841C120.579 0.580368 120.642 0.486411 120.721 0.407395C120.801 0.32838 120.896 0.265872 121 0.223481C121.104 0.181091 121.215 0.159658 121.327 0.16042H123.718C123.936 0.16042 124.146 0.246917 124.3 0.400883C124.455 0.554848 124.542 0.76367 124.542 0.981411V10.3276H127.549C127.832 10.3266 128.104 10.4366 128.306 10.6338C128.507 10.831 128.623 11.0996 128.628 11.3813V13.3732C128.628 13.6491 128.518 13.9136 128.322 14.1087C128.126 14.3038 127.861 14.4134 127.584 14.4134H124.536V22.5464C124.534 23.082 124.638 23.6127 124.842 24.1083C125.045 24.6038 125.345 25.0545 125.724 25.4345C126.103 25.8145 126.553 26.1163 127.049 26.3228C127.545 26.5293 128.077 26.6363 128.614 26.6379V30.6755C127.448 30.6925 126.292 30.457 125.226 29.9853C124.895 29.8372 122.396 28.6855 121.16 25.9188C120.687 24.8588 120.447 23.7101 120.457 22.5502C120.481 19.8738 120.454 17.084 120.471 14.4134Z" fill="#02193A"/>
<path d="M65.1348 18.4779C64.6653 16.1799 63.4132 14.1143 61.5905 12.631C59.7679 11.1478 57.4867 10.3381 55.1336 10.3391C54.4448 10.3388 53.7578 10.4077 53.0829 10.5448C51.1255 10.947 49.3293 11.912 47.9163 13.3205C46.5034 14.729 45.5355 16.5194 45.1325 18.4702C44.9951 19.148 44.9272 19.8379 44.9299 20.5294V40.1909C44.9299 40.3627 44.9984 40.5275 45.1203 40.649C45.2423 40.7706 45.4076 40.8388 45.5801 40.8388H48.3639C48.534 40.8383 48.6969 40.7706 48.817 40.6506C48.937 40.5306 49.0045 40.368 49.0045 40.1986V28.6624C50.2098 29.5686 51.6033 30.1947 53.0829 30.4947C53.5477 30.5923 54.019 30.6565 54.4931 30.687H55.7722C56.2396 30.6602 56.7045 30.5998 57.1632 30.5063C59.4727 30.0404 61.5493 28.7921 63.04 26.9734C64.5308 25.1547 65.3439 22.8778 65.3412 20.5294C65.3421 19.8404 65.2729 19.153 65.1348 18.4779ZM60.9175 22.5425C60.6126 23.4064 60.117 24.1911 59.4672 24.8387C58.8174 25.4862 58.03 25.9802 57.1632 26.284C56.669 26.4583 56.154 26.5669 55.6314 26.607C55.4655 26.6224 55.2995 26.6282 55.1336 26.6282C54.9677 26.6282 54.7999 26.6282 54.6359 26.607C53.3631 26.5023 52.1551 26.0034 51.181 25.1804C50.2069 24.3573 49.5155 23.2512 49.2036 22.017C48.8917 20.7828 48.9749 19.4823 49.4416 18.2976C49.9083 17.1129 50.7351 16.1033 51.8062 15.4102C52.8774 14.7171 54.1392 14.3753 55.4149 14.4325C56.6907 14.4897 57.9166 14.9432 58.9209 15.7293C59.9252 16.5155 60.6577 17.595 61.0157 18.8167C61.3737 20.0385 61.3394 21.3412 60.9175 22.5425Z" fill="#02193A"/>
<path d="M87.5852 18.4779C87.0788 16.0065 85.6692 13.8108 83.63 12.3168C81.5909 10.8228 79.0675 10.1371 76.5496 10.3927C74.0318 10.6483 71.699 11.827 70.0039 13.7001C68.3089 15.5732 67.3725 18.0071 67.3765 20.5294V40.1908C67.3765 40.3627 67.445 40.5275 67.5669 40.649C67.6888 40.7705 67.8542 40.8388 68.0266 40.8388H70.8124C70.8968 40.8388 70.9803 40.8222 71.0583 40.7901C71.1362 40.7579 71.2071 40.7107 71.2667 40.6513C71.3264 40.5918 71.3737 40.5212 71.406 40.4436C71.4383 40.3659 71.4549 40.2826 71.4549 40.1985V28.6624C72.6602 29.5686 74.0537 30.1946 75.5333 30.4947C75.9982 30.5922 76.4695 30.6565 76.9435 30.687H78.2226C78.69 30.6601 79.1549 30.5997 79.6136 30.5062C81.924 30.0423 84.0015 28.7945 85.4924 26.9754C86.9832 25.1562 87.795 22.8782 87.7897 20.5294C87.7902 19.8405 87.7217 19.1532 87.5852 18.4779ZM83.3679 22.5424C83.0626 23.4062 82.5669 24.1907 81.9172 24.8382C81.2674 25.4857 80.4803 25.9798 79.6136 26.284C79.1188 26.4584 78.6031 26.567 78.0799 26.607C77.9159 26.6224 77.75 26.6282 77.5821 26.6282C77.4143 26.6282 77.2503 26.6282 77.0844 26.607C75.8118 26.5019 74.604 26.0027 73.6302 25.1795C72.6564 24.3562 71.9653 23.25 71.6537 22.0158C71.3421 20.7816 71.4255 19.4812 71.8924 18.2967C72.3593 17.1121 73.1862 16.1027 74.2573 15.4099C75.3285 14.717 76.5902 14.3753 77.8659 14.4326C79.1416 14.49 80.3674 14.9435 81.3716 15.7297C82.3758 16.5159 83.1081 17.5953 83.4661 18.817C83.8241 20.0386 83.7897 21.3412 83.3679 22.5424Z" fill="#02193A"/>
<path d="M116.061 18.4721C115.906 17.7607 115.694 17.0878 115.405 16.4341C115.096 15.7034 114.691 15.0305 114.209 14.4152C114.209 14.4152 114.209 14.4152 114.189 14.396C113.611 13.6269 112.935 12.954 112.164 12.3772C112.144 12.3772 112.144 12.3579 112.125 12.3579C110.987 11.4735 109.598 10.839 108.093 10.5314C107.437 10.416 106.762 10.3391 106.067 10.3391C105.373 10.3391 104.678 10.416 104.022 10.5506C102.537 10.8582 101.148 11.4927 99.9709 12.3579C99.9516 12.3579 99.9516 12.3772 99.9323 12.3772C99.1606 12.954 98.4854 13.6269 97.9066 14.396C97.9066 14.396 97.9066 14.396 97.8873 14.4152C97.4243 15.0305 97.0192 15.7227 96.6912 16.4341C96.4404 17.0685 96.2089 17.7607 96.0738 18.4721C95.9388 19.1258 95.8616 19.7988 95.8616 20.5102V20.5294C95.8616 21.2216 95.9388 21.8945 96.0546 22.5482C96.1896 23.2596 96.4211 23.9326 96.6912 24.5863C96.9999 25.3169 97.405 25.9898 97.868 26.6051C97.868 26.6051 97.868 26.6051 97.868 26.6243C98.4468 27.3934 99.1413 28.0856 99.913 28.6624C101.09 29.5468 102.479 30.1813 103.984 30.489C104.447 30.5851 104.91 30.6428 105.392 30.6812H106.665C107.148 30.662 107.611 30.5851 108.054 30.5082C109.559 30.2005 110.968 29.5661 112.144 28.6816C112.916 28.1048 113.611 27.4126 114.189 26.6436C114.189 26.6436 114.189 26.6436 114.189 26.6243C114.459 26.259 114.73 25.8553 114.942 25.4515C115.154 25.067 114.865 24.6055 114.44 24.6055H111.122C110.832 24.6055 110.562 24.7209 110.35 24.9131C109.714 25.5284 108.942 26.0091 108.093 26.3167C107.611 26.4897 107.09 26.6051 106.569 26.6436C106.511 26.6436 106.453 26.6436 106.395 26.6628C106.279 26.6628 106.183 26.6628 106.067 26.6628C105.952 26.6628 105.855 26.6628 105.739 26.6628C105.681 26.6628 105.624 26.6628 105.566 26.6436C105.025 26.6051 104.505 26.4897 104.022 26.3167C103.038 25.9706 102.17 25.3746 101.495 24.6247C100.974 24.0287 100.55 23.3558 100.28 22.5867H115.077C115.675 22.5867 116.176 22.1252 116.234 21.5292C116.273 21.2023 116.273 20.8947 116.273 20.5678V20.5486C116.273 19.7988 116.196 19.1258 116.061 18.4721ZM100.299 18.4721C100.415 18.1645 100.569 17.7799 100.82 17.3762C100.955 17.1455 101.186 16.7994 101.534 16.4148C102.209 15.665 103.077 15.0882 104.042 14.7421C104.678 14.5114 105.373 14.396 106.087 14.396C106.8 14.396 107.476 14.5114 108.112 14.7421C109.096 15.0882 109.964 15.665 110.64 16.4148C111.064 16.8763 111.411 17.4146 111.681 17.9914C111.778 18.2029 111.623 18.4529 111.392 18.4529C107.669 18.4721 103.984 18.4721 100.299 18.4721Z" fill="#02193A"/>
<path d="M16.3368 0.823974V12.3851C15.1127 11.4697 13.6979 10.8403 12.1968 10.5434C10.6958 10.2466 9.14696 10.2899 7.66497 10.6701C6.18297 11.0504 4.80573 11.7579 3.63514 12.7402C2.46456 13.7226 1.53058 14.9547 0.902313 16.3454C0.274046 17.7361 -0.0324323 19.2497 0.0055569 20.7744C0.0435461 22.2991 0.425026 23.7957 1.12178 25.1536C1.81853 26.5115 2.81272 27.6959 4.03079 28.6191C5.24886 29.5423 6.65963 30.1808 8.15874 30.4873C8.61877 30.5828 9.08479 30.6471 9.55357 30.6796H10.8635C12.8467 30.5555 14.7497 29.8542 16.3368 28.6627V30.0893C16.3373 30.246 16.4001 30.3962 16.5115 30.5068C16.6229 30.6175 16.7737 30.6796 16.931 30.6796H19.7592C19.9334 30.6796 20.1004 30.6108 20.2237 30.4882C20.347 30.3657 20.4166 30.1994 20.4171 30.0259V0.870119C20.4171 0.776949 20.3987 0.684692 20.3629 0.598615C20.3271 0.512537 20.2747 0.434326 20.2086 0.368445C20.1425 0.302564 20.064 0.250304 19.9776 0.21465C19.8913 0.178996 19.7987 0.160645 19.7052 0.160645H17.0043C16.8276 0.160644 16.6581 0.230469 16.5329 0.354812C16.4078 0.479156 16.3373 0.647872 16.3368 0.823974ZM15.9934 22.5504C15.6885 23.4144 15.1928 24.1991 14.5431 24.8466C13.8933 25.4942 13.1059 25.9881 12.2391 26.292C11.7449 26.4662 11.2299 26.5749 10.7073 26.615C10.5413 26.6304 10.3754 26.6362 10.2095 26.6362C10.0436 26.6362 9.87576 26.6362 9.71177 26.615C8.43909 26.5112 7.23084 26.0133 6.25619 25.1911C5.28153 24.3689 4.58927 23.2636 4.27632 22.0298C3.96337 20.796 4.04541 19.4955 4.51093 18.3105C4.97646 17.1255 5.80218 16.1152 6.87248 15.4211C7.94278 14.7271 9.20407 14.3839 10.4798 14.4398C11.7555 14.4956 12.9817 14.9477 13.9868 15.7326C14.9919 16.5176 15.7256 17.5961 16.085 18.8173C16.4445 20.0384 16.4117 21.341 15.9914 22.5427L15.9934 22.5504Z" fill="#02193A"/>
<path d="M93.1801 0.1604H90.5679C90.163 0.1604 89.8348 0.487512 89.8348 0.891024V29.941C89.8348 30.3445 90.163 30.6716 90.5679 30.6716H93.1801C93.585 30.6716 93.9132 30.3445 93.9132 29.941V0.891024C93.9132 0.487512 93.585 0.1604 93.1801 0.1604Z" fill="#02193A"/>
<path d="M42.6765 18.478C42.3699 16.9841 41.7304 15.5781 40.8051 14.3637C39.8799 13.1493 38.6926 12.1578 37.3311 11.4622C35.9696 10.7667 34.4686 10.3851 32.9392 10.3455C31.4098 10.3059 29.8909 10.6094 28.495 11.2335C27.0991 11.8577 25.8618 12.7865 24.8746 13.9513C23.8873 15.1162 23.1754 16.4873 22.7914 17.9633C22.4074 19.4392 22.3612 20.9823 22.6562 22.4785C22.9511 23.9747 23.5797 25.3857 24.4954 26.6071C25.0786 27.3828 25.769 28.0722 26.5462 28.6548C27.7523 29.561 29.1464 30.1871 30.6265 30.4871C31.0914 30.5847 31.5627 30.6489 32.0368 30.6794H33.314C33.7808 30.6527 34.245 30.5923 34.703 30.4987C36.1904 30.2006 37.5915 29.5731 38.8026 28.6625V29.9411C38.8026 30.0382 38.8219 30.1344 38.8592 30.2241C38.8966 30.3138 38.9513 30.3952 39.0203 30.4638C39.0893 30.5324 39.1712 30.5868 39.2613 30.6237C39.3514 30.6607 39.4479 30.6796 39.5454 30.6794H42.1672C42.357 30.6794 42.5391 30.6042 42.6733 30.4705C42.8076 30.3367 42.883 30.1553 42.883 29.9661V20.5295C42.8838 19.8405 42.8147 19.1531 42.6765 18.478ZM38.4592 22.5426C38.1539 23.4064 37.6581 24.1911 37.0084 24.8389C36.3587 25.4868 35.5716 25.9813 34.7049 26.286C34.2112 26.4591 33.6969 26.5671 33.1751 26.6071C33.0092 26.6225 32.8432 26.6283 32.6773 26.6283C32.5114 26.6283 32.3436 26.6283 32.1796 26.6071C31.653 26.565 31.1341 26.4544 30.6362 26.2783C29.2744 25.7966 28.1271 24.8508 27.397 23.608C26.6669 22.3651 26.4009 20.9051 26.646 19.4858C26.8911 18.0665 27.6315 16.7791 28.7365 15.851C29.8415 14.9229 31.24 14.4137 32.685 14.4134C33.6642 14.4137 34.6291 14.6476 35.4989 15.0956C36.3688 15.5437 37.1184 16.1927 37.685 16.9886C38.2517 17.7845 38.6189 18.704 38.7559 19.6702C38.8929 20.6365 38.7958 21.6214 38.4727 22.5426H38.4592Z" fill="#02193A"/>
<path d="M130.667 24.717C130.666 24.6743 130.678 24.6323 130.704 24.5978C130.718 24.5818 130.735 24.5691 130.755 24.5605C130.775 24.5519 130.796 24.5475 130.817 24.5478H134.483C134.538 24.5482 134.591 24.5676 134.632 24.6027C134.674 24.6378 134.703 24.6864 134.713 24.74C135.098 26.5512 136.449 27.6145 138.957 27.6145C141.407 27.6145 142.875 26.607 142.875 25.0207V25.0015C142.875 23.7325 142.159 23.0058 140.031 22.502L136.792 21.7752C133.024 20.9158 131.159 19.1258 131.159 16.2686V16.2513C131.159 12.7424 134.246 10.3352 138.806 10.3352C143.496 10.3352 146.33 12.9289 146.523 16.2686C146.526 16.2971 146.523 16.3257 146.514 16.3528C146.505 16.3799 146.49 16.4048 146.471 16.426C146.452 16.4472 146.428 16.4641 146.402 16.4757C146.376 16.4874 146.347 16.4935 146.319 16.4936H142.958C142.894 16.4938 142.832 16.4716 142.783 16.4308C142.733 16.3901 142.7 16.3334 142.688 16.2706C142.6 15.7219 142.378 15.2033 142.04 14.7612C140.929 13.3231 139.038 13.4365 138.803 13.4365C136.619 13.4365 135.243 14.4632 135.243 16.0302V16.0495C135.243 17.2627 136.053 18.0837 138.181 18.5874L141.403 19.3142C141.727 19.3334 144.937 19.5738 146.363 22.079C146.814 22.8597 147.033 23.7517 146.996 24.6516C146.913 26.3455 145.576 27.8144 145.31 28.099C143.122 30.4331 139.966 30.66 138.791 30.6639C136.991 30.6615 135.225 30.1767 133.678 29.2603C132.656 28.6751 131.816 27.8202 131.25 26.7896C130.89 26.156 130.69 25.4447 130.667 24.717Z" fill="#02193A"/>
</svg>
