<svg width="22" height="22" viewBox="0 0 22 22" fill="none" xmlns="http://www.w3.org/2000/svg">
<path fill-rule="evenodd" clip-rule="evenodd" d="M11 22C17.0751 22 22 17.0751 22 11C22 4.92487 17.0751 0 11 0C4.92487 0 0 4.92487 0 11C0 17.0751 4.92487 22 11 22ZM7.64721 15.3988C10.0848 15.3988 12.0599 13.4285 12.0599 10.9988C12.0591 10.4201 11.9444 9.84724 11.7222 9.31293C11.5 8.77862 11.1747 8.29331 10.765 7.88472C10.3552 7.47613 9.86896 7.15226 9.33401 6.93162C8.79906 6.71097 8.22588 6.59787 7.64721 6.59877C5.2106 6.59877 3.23549 8.56801 3.23549 10.9988C3.23626 11.5773 3.35098 12.1501 3.57311 12.6844C3.79523 13.2186 4.12041 13.7039 4.53008 14.1125C4.93975 14.521 5.42588 14.8449 5.96072 15.0656C6.49556 15.2863 7.06863 15.3995 7.64721 15.3988ZM14.694 15.1406C15.9124 15.1406 16.8999 13.2868 16.8999 10.9988C16.8999 8.71174 15.9124 6.8569 14.694 6.8569C13.4757 6.8569 12.4882 8.71076 12.4882 10.9988C12.4882 13.2858 13.4757 15.1406 14.694 15.1406ZM18.1036 14.7094C18.5328 14.7094 18.8799 13.0482 18.8799 10.9988C18.8799 8.94934 18.5328 7.2881 18.1045 7.2881C17.6753 7.2881 17.3282 8.94934 17.3282 10.9988C17.3282 13.0472 17.6753 14.7094 18.1036 14.7094Z" fill="#02193A"/>
</svg>
