<svg width="169" height="41" viewBox="0 0 169 41" fill="none" xmlns="http://www.w3.org/2000/svg">
<path d="M55.0913 26.8444V28.2823H47.8449V32.8549H54.3313V34.2928H47.8449V40.2011H46.1584V26.8444H55.0913ZM63.1903 26.5849C67.1469 26.5849 69.8437 29.0891 69.8437 33.5227C69.8437 37.9562 67.1469 40.4605 63.1903 40.4605C59.2337 40.4605 56.5369 37.9562 56.5369 33.5227C56.5369 29.0891 59.2337 26.5849 63.1903 26.5849ZM63.1903 38.9951C66.165 38.9951 68.1106 37.0103 68.1106 33.5227C68.1106 30.0351 66.1644 28.0503 63.1903 28.0503C60.216 28.0503 58.2698 30.0351 58.2698 33.5227C58.2698 37.0103 60.216 38.9951 63.1903 38.9951ZM74.0232 26.8444V35.2388C74.0232 37.632 75.2742 38.9303 77.7113 38.9303C80.1483 38.9303 81.3992 37.632 81.3992 35.2388V26.8444H83.1043V35.2756C83.1043 38.4015 81.3344 40.4232 77.7113 40.4232C74.088 40.4232 72.3274 38.401 72.3274 35.2756V26.8444H74.0232ZM88.3031 26.8444L95.1329 37.7243H95.2811V26.8444H96.9214V40.2011H94.8737L88.0533 29.3211H87.905V40.2011H86.2648V26.8444H88.3031ZM111.6 33.5227C111.6 37.6782 108.986 40.2011 105.058 40.2011H100.165V26.8444H105.058C108.987 26.8444 111.6 29.3673 111.6 33.5227ZM105.011 38.7357C107.921 38.7357 109.876 36.8899 109.876 33.5227C109.876 30.1555 107.92 28.3098 105.011 28.3098H101.86V38.7352H105.011V38.7357ZM119.662 26.8444L124.536 39.9224V40.2005H122.841L121.432 36.3606H115.659L114.26 40.2005H112.61V39.9224L117.475 26.8444H119.662ZM120.941 34.8952L118.624 28.5511H118.476L116.15 34.8952H120.941ZM135.703 26.8444V28.3191H130.884V40.2011H129.179V28.3191H124.36V26.8444H135.703ZM139.632 26.8444V40.2011H137.927V26.8444H139.632ZM148.834 26.5849C152.791 26.5849 155.488 29.0891 155.488 33.5227C155.488 37.9562 152.791 40.4605 148.834 40.4605C144.877 40.4605 142.18 37.9562 142.18 33.5227C142.18 29.0891 144.877 26.5849 148.834 26.5849ZM148.834 38.9951C151.809 38.9951 153.754 37.0103 153.754 33.5227C153.754 30.0351 151.808 28.0503 148.834 28.0503C145.86 28.0503 143.914 30.0351 143.914 33.5227C143.914 37.0103 145.86 38.9951 148.834 38.9951ZM160.084 26.8444L166.913 37.7243H167.061V26.8444H168.702V40.2011H166.654L159.833 29.3211H159.686V40.2011H158.045V26.8444H160.084Z" fill="#FEFEFE"/>
<path d="M32.4006 2.68846C33.1766 1.42588 34.5519 0.657852 36.0333 0.657852H36.0344C38.3874 0.657852 40.2949 2.56539 40.2949 4.91847V36.3963C40.2927 38.7494 38.384 40.6558 36.031 40.6547H35.1616C33.9093 40.6535 32.7197 40.102 31.9095 39.146L7.03695 9.36257C6.97428 9.28621 6.87974 9.24294 6.78173 9.24294C6.59714 9.24294 6.44785 9.39106 6.44785 9.57566V31.9294C6.44672 32.0126 6.47635 32.0935 6.53217 32.1562C6.65526 32.2929 6.86605 32.3055 7.00278 32.1824L15.2321 25.0445C15.5341 24.7847 15.9728 24.7574 16.3043 24.9784C16.7134 25.2508 16.8239 25.8023 16.5516 26.2114L8.19126 38.6241C7.41527 39.8866 6.03991 40.6547 4.55861 40.6547C2.20558 40.6547 0.298096 38.7471 0.298096 36.394V4.91847C0.298096 2.56539 2.20558 0.657852 4.55861 0.657852H5.42802C6.68034 0.658992 7.86994 1.21052 8.6801 2.16656L33.5561 31.9442C33.6187 32.0206 33.7122 32.0639 33.8113 32.0639C33.9959 32.0639 34.1452 31.9158 34.1452 31.7312V9.38309C34.1452 9.29989 34.1155 9.21899 34.0597 9.15632C33.9366 9.01958 33.7258 9.00706 33.5891 9.13011L25.3598 16.268C25.0578 16.5278 24.6191 16.5552 24.2875 16.3341C23.8785 16.0618 23.768 15.5102 24.0403 15.1012L32.4006 2.68846Z" fill="#FEFEFE"/>
<path d="M53.1511 2.72682C54.7128 1.34874 56.5511 0.751384 59.0794 0.751384H59.0784C64.501 0.751384 67.8564 3.96716 67.8564 9.11282V23.4471C67.8564 23.8603 67.5342 24.1822 67.1211 24.1822H63.4446C63.0311 24.1822 62.7093 23.8603 62.7093 23.4471V9.5725C62.7093 7.55146 61.3764 4.88651 57.6542 4.88651C55.9082 4.88651 51.2665 5.75933 51.2665 11.3181V23.4471C51.2665 23.8603 50.9443 24.1822 50.5312 24.1822H46.8546C46.4412 24.1822 46.1194 23.8603 46.1194 23.4471V1.94519C46.1194 1.53205 46.4412 1.21009 46.8546 1.21009H50.3933C50.8074 1.21009 50.991 1.62323 50.7611 1.94519L49.2903 4.15047C49.0147 4.51802 49.0604 4.88557 49.3825 5.161C49.7037 5.43737 50.1634 5.29965 50.3933 5.11541L53.1511 2.72682Z" fill="#FEFEFE"/>
<path d="M71.1642 10.9501C71.1642 5.02379 75.7139 0.658825 82.8369 0.658825L82.8359 0.659764C89.637 0.659764 94.371 5.02476 94.371 10.4914V13.3853C94.371 13.7908 94.0425 14.1203 93.6358 14.1203H78.8375C78.2398 14.1203 77.8267 13.7528 77.8267 13.3397V13.2941C77.8267 12.8353 78.1486 12.4678 78.562 12.3757L88.8659 10.3765C89.2011 10.3119 89.4347 10.0052 89.4082 9.66516C89.087 6.72477 86.0081 4.93261 82.8369 4.93261C79.3449 4.93261 76.127 7.04579 76.0814 10.1239L76.0351 14.2125C75.9894 17.8879 79.2982 20.4608 82.8369 20.4608C86.3759 20.4608 88.535 18.2555 88.9951 16.7853C89.087 16.4643 89.3625 16.2801 89.6847 16.2801H93.269C93.7287 16.2801 94.0509 16.601 94.0042 17.0607C93.5445 21.4713 89.1327 24.7336 82.8369 24.7336C75.7139 24.7336 71.1642 20.4608 71.1642 14.2125V10.9501Z" fill="#FEFEFE"/>
<path d="M97.7721 8.42287C97.7721 4.01228 102.735 0.658792 108.48 0.658792L108.478 0.657852C114.912 0.657852 118.727 4.19559 118.727 9.52456V23.4457C118.727 23.8589 118.404 24.1808 117.991 24.1808H114.682C114.268 24.1808 114.084 23.7677 114.315 23.4457L115.693 21.286C115.923 20.965 116.015 20.5509 115.74 20.2755C115.418 19.9536 115.051 19.9536 114.683 20.2755L112.431 22.2054C110.914 23.4913 108.479 24.594 105.63 24.594C101.172 24.594 97.2657 22.4352 97.2657 18.3001V17.6571C97.2657 13.6141 101.632 10.858 105.952 10.858H111.052C111.421 10.858 111.834 11.0422 111.88 11.4098C111.972 11.8685 111.787 12.2826 111.282 12.4203L106.365 13.7528C102.965 14.5334 102.137 15.8659 102.137 17.4282C102.137 19.2204 103.838 20.323 106.779 20.323C110.548 20.323 113.581 18.2555 113.581 14.1669V10.1694C113.581 6.86152 111.466 4.93163 108.342 4.93163C105.723 4.93163 103.287 6.40184 102.919 8.42287C102.873 8.79039 102.597 9.06582 102.23 9.06582H98.5073C98.0942 9.06582 97.7721 8.79039 97.7721 8.42287Z" fill="#FEFEFE"/>
<path d="M133.433 1.21103H138.58H138.581C138.994 1.21103 139.316 1.53299 139.316 1.94613V4.84089C139.316 5.25403 138.994 5.57599 138.581 5.57599H133.801C129.619 5.57599 127.689 7.68915 127.689 12.4217V23.4481C127.689 23.8612 127.367 24.1832 126.954 24.1832H123.185C122.772 24.1832 122.449 23.8612 122.449 23.4481V1.94613C122.449 1.53299 122.772 1.21103 123.185 1.21103H126.631C127.046 1.21103 127.229 1.62417 126.999 1.94613L125.528 4.15141C125.252 4.51896 125.39 4.9786 125.712 5.20844C125.987 5.43827 126.402 5.30056 126.631 5.11631L128.653 3.37071C129.894 2.31365 131.641 1.21103 133.433 1.21103Z" fill="#FEFEFE"/>
</svg>
