<svg width="157" height="40" viewBox="0 0 157 40" fill="none" xmlns="http://www.w3.org/2000/svg">
<g clip-path="url(#clip0_12_665)">
<path d="M1.03394 5.05149C1.03394 2.32565 2.47693 0.768646 5.11983 0.768646C7.76273 0.768646 9.20572 2.32565 9.20572 5.05149V13.9098C9.20572 16.6356 7.76273 18.1927 5.11983 18.1927C2.47693 18.1927 1.03394 16.6372 1.03394 13.9114V5.05149ZM3.72484 14.0807C3.72484 15.2974 4.26363 15.7594 5.11983 15.7594C5.97603 15.7594 6.51484 15.2974 6.51484 14.0807V4.88211C6.51484 3.66546 5.97603 3.20345 5.11983 3.20345C4.26363 3.20345 3.72484 3.66546 3.72484 4.88211V14.0823V14.0807Z" fill="white"/>
<path d="M12.9358 5.72299V17.8585H10.553V1.10443H13.874L16.5928 11.1332V1.10443H18.9508V17.86H16.232L12.9358 5.72453V5.72299Z" fill="white"/>
<path d="M22.9463 8.1655H26.5801V10.5587H22.9463V15.4652H27.5185V17.8585H20.2988V1.10443H27.5185V3.49765H22.9463V8.1655Z" fill="white"/>
<path d="M33.5786 1.10443H41.7613V3.49765H38.9944V17.86H36.347V3.49765H33.5801V1.10443H33.5786Z" fill="white"/>
<path d="M48.6434 17.86C48.4993 17.4288 48.4034 17.1655 48.4034 15.801V13.1675C48.4034 11.6121 47.8736 11.0376 46.6708 11.0376H45.7556V17.86H43.1082V1.10443H47.1028C49.8462 1.10443 51.0259 2.37339 51.0259 4.9576V6.27434C51.0259 7.99762 50.4716 9.12341 49.2937 9.67323C50.6173 10.223 51.0508 11.492 51.0508 13.2399V15.8256C51.0508 16.6388 51.0739 17.2378 51.3402 17.86H48.6447H48.6434ZM45.7556 3.49765V8.64446H46.7899C47.7762 8.64446 48.3785 8.21324 48.3785 6.87339V5.22247C48.3785 4.02585 47.9696 3.49919 47.0317 3.49919H45.7556V3.49765Z" fill="white"/>
<path d="M52.6863 1.10443H55.3338V17.86H52.6863V1.10443Z" fill="white"/>
<path d="M56.6816 1.10443H59.3294V15.4668H63.6845V17.86H56.6816V1.10443Z" fill="white"/>
<path d="M65.0322 1.10443H67.68V15.4668H72.0351V17.86H65.0322V1.10443Z" fill="white"/>
<path d="M73.3833 1.10443H76.031V17.86H73.3833V1.10443Z" fill="white"/>
<path d="M77.3782 5.05149C77.3782 2.32565 78.821 0.768646 81.4639 0.768646C84.1068 0.768646 85.55 2.32565 85.55 5.05149V13.9098C85.55 16.6356 84.1068 18.1927 81.4639 18.1927C78.821 18.1927 77.3782 16.6356 77.3782 13.9098V5.05149ZM80.069 14.0807C80.069 15.2974 80.6075 15.7594 81.4639 15.7594C82.3202 15.7594 82.859 15.2974 82.859 14.0807V4.88211C82.859 3.66546 82.3202 3.20345 81.4639 3.20345C80.6075 3.20345 80.069 3.66546 80.069 4.88211V14.0823V14.0807Z" fill="white"/>
<path d="M89.2798 5.72299V17.8585H86.8972V1.10443H90.2183L92.937 11.1332V1.10443H95.2945V17.86H92.5758L89.2798 5.72453V5.72299Z" fill="white"/>
<path d="M110.62 17.86H107.95L107.493 14.82H104.245L103.788 17.86H101.357L104.052 1.10443H107.926L110.622 17.86H110.62ZM104.58 12.5454H107.131L105.855 4.07207L104.58 12.5454Z" fill="white"/>
<path d="M115.552 8.50738H119.32V13.9098C119.32 16.6356 117.95 18.1927 115.308 18.1927C112.665 18.1927 111.294 16.6356 111.294 13.9098V5.05149C111.294 2.32565 112.665 0.768646 115.308 0.768646C117.95 0.768646 119.32 2.32565 119.32 5.05149V6.70706H116.775V4.88211C116.775 3.66546 116.237 3.20345 115.38 3.20345C114.524 3.20345 113.985 3.66546 113.985 4.88211V14.0823C113.985 15.2989 114.524 15.7378 115.38 15.7378C116.237 15.7378 116.775 15.3004 116.775 14.0823V10.9421H115.552V8.50887V8.50738Z" fill="white"/>
<path d="M123.313 8.1655H126.947V10.5587H123.313V15.4652H127.885V17.8585H120.665V1.10443H127.885V3.49765H123.313V8.1655Z" fill="white"/>
<path d="M131.617 5.72299V17.8585H129.234V1.10443H132.555L135.274 11.1332V1.10443H137.631V17.86H134.913L131.617 5.72453V5.72299Z" fill="white"/>
<path d="M138.98 1.10443H147.163V3.49765H144.395V17.86H141.748V3.49765H138.981V1.10443H138.98Z" fill="white"/>
<path d="M151.873 0.768646C154.491 0.768646 155.837 2.32565 155.837 5.05149V5.58743H153.291V4.88211C153.291 3.66546 152.802 3.20345 151.946 3.20345C151.09 3.20345 150.6 3.66546 150.6 4.88211C150.6 8.38723 155.862 9.04334 155.862 13.9114C155.862 16.6372 154.491 18.1941 151.848 18.1941C149.205 18.1941 147.835 16.6372 147.835 13.9114V12.8641H150.381V14.0807C150.381 15.2974 150.92 15.7363 151.776 15.7363C152.632 15.7363 153.17 15.2989 153.17 14.0807C153.17 10.5756 147.91 9.91959 147.91 5.05149C147.91 2.32565 149.255 0.768646 151.873 0.768646Z" fill="white"/>
<path d="M15.4033 28.5235C15.6092 28.5291 15.8356 28.5896 15.998 28.7022C16.156 28.8118 16.2493 28.9659 16.2197 29.1758C16.1724 29.4753 15.9045 29.6492 15.6826 29.7296H15.6787L15.6621 29.7364C15.5667 29.7723 15.3343 29.8181 15.0264 29.8672C14.7232 29.9157 14.3575 29.9658 14.0039 30.0118C13.6503 30.0577 13.3097 30.0997 13.0547 30.1319C12.9276 30.148 12.8214 30.1613 12.7461 30.1719C12.7087 30.1772 12.6776 30.1817 12.6553 30.1856C12.6443 30.1875 12.6337 30.1904 12.625 30.1924C12.621 30.1934 12.6152 30.1943 12.6094 30.1964C12.6064 30.1974 12.6005 30.1993 12.5947 30.2022L12.5635 30.2256L12.5596 30.2315C12.54 30.2568 12.5244 30.2953 12.5117 30.3292C12.4972 30.368 12.4805 30.4184 12.4629 30.4766C12.4276 30.5934 12.3856 30.7496 12.3389 30.9317C12.2453 31.2965 12.132 31.7701 12.0205 32.253L11.5195 34.4737V34.4747C11.5022 34.5558 11.4875 34.6397 11.4727 34.7217C11.4578 34.8042 11.4428 34.8858 11.4258 34.9659C11.3917 35.1265 11.3495 35.2761 11.2832 35.4063C11.2176 35.5351 11.1284 35.6442 11 35.7256C10.9031 35.787 10.7797 35.8357 10.6211 35.8624L10.4502 35.8809C10.021 35.9083 9.67872 35.815 9.45996 35.6358C9.27266 35.4823 9.16554 35.2575 9.17578 34.963L9.1875 34.8321C9.24116 34.4442 9.42853 33.6963 9.64453 32.9092C9.85978 32.1249 10.1013 31.3089 10.2588 30.7872L10.3027 30.6397L10.1504 30.6583C9.81046 30.7004 9.41181 30.7538 9.08691 30.7872L8.79199 30.8135C8.49882 30.8324 8.07634 30.7577 7.74121 30.5977C7.39911 30.4343 7.19621 30.2082 7.23145 29.9424L7.23047 29.9415C7.25882 29.7762 7.38201 29.6399 7.55859 29.5381C7.69137 29.4617 7.84694 29.4097 7.99414 29.3839L8.1377 29.3663C8.21348 29.3618 8.29306 29.3606 8.37695 29.3585C8.46009 29.3564 8.54693 29.3532 8.63379 29.3467L8.63281 29.3458C8.67029 29.3441 8.71696 29.3393 8.7666 29.3233L8.76758 29.3243C9.57506 29.2093 11.0194 28.7977 13.2197 28.6163L13.6699 28.5831H13.6709C14.2047 28.5486 14.7818 28.5236 15.4033 28.5235Z" fill="white" stroke="black" stroke-width="0.2"/>
<path d="M20.1458 27.5137C20.2879 27.5043 20.4697 27.5078 20.6379 27.5479C20.7649 27.5782 20.8766 27.6278 20.9602 27.7003L21.0344 27.7803L21.0354 27.7813C21.1104 27.8841 21.1868 28.0448 21.262 28.2549C21.3365 28.4636 21.4071 28.7162 21.4739 28.9991C21.6075 29.565 21.7225 30.2483 21.8108 30.9405C21.8991 31.6325 21.961 32.3321 21.9895 32.9297C22.011 33.3796 22.0129 33.7677 21.9944 34.0508L21.969 34.2979V34.3008C21.9365 34.5526 21.8267 34.7525 21.6545 34.8956C21.4811 35.0396 21.2369 35.1313 20.928 35.1514L20.8918 35.1534C20.7047 35.1611 20.4869 35.1417 20.2932 35.0811C20.0864 35.0164 19.922 34.9113 19.8401 34.7647C19.8196 34.7244 19.7988 34.6388 19.7834 34.5128C19.7686 34.3913 19.7598 34.245 19.7542 34.0928C19.7485 33.9406 19.7469 33.7844 19.7463 33.6436V33.1544L19.6194 33.1905C18.3879 33.5343 16.8811 33.8176 16.2649 33.9239L16.2268 33.9307L16.2024 33.962C15.6093 34.7328 15.0987 35.541 14.554 36.3292C14.5534 36.3297 14.5528 36.3313 14.552 36.3321C14.5487 36.3353 14.544 36.3397 14.5383 36.3448C14.5265 36.3554 14.5102 36.3689 14.4905 36.3848C14.4508 36.4167 14.3978 36.4572 14.3352 36.503C14.2097 36.5948 14.0474 36.7078 13.8792 36.8174C13.7107 36.9272 13.5373 37.0331 13.3899 37.1124C13.3163 37.1519 13.2503 37.1836 13.1956 37.2061C13.1382 37.2297 13.1014 37.2391 13.0833 37.2403H12.9592C12.8388 37.2313 12.7313 37.1968 12.6555 37.1417C12.6063 37.1058 12.571 37.0619 12.552 37.0098C12.5378 36.9709 12.5313 36.9236 12.5374 36.8663L12.5471 36.8057L12.5481 36.8028C12.5824 36.6395 12.695 36.3809 12.8752 36.046C13.054 35.714 13.2949 35.3156 13.5774 34.8751C14.1425 33.9939 14.8738 32.9488 15.6116 31.9385C16.3492 30.9284 17.0925 29.9541 17.6819 29.2149C17.9767 28.8452 18.233 28.535 18.4299 28.3087C18.5284 28.1955 18.6115 28.1042 18.677 28.0372C18.7457 27.9669 18.7869 27.9319 18.804 27.9219L18.803 27.921C19.2095 27.7022 19.6327 27.5728 19.9944 27.5274L20.1458 27.5137ZM19.2708 29.5987C18.892 30.065 18.3004 30.8772 17.7024 31.7549L17.5354 31.9991L17.8167 31.9063C18.5599 31.6597 19.1395 31.5166 19.554 31.4376L19.6448 31.42L19.635 31.3282C19.5834 30.8414 19.5112 30.1112 19.4475 29.6475L19.4163 29.42L19.2708 29.5987Z" fill="white" stroke="black" stroke-width="0.2"/>
<path d="M28.8191 27.3021C29.0151 27.29 29.1822 27.331 29.2996 27.4135C29.3854 27.4738 29.4487 27.5591 29.4783 27.6722L29.4968 27.7943V27.7953C29.5104 28.0643 29.4538 28.64 29.3884 29.3383C29.3236 30.0305 29.2512 30.8337 29.2351 31.5433L29.2302 31.7611L29.3982 31.6224C29.8481 31.2522 30.3408 30.796 30.7625 30.3978C31.1868 29.9972 31.5355 29.6594 31.7058 29.5179L31.7048 29.517C31.9243 29.3418 32.2155 29.1656 32.5183 29.0277C32.823 28.8891 33.1339 28.7934 33.3923 28.7767L33.3914 28.7758C33.5275 28.7678 33.6731 28.7702 33.7976 28.8304L33.8494 28.8597L33.8533 28.8627C33.8884 28.8838 33.9339 28.9334 33.9841 29.0228C34.0331 29.11 34.0806 29.2248 34.1267 29.3607C34.2189 29.6323 34.2996 29.979 34.363 30.3412C34.4264 30.7028 34.4723 31.077 34.4958 31.4027C34.5136 31.6489 34.5185 31.8637 34.5095 32.0228L34.4958 32.1625V32.1674C34.49 32.2249 34.4791 32.2957 34.448 32.3656L34.4089 32.434L34.4021 32.4457C34.347 32.5541 34.2463 32.662 34.1121 32.764C33.9785 32.8655 33.817 32.9576 33.6501 33.0355C33.3138 33.1926 32.9684 33.2868 32.7947 33.2982C32.7546 33.3007 32.632 33.3048 32.5144 33.2679C32.4137 33.2363 32.3276 33.1792 32.2898 33.0707L32.2761 33.0209C32.2306 32.7836 32.2326 32.4615 32.241 32.1332C32.2471 31.8921 32.2567 31.6462 32.2507 31.4398L32.239 31.2484V31.2455L32.2048 30.9955L32.1814 30.8275L32.0457 30.9281C31.6414 31.2283 31.0201 31.7707 30.4373 32.2904L29.0623 33.5199H29.0613C28.8288 33.7208 28.5575 33.8208 28.3103 33.8666L28.073 33.8959C27.8832 33.9086 27.6768 33.8964 27.4919 33.849C27.3061 33.8013 27.1507 33.7205 27.0515 33.6029C27.0427 33.5915 27.0268 33.5548 27.0144 33.476C27.0026 33.4004 26.9962 33.3015 26.9949 33.1849C26.9922 32.9524 27.0091 32.6587 27.0339 32.3529C27.0588 32.0474 27.0906 31.7321 27.1189 31.4574C27.147 31.1843 27.1711 30.9478 27.1785 30.8041L27.1931 30.5287L27.0056 30.7318C25.9598 31.8619 24.7748 33.3282 24.2576 33.9154C24.1219 34.0612 23.9368 34.1573 23.7556 34.2181C23.6654 34.2484 23.578 34.2694 23.5007 34.2836L23.3074 34.308H23.1755C23.0423 34.3001 22.9064 34.2685 22.8015 34.2094C22.7326 34.1705 22.6811 34.1215 22.6492 34.0648C22.6188 34.0107 22.6025 33.943 22.614 33.8558C22.6259 33.8248 22.6424 33.7769 22.6531 33.7386C22.6811 33.6845 22.7631 33.5653 22.8943 33.389C23.0263 33.2116 23.2029 32.9838 23.4099 32.722C23.8239 32.1985 24.3595 31.5407 24.905 30.8822C25.4505 30.2239 26.0062 29.5648 26.4607 29.0385C26.8032 28.6418 27.0851 28.3236 27.2625 28.1371L27.4031 27.9965C27.7453 27.6896 28.2084 27.4107 28.6375 27.3256L28.8191 27.3021Z" fill="white" stroke="black" stroke-width="0.2"/>
<path d="M37.8552 28.304C37.9974 28.2948 38.2443 28.2986 38.4666 28.3635C38.6623 28.4208 38.819 28.519 38.8884 28.679L38.9128 28.7512L38.9138 28.7522C38.9483 28.8872 38.9282 29.0958 38.8992 29.2991L38.8875 29.3733C38.7922 29.9547 38.5005 30.9043 38.1716 31.7571C38.0004 32.2011 37.8208 32.6157 37.657 32.9348C37.575 33.0944 37.4977 33.2281 37.4285 33.3293C37.3926 33.3818 37.3612 33.423 37.3337 33.4534L37.2654 33.5139L37.2625 33.5168C37.1418 33.5961 36.9909 33.6535 36.8123 33.6653L36.7468 33.6643C36.5947 33.6485 36.4418 33.5462 36.3074 33.3967C36.1933 33.2699 36.1036 33.1206 36.0505 32.9954L36.0105 32.8801C35.9822 32.7578 35.9839 32.5654 36.0076 32.3655L36.0388 32.1643V32.1604C36.1103 31.6428 36.2883 30.8466 36.4861 30.136C36.5849 29.7811 36.6882 29.449 36.7849 29.1848C36.8333 29.0527 36.8798 28.9387 36.9226 28.8479C36.9444 28.8016 36.9649 28.763 36.9832 28.7317L37.032 28.6594L37.0349 28.6565C37.1221 28.5439 37.2629 28.4585 37.4197 28.3997C37.4973 28.3706 37.5765 28.3489 37.6511 28.3333L37.8552 28.304Z" fill="white" stroke="black" stroke-width="0.2"/>
<path d="M48.1904 25.5517C48.8482 25.5087 49.3237 26.0261 49.3223 26.5576L49.3154 26.664C49.3033 26.7653 49.2693 26.901 49.2227 27.0595L49.0527 27.5908C48.6145 28.9522 48.1068 30.3199 47.7627 31.6933L47.626 32.2822L47.625 32.2851C47.605 32.3918 47.5371 32.5 47.4277 32.6054C47.3188 32.7104 47.1747 32.8071 47.0166 32.8896C46.7778 33.0143 46.5162 33.1025 46.3125 33.1445L46.1309 33.1709C46.0077 33.1779 45.8508 33.1771 45.7129 33.1162L45.6553 33.0869L45.6543 33.0859L45.5293 32.998C45.4807 32.9593 45.4253 32.9112 45.3633 32.8545C45.2406 32.7421 45.097 32.6003 44.9404 32.4375C44.7838 32.2747 44.6153 32.0914 44.4404 31.8994L43.9062 31.3047H43.9053C43.7352 31.1165 43.5679 30.9281 43.4004 30.7392C43.233 30.5505 43.0655 30.3608 42.8945 30.1718L42.7686 30.0332L42.7236 30.2148C42.4384 31.3528 42.0603 32.8063 41.8545 33.4765L41.7773 33.7129V33.7138C41.6844 33.9802 41.4133 34.2482 41.0195 34.2734L40.8945 34.2724C40.6096 34.2513 40.3737 34.0943 40.2061 33.8847C40.0126 33.6429 39.9232 33.3478 39.9492 33.1474C39.9738 32.9872 40.0685 32.6294 40.2021 32.1611C40.335 31.6956 40.504 31.1277 40.6758 30.5527C40.9326 29.6932 41.1968 28.8125 41.3496 28.2353L41.4609 27.7715V27.7705C41.5029 27.5447 41.6865 27.3651 41.9258 27.2353C42.1634 27.1065 42.4356 27.0389 42.6123 27.0273L42.6113 27.0263C42.7518 27.0183 42.9595 27.0192 43.1221 27.1308C43.1521 27.1561 43.2239 27.228 43.332 27.3418C43.4417 27.4572 43.5845 27.6105 43.748 27.79C43.9116 27.9695 44.0957 28.1751 44.29 28.3935L44.8916 29.0761L44.8926 29.0771C45.2946 29.5273 45.7022 29.9978 46.0449 30.375L46.1719 30.5146L46.2158 30.331C46.3818 29.6417 46.6066 28.7405 46.8301 27.9228C47.0544 27.102 47.2758 26.3748 47.4355 26.0273L47.4346 26.0263C47.5662 25.7519 47.8374 25.6081 48.0859 25.5644L48.1904 25.5517Z" fill="white" stroke="black" stroke-width="0.2"/>
<path d="M56.2771 25.4653C56.5021 25.4505 56.896 25.5343 57.2244 25.6919C57.3876 25.7703 57.527 25.8636 57.6189 25.9643C57.6871 26.0392 57.7256 26.1133 57.7341 26.187L57.7322 26.2612V26.2622C57.71 26.4214 57.6061 26.5677 57.4343 26.6948C57.3056 26.79 57.1437 26.8712 56.9626 26.9341L56.7761 26.9907C55.3444 27.3596 53.5683 28.186 52.4343 29.1577L52.2156 29.354C51.9848 29.5744 51.7436 29.8158 51.5779 30.0639C51.4128 30.3112 51.3092 30.5849 51.3894 30.8618L51.3904 30.8608C51.4088 30.9299 51.4568 30.9829 51.5095 31.0219C51.5638 31.0621 51.6311 31.0951 51.7039 31.1196C51.8134 31.1565 51.9433 31.1787 52.075 31.1831L52.2058 31.1811H52.2068C53.0175 31.129 53.8649 30.9026 54.5535 30.6538C54.8983 30.5292 55.2054 30.398 55.449 30.2798C55.6901 30.1627 55.876 30.0548 55.9753 29.9751L56.239 29.7641L55.9021 29.7983L53.7478 30.0171H53.7468C53.6138 30.0321 53.3342 30.0365 53.1003 29.9839C52.9832 29.9574 52.8882 29.9193 52.8279 29.8696C52.7865 29.8354 52.7618 29.7964 52.7566 29.7475L52.7576 29.6958C52.7684 29.6477 52.8123 29.5838 52.8855 29.5112C52.9564 29.441 53.0397 29.3754 53.1062 29.3247L53.1072 29.3257C53.4895 29.0577 54.0347 28.8493 54.6335 28.6987C55.0813 28.5861 55.5548 28.5065 56.0056 28.4585L56.448 28.4204C56.5267 28.4153 56.6887 28.4375 56.8933 28.4917C57.0948 28.545 57.3274 28.6264 57.5437 28.7348C57.7609 28.8437 57.9559 28.9767 58.0886 29.1284C58.2199 29.2786 58.2858 29.4417 58.2615 29.6196C58.2378 29.7777 58.1402 29.9371 57.9812 30.0688L57.9382 30.103C55.7398 31.8627 53.4215 32.4013 52.3777 32.5102L52.1853 32.5268C51.5469 32.5675 51.0356 32.4288 50.6394 32.1772C50.244 31.9261 49.9573 31.5583 49.7732 31.1294C49.7381 31.036 49.7223 30.9269 49.7283 30.8169L49.741 30.7075L49.7419 30.7036C49.8122 30.2277 50.1304 29.6678 50.614 29.0883C51.0955 28.5115 51.7323 27.9256 52.4197 27.3969C53.1068 26.8685 53.8427 26.3993 54.5232 26.0551C55.121 25.7528 55.6685 25.5502 56.0994 25.4848L56.2771 25.4653Z" fill="white" stroke="black" stroke-width="0.2"/>
<path d="M70.7056 22.7915C70.9069 22.7787 71.1334 22.8292 71.2954 22.939C71.4325 23.032 71.5226 23.1658 71.519 23.3482L71.5112 23.4302V23.4322C71.4773 23.6822 71.2974 23.8626 71.0981 23.9722L71.0112 24.0152H71.0103C70.7546 24.1332 70.2785 24.2535 69.7808 24.3609C69.5339 24.4141 69.2845 24.4636 69.0591 24.5083L68.48 24.6255L68.4751 24.6265C68.4302 24.6388 68.391 24.6378 68.354 24.6343C68.3387 24.6328 68.3126 24.6294 68.2925 24.6294C68.2747 24.6294 68.2268 24.6308 68.1899 24.6695L68.2603 24.7359L68.189 24.6695L68.1841 24.6753C68.1703 24.6924 68.1589 24.7151 68.1499 24.7339C68.1397 24.7553 68.1282 24.7823 68.1157 24.813C68.0908 24.8746 68.0603 24.9573 68.0249 25.0572C67.9539 25.2574 67.8616 25.531 67.7563 25.855C67.5457 26.5035 67.2796 27.3558 67.0103 28.2271L65.7837 32.2173V32.2202C65.5499 33.0155 65.3342 33.6699 65.2749 33.8081C65.2128 33.9277 65.0997 34.0293 64.9546 34.104C64.809 34.179 64.6379 34.2235 64.4741 34.2339L64.481 34.3345L64.4741 34.2349C64.1673 34.2546 63.8745 34.1787 63.6733 34.0249C63.5014 33.8935 63.3916 33.702 63.397 33.4468L63.4067 33.3335C63.4422 33.0814 63.6308 32.4055 63.896 31.5337C64.0279 31.1002 64.1775 30.6205 64.3354 30.1245L64.8237 28.6167V28.6158C65.2224 27.3539 65.623 26.1308 65.8774 25.3833L65.939 25.2027L65.7563 25.2544C65.3772 25.3611 64.9986 25.4649 64.6245 25.4986L64.4644 25.5093H64.4614C64.2289 25.524 63.8794 25.4471 63.5991 25.2915C63.316 25.1344 63.1427 24.9212 63.1724 24.6763C63.197 24.5152 63.2663 24.4009 63.3638 24.3159C63.4636 24.229 63.5973 24.1685 63.7515 24.1245C63.9051 24.0808 64.0732 24.0558 64.2397 24.0337C64.3216 24.0229 64.4046 24.0125 64.4839 24.0015L64.7075 23.9634H64.7085C64.9637 23.9064 65.2488 23.8205 65.5806 23.7212C65.747 23.6714 65.926 23.6176 66.1206 23.562L66.7534 23.3911H66.7544C67.694 23.1454 68.9466 22.9058 70.7056 22.7915Z" fill="white" stroke="black" stroke-width="0.2"/>
<path d="M76.6953 24.3491C76.944 24.333 77.2374 24.4274 77.458 24.5952C77.6507 24.7419 77.775 24.9339 77.7803 25.145L77.7754 25.2358C77.7539 25.3944 77.6624 25.7351 77.5283 26.1918C77.3968 26.6397 77.2256 27.1903 77.0469 27.7729L77.0459 27.7748L77.0391 27.7993C76.9543 28.0945 76.7027 29.0314 76.4268 29.9477C76.2888 30.4058 76.1451 30.857 76.0146 31.2172C75.9495 31.3971 75.8876 31.5529 75.832 31.6752C75.8034 31.7382 75.7778 31.7901 75.7549 31.8305L75.6963 31.9184L75.6953 31.9194C75.5221 32.119 75.272 32.196 75.0938 32.2065C74.8891 32.2198 74.5892 32.1277 74.3428 31.9702C74.2211 31.8923 74.1185 31.8016 74.0488 31.7075C73.9967 31.6369 73.9647 31.5679 73.9551 31.5014L73.9531 31.436C73.9752 31.2951 74.0373 31.1165 74.1104 30.9282L74.3193 30.3862L74.3203 30.3832L74.4434 29.976L74.4912 29.8207L74.3311 29.8481L70.8711 30.4438L70.8086 30.4545L70.792 30.5151C70.7553 30.6464 70.7221 30.8221 70.6826 30.9955C70.6421 31.1735 70.5929 31.3591 70.5215 31.5287C70.3791 31.8669 70.1567 32.1266 69.751 32.1528C69.5771 32.1641 69.371 32.1282 69.1895 32.0434C69.0098 31.9593 68.8618 31.8307 68.7871 31.6616C68.7588 31.5835 68.7441 31.4282 68.75 31.2104C68.7529 31.1038 68.7604 30.9854 68.7725 30.8588L68.8213 30.4584V30.4575C68.9117 29.8115 69.1038 28.8714 69.335 28.0268C69.4505 27.6047 69.5758 27.2084 69.7021 26.8852C69.8294 26.5597 69.9533 26.3213 70.0635 26.2016C70.2057 26.0583 70.3744 25.9862 70.5205 25.9545L70.6572 25.935C70.8863 25.9207 71.1845 26.0055 71.4141 26.1645C71.6431 26.3233 71.7817 26.5388 71.748 26.7817C71.7305 26.9016 71.6483 27.2266 71.543 27.6205C71.4385 28.0112 71.3135 28.4611 71.2139 28.8266L71.1699 28.9877L71.334 28.9496C72.3518 28.7109 74.0363 28.3506 74.9023 28.2289L74.9785 28.2182L74.9883 28.143C75.0136 27.9493 75.1031 27.5875 75.2012 27.2241C75.2985 26.8634 75.4016 26.509 75.4521 26.3325C75.5477 26.0076 75.6488 25.6739 75.751 25.3823C75.8282 25.1618 75.9053 24.9695 75.9785 24.8246L76.0508 24.6957C76.1868 24.5041 76.3868 24.4115 76.5488 24.3725L76.6953 24.3491Z" fill="white" stroke="black" stroke-width="0.2"/>
<path d="M84.2002 22.6251C84.4379 22.6099 84.8769 22.7099 85.2441 22.8829C85.4266 22.9688 85.5825 23.0693 85.6846 23.1739C85.7615 23.2528 85.8001 23.3256 85.8066 23.3926L85.8027 23.4571V23.459C85.8027 23.459 85.8024 23.4603 85.8018 23.462C85.8009 23.4641 85.799 23.4678 85.7969 23.4717C85.7925 23.4796 85.7856 23.4897 85.7754 23.502C85.7545 23.5273 85.7232 23.5583 85.6807 23.5928C85.5958 23.6617 85.4737 23.74 85.3223 23.8214C85.0197 23.9839 84.6076 24.1516 84.1562 24.2657L84.1152 24.2755L84.1133 24.2774C83.3429 24.4679 82.545 24.614 81.7822 24.834L81.7363 24.8477L81.7178 24.8907C81.4153 25.592 80.8536 27.1342 80.502 28.086L80.4287 28.2833L80.6279 28.2159C81.0519 28.0721 81.4566 27.9427 81.8721 27.8917L82.0508 27.8751H82.0527C82.4983 27.8397 82.9999 27.853 83.375 27.9366C83.5636 27.9786 83.7104 28.0367 83.8027 28.1065C83.8876 28.1707 83.9177 28.2375 83.9072 28.3155C83.8314 28.5417 83.5994 28.754 83.3125 28.9161C83.0976 29.0375 82.8669 29.1226 82.6807 29.1631L82.5107 29.1885H82.5098L82.3711 29.1964H82.3691C82.1093 29.2136 81.6844 29.3237 81.2646 29.4483C80.8415 29.574 80.4111 29.7191 80.1348 29.8106L80.083 29.8272L80.0693 29.8799C80.0624 29.9065 80.059 29.9284 80.0566 29.9454C80.0543 29.9623 80.0532 29.9739 80.0498 29.9874L80.1465 30.0128L80.0488 29.9874L80.0469 29.9991C80.0347 30.0911 79.9877 30.27 79.9355 30.4571C79.8851 30.6382 79.8305 30.8256 79.8086 30.9229L79.7715 31.087L79.9336 31.0411C80.4168 30.9037 80.9192 30.729 81.3965 30.6641L81.5996 30.6436C81.8458 30.628 82.2707 30.7257 82.6338 30.8712C82.8139 30.9433 82.9715 31.0242 83.0791 31.1026C83.1331 31.142 83.1698 31.1781 83.1914 31.2081L83.2119 31.2559V31.2569C83.202 31.3264 83.1617 31.4036 83.083 31.4874C83.0046 31.5709 82.8935 31.6553 82.7559 31.7393C82.4806 31.9073 82.1115 32.0652 81.7168 32.2081C81.3214 32.3512 80.9071 32.4771 80.542 32.5821L79.6621 32.8321H79.6611C79.5047 32.8818 79.3307 32.9321 79.1826 32.9581L79.0449 32.9747H79.0439C78.6925 32.9975 78.4498 32.916 78.2803 32.7784C78.1092 32.6395 77.9998 32.4337 77.9365 32.1856C77.8091 31.6854 77.8753 31.0505 77.9453 30.5733C78.242 28.5856 79.0429 26.5477 79.8428 24.5792L79.8516 24.5577L79.8496 24.5342C79.8463 24.492 79.841 24.45 79.8359 24.4102C79.8308 24.3699 79.8261 24.3317 79.8223 24.293C79.8185 24.2547 79.8163 24.217 79.8164 24.1797L79.8252 24.0674L79.8262 24.0645C79.848 23.8992 79.9773 23.5491 80.3955 23.4307L80.4834 23.4102H80.4844C81.2149 23.2686 81.9415 23.0897 82.5674 22.9288L82.5664 22.9278C83.0378 22.8167 83.488 22.7175 83.8584 22.6631L84.2002 22.6251Z" fill="white" stroke="black" stroke-width="0.2"/>
<path d="M96.698 23.2453C97.5825 23.1883 98.2798 23.3892 98.7126 23.9816C98.7444 24.0397 98.7644 24.0977 98.7673 24.1535L98.7644 24.2101L98.7634 24.2131C98.7515 24.2942 98.7026 24.3776 98.6179 24.4601C98.5336 24.5423 98.4203 24.6181 98.2937 24.6828C98.0389 24.8131 97.7496 24.8915 97.5818 24.9025L97.5632 24.9035C97.409 24.9108 97.3131 24.8818 97.1902 24.8478C97.0905 24.8203 96.9796 24.7927 96.823 24.7873L96.6501 24.7902C95.8885 24.839 94.7227 25.136 93.5916 25.5051C92.4589 25.8747 91.347 26.3213 90.6921 26.673L90.4949 26.7785L90.7058 26.8547C91.6493 27.1946 93.1287 27.4367 94.2136 27.5158L94.6511 27.5392H94.6521C94.6927 27.5402 94.7585 27.5668 94.8386 27.6359C94.9158 27.7026 94.9953 27.7996 95.0652 27.9162C95.1885 28.122 95.2724 28.3768 95.2625 28.6193L95.2527 28.7219V28.7228C95.2186 28.9375 95.0847 29.188 94.7976 29.3791C94.5124 29.5592 93.6988 29.9351 92.865 30.2726C92.4482 30.4414 92.0295 30.5994 91.6746 30.718C91.4055 30.8078 91.1794 30.8725 91.0193 30.9035L90.8816 30.923C90.545 30.9445 90.1449 30.8263 89.8328 30.6642C89.6774 30.5836 89.5501 30.4941 89.4656 30.4123C89.4232 30.3713 89.394 30.3349 89.3777 30.3049L89.363 30.2531V30.2482C89.3737 30.1586 89.404 30.0847 89.4626 30.0109L89.531 29.9367L89.5349 29.9328C89.6168 29.8441 89.7432 29.7725 89.9324 29.7033C90.1216 29.6341 90.3624 29.5704 90.6658 29.4924C91.2702 29.3368 92.1039 29.1259 93.2048 28.6935L93.533 28.5646L93.1863 28.5021C92.8961 28.4498 92.5093 28.418 92.0876 28.3869C91.6638 28.3557 91.2016 28.3247 90.7537 28.2766C90.3054 28.2283 89.8756 28.1625 89.5173 28.0617C89.2009 27.9727 88.9524 27.8596 88.7937 27.717L88.7312 27.6545C88.6555 27.5682 88.6135 27.4467 88.5964 27.3107C88.588 27.2433 88.5853 27.1746 88.5876 27.1086L88.6062 26.9211V26.9201C88.6455 26.6488 88.7755 26.2223 89.0925 25.9103L89.24 25.7844C89.6647 25.472 90.8604 24.8794 92.2917 24.342C93.6321 23.8388 95.1647 23.39 96.4451 23.2658L96.698 23.2453Z" fill="white" stroke="black" stroke-width="0.2"/>
<path d="M105.475 22.4923C105.724 22.4763 106.016 22.5705 106.237 22.7384C106.43 22.8851 106.555 23.0769 106.56 23.2882L106.555 23.38C106.534 23.5386 106.442 23.8793 106.308 24.336C106.178 24.7799 106.01 25.3247 105.833 25.9015L105.83 25.9044L105.819 25.9425C105.735 26.2366 105.483 27.1743 105.207 28.0909C105.069 28.549 104.925 29.0003 104.795 29.3604C104.729 29.5403 104.668 29.6961 104.612 29.8185C104.583 29.8814 104.558 29.9333 104.535 29.9737L104.475 30.0616L104.474 30.0626C104.301 30.2621 104.052 30.3402 103.874 30.3507H103.792C103.594 30.3395 103.338 30.2511 103.123 30.1134C103.001 30.0356 102.898 29.9457 102.829 29.8517C102.76 29.7581 102.727 29.6666 102.733 29.5811C102.755 29.44 102.817 29.2612 102.89 29.0724L103.098 28.5284L103.099 28.5265L103.223 28.1192L103.271 27.964L103.111 27.9913L99.6501 28.587L99.5886 28.5977L99.571 28.6583C99.5344 28.7897 99.5011 28.9653 99.4617 29.1388C99.4211 29.3168 99.372 29.5023 99.3005 29.672C99.1582 30.01 98.9366 30.2698 98.531 30.296L98.3953 30.295C98.2554 30.2859 98.1049 30.2503 97.9685 30.1866C97.7886 30.1025 97.6404 29.9742 97.5662 29.8048H97.5671C97.5388 29.7267 97.5241 29.5715 97.53 29.3536C97.5329 29.2469 97.5404 29.1286 97.5525 29.002L97.6013 28.6017V28.6007C97.6916 27.9547 97.8839 27.0154 98.115 26.171C98.2306 25.7487 98.3558 25.3517 98.4822 25.0284C98.6093 24.7032 98.7326 24.4647 98.8425 24.3448C98.9851 24.2014 99.154 24.1293 99.3005 24.0977L99.4382 24.0792C99.6667 24.0648 99.9638 24.1488 100.193 24.3077C100.394 24.4468 100.526 24.6296 100.533 24.836L100.528 24.9259C100.51 25.0462 100.428 25.3704 100.323 25.7638C100.219 26.1543 100.094 26.6043 99.9939 26.9698L99.95 27.131L100.113 27.0929C101.131 26.8546 102.816 26.4942 103.682 26.3722L103.758 26.3614L103.767 26.2862C103.793 26.0923 103.883 25.7306 103.981 25.3673L104.232 24.4757C104.328 24.1507 104.429 23.8171 104.531 23.5255C104.633 23.2341 104.734 22.9928 104.828 22.8438C104.964 22.6495 105.166 22.5553 105.329 22.5157L105.475 22.4923Z" fill="white" stroke="black" stroke-width="0.2"/>
<path d="M110.601 23.0793C110.845 23.0642 111.232 23.0545 111.501 23.2629L111.526 23.2825L111.558 23.2834C111.883 23.2947 112.221 23.3987 112.453 23.6516C112.654 23.871 112.789 24.2171 112.753 24.7502L112.727 24.9905L112.726 24.9944C112.718 25.0701 112.705 25.1506 112.685 25.2356L112.614 25.5042L112.613 25.5061C112.439 26.1552 111.878 26.9149 111.146 27.5276C110.461 28.1014 109.644 28.5326 108.887 28.6262L108.737 28.6409C107.991 28.6889 107.443 28.4607 107.099 28.1018C106.798 27.787 106.649 27.3639 106.666 26.9172L106.683 26.7249C106.772 26.1187 107.208 25.2391 107.901 24.4924C108.549 23.7939 109.411 23.2236 110.402 23.0979L110.601 23.0793ZM110.901 24.5647H110.89L110.864 24.5667C110.618 24.575 110.34 24.6804 110.065 24.8362C109.789 24.993 109.507 25.206 109.252 25.4407C108.996 25.6753 108.765 25.9338 108.59 26.1829C108.418 26.4261 108.294 26.6701 108.26 26.8792C108.259 26.8834 108.254 26.9032 108.252 26.9163C108.249 26.931 108.244 26.9545 108.246 26.9797C108.248 27.006 108.258 27.0456 108.294 27.0754C108.311 27.0898 108.33 27.0982 108.348 27.1028L108.401 27.1067H108.402C108.636 27.0917 108.968 26.9634 109.273 26.8049C109.504 26.6852 109.731 26.542 109.901 26.4045L110.051 26.2708L110.052 26.2688C110.442 25.8481 110.86 25.1025 111.004 24.6975L111.056 24.551L110.901 24.5647Z" fill="white" stroke="black" stroke-width="0.2"/>
<path d="M120.092 21.352C120.317 21.3371 120.712 21.4209 121.041 21.5786C121.204 21.657 121.343 21.7503 121.435 21.851C121.503 21.9259 121.542 22 121.55 22.0737L121.549 22.1479L121.548 22.1489C121.526 22.3082 121.422 22.4545 121.25 22.5815C121.122 22.6767 120.96 22.7579 120.779 22.8208L120.592 22.8774C119.16 23.2463 117.384 24.0727 116.25 25.0444L116.032 25.2407C115.801 25.4611 115.56 25.7025 115.394 25.9507C115.23 26.1968 115.126 26.469 115.205 26.7446V26.7456C115.223 26.8155 115.272 26.8692 115.326 26.9087C115.38 26.9489 115.448 26.9818 115.521 27.0063C115.63 27.0431 115.76 27.0654 115.891 27.0698L116.022 27.0678C116.833 27.0158 117.681 26.7894 118.37 26.5405C118.714 26.4159 119.021 26.2847 119.265 26.1665C119.506 26.0494 119.692 25.9415 119.792 25.8618L120.056 25.6499L119.719 25.685L117.564 25.9038H117.563C117.43 25.9188 117.15 25.9232 116.917 25.8706C116.799 25.8441 116.703 25.8062 116.643 25.7563C116.602 25.7221 116.578 25.6832 116.573 25.6342L116.574 25.5825C116.584 25.5345 116.628 25.4707 116.702 25.3979C116.773 25.3277 116.856 25.2622 116.922 25.2114L116.923 25.2124C117.306 24.9444 117.851 24.736 118.45 24.5854C118.898 24.4728 119.371 24.3933 119.822 24.3452L120.263 24.3071C120.342 24.3019 120.505 24.3242 120.709 24.3784C120.911 24.4317 121.144 24.5131 121.36 24.6216C121.577 24.7304 121.772 24.8634 121.905 25.0151C122.036 25.1653 122.102 25.3285 122.078 25.5063C122.06 25.6247 122.001 25.7441 121.905 25.852L121.796 25.9555L121.73 26.0102C119.539 27.7536 117.234 28.2884 116.194 28.3969L116.001 28.4135C115.363 28.4543 114.852 28.3155 114.456 28.0639C114.06 27.8126 113.772 27.4447 113.587 27.0151C113.553 26.9215 113.539 26.8126 113.544 26.7036L113.557 26.5942L113.558 26.5893C113.628 26.1136 113.947 25.5543 114.43 24.9751C114.912 24.3983 115.548 23.8123 116.235 23.2837C116.922 22.7551 117.659 22.2861 118.339 21.9419C118.937 21.6395 119.485 21.4368 119.916 21.3716L120.092 21.352Z" fill="white" stroke="black" stroke-width="0.2"/>
<path d="M129.149 20.7675C129.374 20.7526 129.769 20.8364 130.098 20.9941C130.261 21.0725 130.4 21.1658 130.492 21.2665C130.56 21.3414 130.599 21.4155 130.607 21.4892L130.606 21.5634L130.605 21.5644C130.583 21.7235 130.479 21.8699 130.308 21.997C130.179 22.0922 130.017 22.1726 129.836 22.2353L129.65 22.2919C128.218 22.6607 126.442 23.4883 125.308 24.4599L125.089 24.6552V24.6562C124.858 24.8768 124.617 25.118 124.451 25.3661C124.287 25.6123 124.184 25.8845 124.262 26.1601V26.1611C124.28 26.2309 124.329 26.2848 124.383 26.3242C124.437 26.3642 124.505 26.3963 124.578 26.4208C124.688 26.4576 124.817 26.4809 124.948 26.4853L125.079 26.4833C125.89 26.4315 126.738 26.2049 127.427 25.956C127.772 25.8314 128.079 25.7002 128.322 25.582C128.563 25.4649 128.749 25.3571 128.849 25.2773L129.112 25.0654L128.776 25.0995L126.621 25.3183L126.62 25.3193C126.487 25.3343 126.207 25.3386 125.974 25.2861C125.856 25.2596 125.761 25.2207 125.701 25.1708C125.647 25.1257 125.62 25.0733 125.63 24.999C125.64 24.9509 125.685 24.8868 125.759 24.8134C125.83 24.7433 125.913 24.6777 125.979 24.6269L125.98 24.6279C126.363 24.3597 126.908 24.1505 127.507 23.9999C127.955 23.8874 128.428 23.8089 128.879 23.7607L129.32 23.7226C129.399 23.7175 129.562 23.7386 129.767 23.7929C129.968 23.8463 130.201 23.9286 130.417 24.037C130.634 24.146 130.829 24.2789 130.962 24.4306C131.093 24.5806 131.159 24.7433 131.135 24.9208C131.117 25.0395 131.058 25.1587 130.962 25.2665L130.854 25.3701L130.799 25.416C128.605 27.1672 126.293 27.7028 125.251 27.8115L125.059 27.8281C124.42 27.8688 123.909 27.7309 123.513 27.4794C123.117 27.2282 122.829 26.86 122.645 26.4306C122.61 26.337 122.596 26.228 122.602 26.1191L122.614 26.0097L122.615 26.0058C122.685 25.5298 123.004 24.97 123.487 24.3906C123.969 23.8136 124.605 23.2268 125.292 22.6982C125.979 22.1697 126.716 21.7005 127.396 21.3564C127.994 21.0541 128.542 20.8522 128.973 20.787L129.149 20.7675Z" fill="white" stroke="black" stroke-width="0.2"/>
<path d="M135.537 21.4726C135.781 21.4574 136.169 21.4478 136.438 21.6562L136.463 21.6757L136.495 21.6767C136.82 21.6879 137.157 21.792 137.389 22.0448C137.618 22.2955 137.762 22.7117 137.663 23.3837L137.762 23.3983L137.662 23.3837V23.3876C137.654 23.4635 137.64 23.544 137.621 23.6288L137.55 23.8974L137.549 23.8993C137.375 24.5484 136.813 25.3081 136.081 25.9208C135.396 26.4947 134.579 26.9259 133.823 27.0194L133.673 27.0341C132.928 27.0821 132.379 26.8538 132.036 26.495C131.735 26.1802 131.585 25.7571 131.602 25.3105L131.619 25.1181C131.708 24.512 132.144 23.6332 132.837 22.8866C133.485 22.1879 134.347 21.617 135.338 21.4911L135.537 21.4726ZM135.851 22.9579L135.801 22.9599C135.555 22.9684 135.277 23.0737 135.003 23.2294C134.727 23.3863 134.445 23.5992 134.189 23.8339C133.934 24.0686 133.703 24.3278 133.527 24.5771C133.356 24.8201 133.232 25.0635 133.198 25.2724C133.197 25.2778 133.191 25.2964 133.188 25.3105C133.185 25.3254 133.182 25.3489 133.184 25.3739C133.186 25.3999 133.196 25.4391 133.231 25.4687C133.249 25.4831 133.268 25.4915 133.286 25.496L133.339 25.4999C133.573 25.485 133.906 25.3567 134.212 25.1982C134.442 25.0786 134.669 24.9359 134.839 24.7987L134.988 24.664L134.99 24.662C135.331 24.2936 135.694 23.6781 135.876 23.2587L135.942 23.0917L135.994 22.9462L135.851 22.9579Z" fill="white" stroke="black" stroke-width="0.2"/>
<path d="M145.615 17.9633C145.816 17.9506 146.043 18.0009 146.205 18.1107C146.342 18.204 146.432 18.3383 146.428 18.5209L146.422 18.602V18.6039C146.387 18.8541 146.207 19.034 146.008 19.144L145.921 19.1869L145.92 19.1879C145.664 19.3059 145.187 19.4253 144.689 19.5326C144.442 19.5858 144.193 19.6354 143.968 19.6801L143.389 19.7973L143.385 19.7992C143.34 19.8113 143.3 19.8096 143.263 19.8061C143.248 19.8046 143.222 19.8011 143.202 19.8012C143.184 19.8012 143.136 19.8027 143.099 19.8412L143.172 19.9106L143.098 19.8412L143.094 19.8471C143.08 19.8641 143.068 19.8869 143.059 19.9057C143.049 19.927 143.038 19.954 143.025 19.9848C143 20.0464 142.97 20.129 142.934 20.2289C142.863 20.4291 142.771 20.7027 142.666 21.0268C142.455 21.6752 142.188 22.5275 141.919 23.3988L140.693 27.39L140.692 27.392C140.46 28.1812 140.247 28.8333 140.186 28.9779C140.124 29.0983 140.01 29.2006 139.864 29.2758C139.755 29.3319 139.631 29.3714 139.508 29.392L139.384 29.4066C139.077 29.4266 138.784 29.3505 138.583 29.1967C138.411 29.0652 138.301 28.8737 138.306 28.6186L138.316 28.5053C138.352 28.2532 138.54 27.5772 138.805 26.7055C138.937 26.2719 139.087 25.7922 139.245 25.2963L139.733 23.7885V23.7875C140.132 22.5254 140.533 21.302 140.787 20.5551L140.848 20.3754L140.666 20.4272C140.287 20.5334 139.908 20.6373 139.534 20.6713L139.374 20.6811H139.372C139.139 20.6956 138.789 20.619 138.509 20.4633C138.225 20.306 138.052 20.0929 138.082 19.8481C138.106 19.6868 138.176 19.5726 138.273 19.4877C138.373 19.4009 138.506 19.3412 138.66 19.2973C138.814 19.2535 138.981 19.2275 139.148 19.2055C139.23 19.1946 139.313 19.1843 139.392 19.1732L139.617 19.1352H139.618C139.873 19.0782 140.158 18.9922 140.49 18.893C140.656 18.8433 140.835 18.7902 141.029 18.7348L141.663 18.5629H141.664C142.486 18.3476 143.549 18.1377 144.979 18.0121L145.615 17.9633Z" fill="white" stroke="black" stroke-width="0.2"/>
<path d="M151.603 19.519C151.851 19.5031 152.144 19.5974 152.364 19.7651C152.557 19.9119 152.682 20.1037 152.688 20.3149L152.682 20.4067C152.66 20.5651 152.57 20.9052 152.436 21.3618C152.304 21.8081 152.134 22.3568 151.956 22.937L151.954 22.9399L151.946 22.9692C151.862 23.2639 151.609 24.2008 151.333 25.1177C151.195 25.5756 151.051 26.0261 150.921 26.3862C150.856 26.5663 150.795 26.7228 150.739 26.8452C150.711 26.9082 150.685 26.9601 150.662 27.0005L150.603 27.0884L150.602 27.0894C150.428 27.2893 150.18 27.3669 150.001 27.3774H149.919C149.721 27.3665 149.466 27.278 149.25 27.1401C149.128 27.0623 149.025 26.9726 148.955 26.8784C148.887 26.7867 148.855 26.6968 148.859 26.6128C148.881 26.471 148.943 26.2904 149.018 26.0991L149.227 25.5562L149.228 25.5532L149.351 25.146L149.397 24.9917L149.238 25.019L145.778 25.6138L145.716 25.6245L145.699 25.6851C145.662 25.8166 145.628 25.992 145.589 26.1655C145.548 26.3436 145.499 26.529 145.428 26.6987C145.285 27.0369 145.064 27.2964 144.658 27.3228L144.522 27.3218C144.382 27.3125 144.232 27.2771 144.096 27.2134C143.915 27.1291 143.768 27.0003 143.693 26.8306C143.665 26.753 143.65 26.5983 143.656 26.3804C143.659 26.2737 143.667 26.1553 143.679 26.0288L143.729 25.6284V25.6274C143.819 24.9813 144.01 24.0414 144.241 23.1968C144.357 22.7748 144.481 22.3784 144.607 22.0552C144.734 21.7301 144.858 21.4915 144.968 21.3716C145.11 21.228 145.28 21.1561 145.426 21.1245L145.562 21.105C145.791 21.0905 146.089 21.1755 146.318 21.3345C146.548 21.4933 146.687 21.7087 146.653 21.9517C146.636 22.0716 146.553 22.3966 146.448 22.7905C146.344 23.1816 146.22 23.6304 146.121 23.9966L146.077 24.1577L146.24 24.1196C147.259 23.8813 148.944 23.5215 149.81 23.3999L149.885 23.3892L149.895 23.314C149.92 23.1202 150.01 22.7577 150.108 22.394L150.359 21.5024C150.455 21.1775 150.556 20.8439 150.658 20.5522C150.761 20.2584 150.863 20.0153 150.958 19.8667L150.957 19.8657C151.093 19.6741 151.293 19.5817 151.455 19.5425L151.603 19.519Z" fill="white" stroke="black" stroke-width="0.2"/>
</g>
<defs>
<clipPath id="clip0_12_665">
<rect width="156" height="39" fill="white" transform="translate(0.5 0.125031)"/>
</clipPath>
</defs>
</svg>
