<svg width="160" height="44" viewBox="0 0 160 44" fill="none" xmlns="http://www.w3.org/2000/svg">
<path d="M0.0395508 2.72569C0.0395508 1.77127 0.0395508 1.29467 0.22821 0.929854C0.39438 0.609257 0.659252 0.348849 0.985345 0.185479C1.35642 0 1.84118 0 2.81196 0H14.4539C23.1884 0 27.5563 0 30.8922 1.67177C33.827 3.14087 36.2134 5.487 37.7076 8.37237C39.4081 11.652 39.4081 15.9463 39.4081 24.5336V40.5868C39.4081 41.5413 39.4081 42.0178 39.2194 42.3827C39.0532 42.7033 38.7884 42.9637 38.4623 43.127C38.0912 43.3125 37.6052 43.3125 36.6357 43.3125H9.74362C6.34651 43.3125 4.64858 43.3125 3.3517 42.6627C2.20975 42.0903 1.2827 41.1789 0.700482 40.0562C0.0395508 38.7812 0.0395508 37.1119 0.0395508 33.772V2.72569Z" fill="#FEFEFE"/>
<path d="M10.8065 9.36493L10.7677 9.38336C7.62426 10.8954 5.50903 12.7036 5.50903 12.7036L4.71816 13.3448C4.69567 13.3632 4.67443 13.3841 4.65569 13.4062L3.26137 14.8667C2.99899 15.1344 2.85156 15.4931 2.85156 15.8665C2.85156 16.24 2.99899 16.5986 3.26137 16.8664L23.5241 36.8405L27.1549 40.4309C27.2236 40.4935 27.3123 40.5292 27.406 40.5316H34.2514C34.3889 40.5292 34.5226 40.4874 34.635 40.4112C34.7487 40.3351 34.8361 40.2282 34.8886 40.1029C34.9398 39.9789 34.9548 39.8413 34.9286 39.7086C34.9024 39.576 34.8374 39.4544 34.7412 39.3573L27.852 32.5511C27.852 32.5511 28.0082 32.2501 28.0769 32.1212C28.6366 31.0857 29.3213 29.7124 29.931 28.1254C29.936 28.107 29.9548 28.0173 29.8723 27.9682C29.7798 27.9129 29.6961 27.9682 29.6961 27.9682C28.363 28.8427 26.8812 29.5515 25.2882 30.0477L9.05357 13.7096C9.42714 12.2552 10.0993 10.8402 10.9951 9.5369C11.0026 9.52093 11.0439 9.43126 10.9639 9.37476C10.9089 9.33668 10.8452 9.35019 10.8065 9.36493ZM27.6559 11.1141C22.4046 5.92804 16.1177 7.02495 11.5874 9.00749C11.5574 9.01731 11.5099 9.02468 11.4749 8.99398C11.4287 8.95467 11.4512 8.91045 11.4612 8.89571C14.1873 5.34089 18.5952 2.76506 23.0631 2.76506C30.0909 2.76506 36.5953 9.18683 36.5953 16.1257C36.5953 20.5453 34.1852 24.7131 30.3995 27.4805C30.3995 27.4805 30.3096 27.5431 30.2446 27.4805C30.2009 27.4387 30.2021 27.397 30.2084 27.3736L30.2146 27.3564C31.9088 22.545 32.7047 16.0938 27.6559 11.1141ZM10.3504 36.8466C10.3504 38.882 8.67126 40.5316 6.60101 40.5316C4.53075 40.5316 2.85156 38.882 2.85156 36.8466C2.85156 34.8125 4.53075 33.1628 6.60101 33.1628C8.67126 33.1628 10.3504 34.8125 10.3504 36.8466Z" fill="#222222"/>
<path d="M55.107 20.4346V36.7666H51.6587V17.8022H54.8472L55.107 20.4346ZM64.1527 24.5114V24.7768C64.1527 25.7729 64.0315 26.6979 63.7878 27.5491C63.5542 28.3942 63.2069 29.1325 62.7471 29.765C62.2873 30.3903 61.7151 30.8792 61.0292 31.2341C60.352 31.5793 59.5711 31.7525 58.6866 31.7525C57.8182 31.7525 57.0636 31.5928 56.4214 31.2722C55.7792 30.943 55.237 30.4787 54.7947 29.8793C54.3524 29.2799 53.9963 28.5834 53.7277 27.7899C53.4666 26.989 53.2717 26.1156 53.1417 25.1698V24.321C53.2717 23.3175 53.4666 22.4061 53.7277 21.5868C53.9963 20.7601 54.3524 20.0464 54.7947 19.447C55.237 18.8402 55.7755 18.371 56.4089 18.0418C57.0511 17.7126 57.8007 17.548 58.6603 17.548C59.5536 17.548 60.3395 17.7126 61.0154 18.0418C61.7014 18.371 62.2786 18.8439 62.7471 19.4605C63.2156 20.0759 63.5667 20.8104 63.8016 21.6629C64.0352 22.5154 64.1527 23.4649 64.1527 24.5114ZM60.7031 24.7768V24.5114C60.7031 23.9034 60.6469 23.3421 60.5344 22.8274C60.422 22.3041 60.2483 21.8484 60.0134 21.4602C59.7798 21.0635 59.4762 20.7552 59.1026 20.5365C58.7303 20.3167 58.278 20.2073 57.7495 20.2073C57.2198 20.2073 56.765 20.2921 56.3827 20.4604C56.0004 20.6287 55.688 20.8694 55.4456 21.1814C55.202 21.4946 55.0121 21.8656 54.8734 22.2955C54.7422 22.7181 54.656 23.1861 54.6123 23.7007V25.8024C54.691 26.4276 54.8422 26.989 55.0683 27.4865C55.2932 27.984 55.623 28.3807 56.0578 28.6767C56.5001 28.9715 57.0723 29.1202 57.7757 29.1202C58.3042 29.1202 58.7553 29.0059 59.1288 28.7775C59.5024 28.5502 59.806 28.2382 60.0397 27.8415C60.2745 27.4361 60.4432 26.9718 60.5469 26.4485C60.6519 25.9253 60.7031 25.3676 60.7031 24.7768Z" fill="#FEFEFE"/>
<path d="M70.1009 20.5992V31.4995H66.6638V17.8022H69.9185L70.1009 20.5992ZM74.3826 17.7126L74.3301 20.8276C74.139 20.7932 73.9228 20.7687 73.6792 20.7515C73.4455 20.7343 73.2244 20.7257 73.0158 20.7257C72.486 20.7257 72.0225 20.7982 71.6227 20.9419C71.2241 21.077 70.8905 21.2748 70.6207 21.5364C70.3608 21.798 70.1609 22.1186 70.0222 22.4982C69.8835 22.8704 69.8048 23.2917 69.7886 23.7646L69.0464 23.6762C69.0464 22.8065 69.1376 22.0007 69.32 21.2576C69.5012 20.5156 69.7661 19.8646 70.1134 19.3082C70.4607 18.7505 70.8943 18.3206 71.4153 18.0172C71.9438 17.7052 72.551 17.548 73.2369 17.548C73.4281 17.548 73.6317 17.5652 73.8491 17.5996C74.074 17.6241 74.2527 17.6622 74.3826 17.7126Z" fill="#FEFEFE"/>
<path d="M75.293 24.7903V24.5237C75.293 23.5202 75.4404 22.5952 75.7353 21.7514C76.0301 20.8989 76.4599 20.1607 77.0246 19.5367C77.5881 18.9114 78.2778 18.4262 79.0936 18.0798C79.9095 17.7261 80.8378 17.548 81.8785 17.548C82.9368 17.548 83.8738 17.7261 84.6897 18.0798C85.5143 18.4262 86.209 18.9114 86.7724 19.5367C87.3359 20.1607 87.7657 20.8989 88.0606 21.7514C88.3567 22.5952 88.5029 23.5202 88.5029 24.5237V24.7903C88.5029 25.7852 88.3567 26.7102 88.0606 27.5626C87.7657 28.4065 87.3359 29.1447 86.7724 29.7773C86.209 30.4026 85.518 30.8878 84.7034 31.2341C83.8876 31.5793 82.9543 31.7525 81.9048 31.7525C80.864 31.7525 79.9307 31.5793 79.1061 31.2341C78.2828 30.8878 77.5881 30.4026 77.0246 29.7773C76.4599 29.1447 76.0301 28.4065 75.7353 27.5626C75.4404 26.7102 75.293 25.7852 75.293 24.7903ZM78.7288 24.5237V24.7903C78.7288 25.3897 78.79 25.9511 78.9112 26.4743C79.0324 26.9976 79.2198 27.457 79.471 27.8538C79.7221 28.2505 80.0482 28.5625 80.4467 28.791C80.8553 29.0096 81.3413 29.1202 81.9048 29.1202C82.4595 29.1202 82.9368 29.0096 83.3366 28.791C83.7351 28.5625 84.0612 28.2505 84.3124 27.8538C84.5722 27.457 84.7634 26.9976 84.8846 26.4743C85.007 25.9511 85.067 25.3897 85.067 24.7903V24.5237C85.067 23.9329 85.007 23.3801 84.8846 22.8655C84.7634 22.3422 84.5722 21.8828 84.3124 21.486C84.0612 21.0807 83.7314 20.7638 83.3228 20.5365C82.9243 20.2995 82.4433 20.1815 81.8785 20.1815C81.3238 20.1815 80.8465 20.2995 80.4467 20.5365C80.0482 20.7638 79.7221 21.0807 79.471 21.486C79.2198 21.8828 79.0324 22.3422 78.9112 22.8655C78.79 23.3801 78.7288 23.9329 78.7288 24.5237Z" fill="#FEFEFE"/>
<path d="M93.411 17.801L95.9222 22.1567L98.4735 17.801H102.209L98.07 24.5114L102.378 31.4995H98.6434L95.9485 26.9301L95.2713 28.0724L94.5954 29.2148L93.241 31.4995H89.5066L93.8008 24.5114L89.689 17.801H93.411Z" fill="#FEFEFE"/>
<path d="M107.844 17.801V31.4995H104.396V17.801H107.844Z" fill="#FEFEFE"/>
<path d="M114.547 20.6127V31.4995H111.111V17.8022H114.352L114.547 20.6127ZM114.04 24.1564H112.985C112.985 23.2033 113.103 22.325 113.338 21.5241C113.58 20.722 113.936 20.0255 114.405 19.4347C114.873 18.8353 115.45 18.371 116.135 18.0418C116.83 17.7126 117.632 17.548 118.543 17.548C119.176 17.548 119.758 17.6413 120.287 17.8268C120.817 18.0049 121.273 18.2874 121.654 18.6756C122.045 19.0551 122.343 19.5526 122.552 20.1693C122.761 20.7773 122.864 21.5069 122.864 22.3594V31.4995H119.429V22.7009C119.429 22.0597 119.332 21.5573 119.142 21.1949C118.96 20.8313 118.695 20.5783 118.348 20.4346C118.001 20.2835 117.584 20.2073 117.098 20.2073C116.561 20.2073 116.096 20.313 115.707 20.523C115.324 20.7257 115.007 21.0094 114.756 21.3718C114.513 21.7342 114.331 22.153 114.21 22.6247C114.096 23.0976 114.04 23.6086 114.04 24.1564ZM122.605 23.5361L121.185 23.7892C121.194 22.9293 121.315 22.1235 121.55 21.3718C121.784 20.6127 122.127 19.9494 122.578 19.3843C123.038 18.8107 123.607 18.3636 124.282 18.0418C124.968 17.7126 125.758 17.548 126.651 17.548C127.346 17.548 127.971 17.645 128.525 17.8403C129.09 18.0258 129.571 18.3243 129.971 18.7382C130.37 19.1436 130.673 19.6718 130.882 20.3216C131.099 20.9714 131.207 21.7636 131.207 22.7009V31.4995H127.745V22.6886C127.745 22.0216 127.65 21.5106 127.458 21.1568C127.276 20.8018 127.012 20.5574 126.665 20.4223C126.318 20.2786 125.91 20.2073 125.442 20.2073C124.963 20.2073 124.547 20.2958 124.191 20.4727C123.845 20.6422 123.549 20.878 123.307 21.1814C123.073 21.486 122.894 21.8398 122.773 22.2451C122.661 22.6419 122.605 23.073 122.605 23.5361Z" fill="#FEFEFE"/>
<path d="M137.935 17.801V31.4995H134.486V17.801H137.935Z" fill="#FEFEFE"/>
<path d="M148.785 17.8024V20.2075H141.228L143.093 17.8024H144.676H148.785ZM141.228 15.3765H144.676V17.8024V27.5493C144.676 27.9547 144.732 28.2679 144.845 28.4865C144.958 28.7064 145.127 28.8538 145.353 28.93C145.578 29.0061 145.848 29.0442 146.16 29.0442C146.385 29.0442 146.594 29.0307 146.785 29.0061C146.975 28.9803 147.136 28.9558 147.266 28.93L147.278 31.437C146.992 31.5291 146.667 31.6053 146.303 31.6643C145.947 31.7232 145.544 31.7527 145.092 31.7527C144.32 31.7527 143.644 31.6262 143.062 31.3731C142.481 31.1115 142.03 30.6939 141.709 30.1202C141.387 29.538 141.228 28.7691 141.228 27.8159V15.3765Z" fill="#FEFEFE"/>
<path d="M152.503 29.9801L156.277 17.8023H159.96L154.312 33.5754C154.181 33.9132 154.012 34.2805 153.803 34.6773C153.605 35.074 153.335 35.4499 152.996 35.8037C152.659 36.1672 152.233 36.462 151.722 36.6905C151.218 36.9178 150.606 37.032 149.886 37.032C149.574 37.032 149.295 37.0111 149.053 36.9681C148.811 36.9264 148.555 36.8711 148.285 36.8035V34.2977C148.372 34.3063 148.472 34.31 148.585 34.31C148.706 34.3186 148.811 34.3223 148.897 34.3223C149.4 34.3223 149.816 34.2633 150.146 34.1454C150.476 34.0361 150.741 33.8543 150.941 33.6012C151.148 33.3568 151.322 33.0362 151.461 32.6394L152.503 29.9801ZM150.641 17.8023L153.83 27.8919L154.389 31.4234L152.02 31.841L146.932 17.8023H150.641Z" fill="#FEFEFE"/>
</svg>
