<svg width="32" height="32" viewBox="0 0 32 32" fill="none" xmlns="http://www.w3.org/2000/svg">
<path d="M3.71924 22.0877C3.71924 19.7716 3.71924 18.6147 4.43889 17.8951C5.15854 17.1754 6.31539 17.1754 8.63154 17.1754H23.3684C25.6846 17.1754 26.8414 17.1754 27.5611 17.8951C28.2807 18.6147 28.2807 19.7716 28.2807 22.0877C28.2807 24.4039 28.2807 25.5607 27.5611 26.2804C26.8414 27 25.6846 27 23.3684 27H8.63154C6.31539 27 5.15854 27 4.43889 26.2804C3.71924 25.5607 3.71924 24.4039 3.71924 22.0877ZM3.71924 8.57892C3.71924 6.26278 3.71924 5.10593 4.43889 4.38628C5.15854 3.66663 6.31539 3.66663 8.63154 3.66663H23.3684C25.6846 3.66663 26.8414 3.66663 27.5611 4.38628C28.2807 5.10593 28.2807 6.26278 28.2807 8.57892C28.2807 10.8951 28.2807 12.0519 27.5611 12.7716C26.8414 13.4912 25.6846 13.4912 23.3684 13.4912H8.63154C6.31539 13.4912 5.15854 13.4912 4.43889 12.7716C3.71924 12.0519 3.71924 10.8951 3.71924 8.57892Z" stroke="#7958FF" stroke-width="2"/>
<path d="M14.7719 8.57898H23.3685M8.63156 8.57898H11.0877M14.7719 22.0878H23.3685M8.63156 22.0878H11.0877" stroke="#7958FF" stroke-width="2" stroke-linecap="round"/>
</svg>
