<svg width="25" height="24" viewBox="0 0 25 24" fill="none" xmlns="http://www.w3.org/2000/svg">
<path d="M15.5 19C16.7 15.322 18.026 13.995 21.5 13C18.026 12.005 16.7 10.678 15.5 7C14.3 10.678 12.974 12.005 9.5 13C12.974 13.995 14.3 15.322 15.5 19ZM7.5 10C8.1 8.16 8.763 7.497 10.5 7C8.763 6.503 8.1 5.84 7.5 4C6.9 5.84 6.237 6.503 4.5 7C6.237 7.497 6.9 8.16 7.5 10ZM9 20C9.3 19.08 9.631 18.749 10.5 18.5C9.631 18.251 9.3 17.92 9 17C8.7 17.92 8.369 18.251 7.5 18.5C8.369 18.749 8.7 19.08 9 20Z" stroke="#F8F9FF" stroke-width="2" stroke-linejoin="round"/>
</svg>
