<svg width="169" height="45" viewBox="0 0 169 45" fill="none" xmlns="http://www.w3.org/2000/svg">
<path d="M0.899902 26.8988V38.737L11.1961 44.6563L21.4922 38.7366V26.8968L11.1961 20.9791L0.899902 26.8988ZM34.7584 20.9791L24.4622 26.8984V38.7366L34.7584 44.6563L45.0546 38.7366V26.8964L34.7584 20.9791ZM33.2663 12.5055L28.1217 9.53598L28.1166 3.61749L22.9772 0.656265L12.6882 6.57594V18.4141L22.9772 24.3334L33.2663 18.4141V12.5055Z" fill="#FEFEFE"/>
<path d="M33.2659 12.5055L38.4104 9.53401V3.61591L33.2738 0.656265L28.1162 3.61749L33.2738 6.57042L33.2659 12.5055Z" fill="#FEFEFE"/>
<path d="M96.5568 12.524L94.0397 30.0048C94.0358 30.0336 93.9938 30.0332 93.9902 30.0044L91.7785 12.5248C91.7778 12.5188 91.7748 12.5132 91.7702 12.5092C91.7656 12.5052 91.7597 12.503 91.7536 12.5031H85.4805C85.4744 12.5031 85.4685 12.5053 85.4639 12.5093C85.4594 12.5133 85.4564 12.5188 85.4555 12.5248L83.2438 30.006C83.2403 30.0348 83.1983 30.0352 83.1943 30.0064L80.6773 12.5244C80.6765 12.5184 80.6734 12.513 80.6689 12.5091C80.6643 12.5052 80.6584 12.503 80.6524 12.5031H76.8281C76.8245 12.5031 76.821 12.5039 76.8177 12.5054C76.8144 12.5069 76.8115 12.5091 76.8092 12.5119C76.8069 12.5146 76.8052 12.5178 76.8042 12.5213C76.8032 12.5247 76.803 12.5283 76.8036 12.5319L79.9958 32.7597C79.9978 32.7719 80.0081 32.7806 80.0203 32.7806H86.2836C86.2962 32.7806 86.3069 32.7711 86.3085 32.7589L88.5927 15.3104C88.5966 15.2816 88.6386 15.2816 88.6422 15.3104L90.9259 32.7589C90.9275 32.7711 90.9382 32.7806 90.9509 32.7806H97.2141C97.2264 32.7806 97.2371 32.7715 97.2387 32.7597L100.431 12.5319C100.431 12.5283 100.431 12.5247 100.43 12.5213C100.429 12.5178 100.428 12.5146 100.425 12.5119C100.423 12.5091 100.42 12.5069 100.417 12.5054C100.413 12.5039 100.41 12.5031 100.406 12.5031H96.5817C96.5757 12.5031 96.5699 12.5053 96.5653 12.5092C96.5607 12.5131 96.5577 12.5185 96.5568 12.5244V12.524ZM166.808 13.4719C165.937 12.462 164.695 11.9498 163.117 11.9498C161.1 11.9498 159.591 12.8531 158.627 14.6356H158.612C158.343 13.8914 157.899 13.2671 157.291 12.777C156.609 12.2284 155.743 11.9502 154.716 11.9502C153.753 11.9502 152.902 12.1886 152.187 12.659C151.584 13.0556 151.099 13.6384 150.742 14.3961V12.5283C150.742 12.5217 150.74 12.5154 150.735 12.5108C150.73 12.5061 150.724 12.5035 150.717 12.5035H146.984C146.977 12.5035 146.971 12.5061 146.966 12.5108C146.961 12.5154 146.959 12.5217 146.959 12.5283V32.7557C146.959 32.7695 146.97 32.7806 146.984 32.7806H150.717C150.731 32.7806 150.742 32.7695 150.742 32.7557V18.9295C150.742 17.9054 150.979 17.0716 151.446 16.4509C151.896 15.853 152.525 15.5626 153.369 15.5626C154.06 15.5626 154.595 15.7997 155.005 16.2879C155.431 16.795 155.638 17.4267 155.638 18.2187V32.7557C155.638 32.7695 155.649 32.7806 155.663 32.7806H159.397C159.41 32.7806 159.421 32.7695 159.421 32.7557V19.1662C159.421 17.9133 159.668 16.9844 160.153 16.4063C160.63 15.8384 161.237 15.5622 162.008 15.5622C162.821 15.5622 163.389 15.8053 163.747 16.3052C164.125 16.836 164.317 17.5325 164.317 18.3762V32.7549C164.317 32.7687 164.328 32.7798 164.341 32.7798H168.1V17.3498C168.1 15.7721 167.666 14.4675 166.808 13.4719H166.808ZM123.048 30.5747L120.683 33.2068C120.678 33.2118 120.672 33.2148 120.665 33.2153C120.659 33.2157 120.652 33.2135 120.647 33.2091L116.481 29.611C116.477 29.6075 116.472 29.6054 116.466 29.6049C116.461 29.6044 116.456 29.6056 116.451 29.6082L111.468 32.5083C110.628 32.9866 109.748 33.2257 108.789 33.2257C107.389 33.2257 106.109 32.708 104.989 31.7116C103.909 30.6753 103.349 29.3999 103.349 27.8459C103.349 25.973 104.349 24.1396 106.069 23.1831L116.134 17.4121C116.142 17.4078 116.146 17.3991 116.146 17.39V16.1146C116.146 16.1079 116.144 16.1015 116.139 16.0968C116.134 16.092 116.128 16.0894 116.121 16.0894H104.375C104.368 16.0894 104.362 16.0867 104.357 16.082C104.352 16.0773 104.349 16.0708 104.349 16.0641V12.5287C104.349 12.5145 104.361 12.5035 104.375 12.5035H119.72C119.735 12.5035 119.746 12.5149 119.746 12.5287V27.675C119.746 27.6825 119.749 27.6892 119.754 27.6943L123.045 30.5391C123.056 30.5486 123.057 30.5648 123.048 30.5754L123.048 30.5747ZM109.668 29.3995L116.134 25.6609C116.142 25.6561 116.146 25.6478 116.146 25.6388V21.5923C116.146 21.5726 116.125 21.5608 116.108 21.5702L107.868 26.2907C107.268 26.6494 106.948 27.1675 106.948 27.8451C106.948 28.8411 107.828 29.6386 108.748 29.6386C109.108 29.6386 109.388 29.5589 109.668 29.3991V29.3995ZM141.03 13.9202C139.725 12.6199 138.143 11.9498 136.284 11.9498C134.079 11.9498 132.305 12.8097 130.963 14.5295C130.961 14.5322 130.958 14.5345 130.955 14.5361C130.952 14.5378 130.949 14.5388 130.946 14.5391C130.942 14.5394 130.939 14.539 130.936 14.5379C130.932 14.5367 130.929 14.535 130.927 14.5326L128.553 12.3606C128.551 12.3584 128.548 12.3566 128.545 12.3555C128.542 12.3543 128.538 12.3538 128.535 12.3539C128.532 12.3541 128.528 12.3549 128.525 12.3563C128.522 12.3577 128.52 12.3597 128.518 12.3622L126.178 14.9651C126.174 14.9701 126.172 14.9766 126.172 14.9833C126.172 14.9899 126.175 14.9962 126.18 15.0006L129.554 18.0502C129.559 18.055 129.563 18.0617 129.563 18.0688V29.199C129.563 29.2128 129.551 29.2243 129.537 29.2243H126.185C126.178 29.2243 126.172 29.2269 126.167 29.2317C126.162 29.2364 126.159 29.2428 126.159 29.2495V32.7455C126.159 32.7593 126.171 32.7707 126.185 32.7707H138.267C138.281 32.7707 138.292 32.7593 138.292 32.7455V29.2495C138.292 29.2428 138.29 29.2364 138.285 29.2317C138.28 29.2269 138.274 29.2243 138.267 29.2243H133.147C133.14 29.2243 133.134 29.2216 133.129 29.2169C133.124 29.2121 133.122 29.2057 133.122 29.199V18.8186C133.122 17.1624 134.327 15.666 135.982 15.5105C137.857 15.3341 139.449 16.8151 139.449 18.6485V19.8055C139.449 19.8193 139.46 19.8308 139.474 19.8308H142.982C142.996 19.8308 143.008 19.8193 143.008 19.8055V18.6485C143.008 16.7965 142.335 15.22 141.031 13.9198L141.03 13.9202ZM73.131 24.3531C72.8847 23.7805 72.5109 23.2793 72.0622 22.9147C71.6432 22.4976 71.1074 22.1709 70.3863 21.8923C69.6497 21.547 68.9658 21.3457 68.4522 21.2092C67.7849 21.032 67.0658 20.8457 66.2587 20.6926C64.6814 20.3785 63.5124 19.987 62.7854 19.5297C62.0753 19.0826 61.7154 18.4934 61.7154 17.7772C61.7154 16.9461 62.0179 16.3644 62.6737 15.941C63.596 15.3455 64.7341 15.1845 65.8025 15.4035C66.8361 15.6154 67.7679 16.2149 68.5512 16.8999C68.7104 17.0392 70.3384 18.5301 70.3083 18.564L72.6483 15.9221C72.6483 15.9221 71.5221 14.7856 70.9882 14.3223C69.7155 13.2181 68.2019 12.2857 66.4971 12.0177C64.8034 11.7513 62.8765 12.0063 61.3499 12.7931C60.9282 13.0106 60.5305 13.2713 60.163 13.5709C58.8039 14.679 58.1153 16.134 58.1153 17.8963C58.1153 19.6587 58.697 21.0486 59.891 21.91C61.0113 22.7474 62.6226 23.3965 64.6814 23.8393C66.5007 24.2248 67.8222 24.6195 68.6177 25.0153C69.3749 25.3385 69.7428 25.8558 69.7428 26.5965C69.7428 27.5511 69.3567 28.2736 68.5916 28.7456C66.8686 29.8087 64.4747 29.7613 62.7327 28.7645C61.9815 28.3344 61.3594 27.7105 60.7012 27.1569C60.1963 26.7275 59.7187 26.2666 59.2324 25.8163C59.2269 25.8112 59.2213 25.8061 59.2134 25.7958L56.9356 28.5297C56.9288 28.538 58.0491 29.5632 58.147 29.652C59.6866 31.0506 61.3463 32.2084 63.4186 32.6361C64.1594 32.7866 64.9138 32.8613 65.6699 32.8591C67.899 32.8591 69.7776 32.2747 71.2516 31.1232C72.7976 29.9476 73.5817 28.3178 73.5817 26.28C73.5817 25.6064 73.4245 24.9371 73.1314 24.3535L73.131 24.3531Z" fill="#FEFEFE"/>
</svg>
