<svg width="32" height="32" viewBox="0 0 32 32" fill="none" xmlns="http://www.w3.org/2000/svg">
<path d="M25.492 20.212H20.056C19.7377 20.212 19.4325 20.3384 19.2075 20.5635C18.9824 20.7885 18.856 21.0937 18.856 21.412C18.856 21.7303 18.9824 22.0355 19.2075 22.2605C19.4325 22.4856 19.7377 22.612 20.056 22.612H22.936C21.6123 23.9953 19.9053 24.9512 18.0342 25.3569C16.1631 25.7626 14.2135 25.5995 12.4357 24.8887C10.658 24.1779 9.13344 22.9517 8.05791 21.3678C6.98238 19.7839 6.40501 17.9146 6.4 16C6.4 15.6817 6.27357 15.3765 6.04853 15.1515C5.82348 14.9264 5.51826 14.8 5.2 14.8C4.88174 14.8 4.57652 14.9264 4.35147 15.1515C4.12643 15.3765 4 15.6817 4 16C4.00634 18.3434 4.69867 20.6336 5.99152 22.588C7.28438 24.5425 9.1212 26.0756 11.2753 26.9983C13.4294 27.9209 15.8065 28.1926 18.1132 27.78C20.42 27.3673 22.5554 26.2882 24.256 24.676V26.8C24.256 27.1183 24.3824 27.4235 24.6075 27.6485C24.8325 27.8736 25.1377 28 25.456 28C25.7743 28 26.0795 27.8736 26.3045 27.6485C26.5296 27.4235 26.656 27.1183 26.656 26.8V21.4C26.653 21.09 26.5302 20.7931 26.3132 20.5716C26.0962 20.3502 25.8019 20.2213 25.492 20.212ZM16 4C12.9237 4.00877 9.96819 5.1987 7.744 7.324V5.2C7.744 4.88174 7.61757 4.57652 7.39253 4.35147C7.16748 4.12643 6.86226 4 6.544 4C6.22574 4 5.92052 4.12643 5.69547 4.35147C5.47043 4.57652 5.344 4.88174 5.344 5.2V10.6C5.344 10.9183 5.47043 11.2235 5.69547 11.4485C5.92052 11.6736 6.22574 11.8 6.544 11.8H11.944C12.2623 11.8 12.5675 11.6736 12.7925 11.4485C13.0176 11.2235 13.144 10.9183 13.144 10.6C13.144 10.2817 13.0176 9.97652 12.7925 9.75147C12.5675 9.52643 12.2623 9.4 11.944 9.4H9.064C10.387 8.01745 12.0929 7.0618 13.9629 6.65573C15.8328 6.24966 17.7815 6.41169 19.5587 7.12104C21.336 7.83038 22.8606 9.05465 23.9371 10.6367C25.0135 12.2188 25.5926 14.0865 25.6 16C25.6 16.3183 25.7264 16.6235 25.9515 16.8485C26.1765 17.0736 26.4817 17.2 26.8 17.2C27.1183 17.2 27.4235 17.0736 27.6485 16.8485C27.8736 16.6235 28 16.3183 28 16C28 14.4241 27.6896 12.8637 27.0866 11.4078C26.4835 9.95189 25.5996 8.62902 24.4853 7.51472C23.371 6.40042 22.0481 5.5165 20.5922 4.91345C19.1363 4.31039 17.5759 4 16 4Z" fill="#7958FF"/>
</svg>
