<svg width="14" height="15" viewBox="0 0 14 15" fill="none" xmlns="http://www.w3.org/2000/svg">
<path fill-rule="evenodd" clip-rule="evenodd" d="M3.58432 8.6625C3.60983 8.67073 3.63585 8.67714 3.66218 8.68167C3.82908 9.09412 3.99503 9.50698 4.16004 9.92026C4.45675 10.6639 4.75582 11.4298 4.8213 11.6501C4.90329 11.921 4.98942 12.1054 5.0838 12.2316C5.13276 12.296 5.1888 12.3529 5.25486 12.3962C5.28955 12.4182 5.32632 12.4365 5.36458 12.4506C5.55334 12.5249 5.72559 12.4939 5.83354 12.4562C5.89692 12.4336 5.9572 12.4024 6.01286 12.3634L6.01581 12.3622L7.68281 11.2721L9.60877 12.82C9.63709 12.8427 9.66776 12.8618 9.7008 12.8775C9.93203 12.9827 10.1562 13.0198 10.3674 12.9901C10.5774 12.9592 10.7443 12.867 10.8688 12.7624C11.0116 12.6415 11.1255 12.4873 11.2015 12.312L11.2068 12.2984L11.2085 12.2935L11.2097 12.291V12.2898L11.2103 12.2892C11.22 12.2623 11.2279 12.2348 11.2339 12.2069L12.9917 2.91131C12.9966 2.88146 12.9994 2.85127 13 2.82099C13 2.54877 12.9021 2.28954 12.6726 2.13302C12.4756 1.99877 12.2567 1.99258 12.1181 2.00372C11.9695 2.01609 11.8314 2.05445 11.7388 2.08538C11.6871 2.10291 11.6359 2.12231 11.5855 2.14354L11.579 2.14663L1.71971 6.20265L1.71853 6.20327C1.68509 6.21594 1.65222 6.23018 1.62002 6.24596C1.54181 6.28276 1.4668 6.32665 1.39586 6.37712C1.26196 6.47301 0.953451 6.73657 1.00595 7.17211C1.04724 7.51857 1.27376 7.73201 1.41238 7.83471C1.48788 7.89101 1.55985 7.93122 1.61294 7.95783C1.63653 7.9702 1.68726 7.99124 1.70909 8.00113L1.71499 8.00299L3.58432 8.6625ZM11.9241 3.0004H11.9229L11.9075 3.00721L2.03647 7.06879L2.02114 7.07498L2.01524 7.07684C1.99716 7.08417 1.97945 7.09243 1.96215 7.10158C1.97864 7.1113 1.99557 7.12018 2.01288 7.12819L3.86628 7.78274C3.89901 7.79546 3.93059 7.81119 3.96066 7.82976L10.0819 4.07132L10.0878 4.06823C10.1117 4.05331 10.1361 4.03927 10.1609 4.02616C10.2034 4.00327 10.2712 3.96986 10.3479 3.94511C10.401 3.92779 10.5585 3.87892 10.7284 3.93645C10.8186 3.96598 10.8991 4.02167 10.9604 4.09709C11.0218 4.17251 11.0616 4.2646 11.0752 4.36272C11.0972 4.44856 11.0978 4.53888 11.077 4.62504C11.0357 4.79517 10.9224 4.92757 10.8192 5.02903C10.7307 5.11564 9.58282 6.27627 8.45084 7.42206L6.90948 8.98111L6.63518 9.25952L10.099 12.0448C10.1457 12.0653 10.1965 12.0738 10.247 12.0695C10.2725 12.0659 10.2964 12.0547 10.316 12.0374C10.3399 12.0161 10.3604 11.9911 10.3768 11.9631L10.378 11.9625L12.0827 2.94658C12.0291 2.96042 11.9765 2.9782 11.9252 2.99978L11.9241 3.0004ZM6.93307 10.6682L6.24173 10.1127L6.07421 11.2294L6.93307 10.6682ZM5.60761 9.01019L6.29482 8.31418L7.83618 6.75389L8.41014 6.17357L4.56411 8.53505L4.58476 8.58578C4.82732 9.18678 5.06721 9.78896 5.30441 10.3923L5.47135 9.27869C5.48659 9.17546 5.5346 9.08125 5.60761 9.01019Z" fill="white"/>
</svg>
