<svg width="18" height="19" viewBox="0 0 18 19" fill="none" xmlns="http://www.w3.org/2000/svg">
<path d="M1.125 9.5C1.125 11.5886 1.95469 13.5916 3.43153 15.0685C4.90838 16.5453 6.91142 17.375 9 17.375C11.0886 17.375 13.0916 16.5453 14.5685 15.0685C16.0453 13.5916 16.875 11.5886 16.875 9.5C16.875 7.41142 16.0453 5.40838 14.5685 3.93153C13.0916 2.45469 11.0886 1.625 9 1.625C6.91142 1.625 4.90838 2.45469 3.43153 3.93153C1.95469 5.40838 1.125 7.41142 1.125 9.5Z" stroke="white" stroke-width="1.125" stroke-linejoin="round"/>
<path d="M5.625 9.5C5.625 7.41142 5.98058 5.40838 6.61351 3.93153C7.24645 2.45469 8.10489 1.625 9 1.625C9.89511 1.625 10.7535 2.45469 11.3865 3.93153C12.0194 5.40838 12.375 7.41142 12.375 9.5C12.375 11.5886 12.0194 13.5916 11.3865 15.0685C10.7535 16.5453 9.89511 17.375 9 17.375C8.10489 17.375 7.24645 16.5453 6.61351 15.0685C5.98058 13.5916 5.625 11.5886 5.625 9.5Z" stroke="white" stroke-width="1.125" stroke-linejoin="round"/>
<path d="M1.6875 12.125H16.3125M1.6875 6.875H16.3125" stroke="white" stroke-width="1.125" stroke-linecap="round"/>
</svg>
