<svg width="194" height="39" viewBox="0 0 194 39" fill="none" xmlns="http://www.w3.org/2000/svg">
<path d="M38.9387 12.6368H41.7977L43.5715 22.7602H43.655L46.5556 12.6368H48.6842L51.5223 22.7602H51.6058L53.3796 12.6368H56.2385L53.2126 26.9817H50.5624L47.6617 16.8993H47.5782L44.6149 26.9817H41.9646L38.9387 12.6368Z" fill="#FEFEFE"/>
<path d="M58.1147 12.6368H68.6741V14.9935H60.9528V18.6207H68.0689V20.9364H60.9528V24.6251H68.6741V26.9817H58.1147V12.6368Z" fill="#FEFEFE"/>
<path d="M70.7702 12.6368H79.9314L82.0182 14.6861V18.7027L81.1835 19.5429L82.6651 21.0183V24.7685L80.4113 26.9817H70.7702V12.6368ZM78.4706 18.6412L79.2218 17.9035V15.6903L78.4914 14.973H73.5457V18.6412H78.4706ZM78.9714 24.6455L79.8687 23.7644V21.7561L78.9714 20.8749H73.5457V24.6455H78.9714Z" fill="#FEFEFE"/>
<path d="M84.1242 24.7685V22.5143H86.9623V23.9283L87.651 24.6046H91.4073L92.0959 23.9283V21.6126L91.4281 20.9569H87.2545V18.5797H91.4281L92.0959 17.924V15.6903L91.4073 15.014H87.7762L87.0875 15.6903V17.1042H84.2495V14.8501L86.5032 12.6368H92.6802L94.934 14.8501V18.7437L93.8697 19.7683L94.934 20.8134V24.7685L92.6802 26.9817H86.378L84.1242 24.7685Z" fill="#FEFEFE"/>
<path d="M97.7416 12.6368H98.952V19.297H106.882V12.6368H108.092V26.9817H106.882V20.3626H98.952V26.9817H97.7416V12.6368Z" fill="#FEFEFE"/>
<path d="M115.459 12.6368H116.899L121.97 26.9817H120.718L119.299 22.8832H113.059L111.64 26.9817H110.388L115.459 12.6368ZM118.944 21.8381L116.21 13.9279H116.148L113.435 21.8381H118.944Z" fill="#FEFEFE"/>
<path d="M123.761 24.83V14.7886L125.952 12.6368H132.046L134.153 14.7066V15.7927H132.943V15.0755L131.524 13.7025H126.495L124.971 15.1779V24.4201L126.495 25.9161H131.524L132.943 24.5431V23.8258H134.153V24.912L132.046 26.9817H125.952L123.761 24.83Z" fill="#FEFEFE"/>
<path d="M136.972 12.6368H138.182V19.2765H141.917L145.653 12.6368H146.947L142.919 19.7888L147.26 26.9817H145.945L141.917 20.3421H138.182V26.9817H136.972V12.6368Z" fill="#FEFEFE"/>
<path d="M149.545 12.6368H158.394V13.7025H150.756V19.2765H157.392V20.3421H150.756V26.9817H149.545V12.6368Z" fill="#FEFEFE"/>
<path d="M160.897 12.6368H169.954V13.7025H162.107V19.2355H169.348V20.3011H162.107V25.9161H169.954V26.9817H160.897V12.6368Z" fill="#FEFEFE"/>
<path d="M172.567 25.1989V24.1127H173.756V24.789L174.883 25.9161H180.037L181.185 24.748V21.2643L180.037 20.1372H174.424L172.608 18.3748V14.4197L174.424 12.6368H180.392L182.208 14.4197V15.5263H181.018V14.8091L179.871 13.7025H174.946L173.798 14.8091V17.9649L174.946 19.0715H180.559L182.375 20.8544V25.1579L180.517 26.9817H174.382L172.567 25.1989Z" fill="#FEFEFE"/>
<path d="M188.366 13.682H183.941V12.6368H194V13.682H189.576V26.9817H188.366V13.682Z" fill="#FEFEFE"/>
<path d="M0.00192609 18.218C0.577038 16.175 1.6513 14.4514 3.28115 13.0865C3.48732 12.9126 3.63489 12.517 3.96477 12.6844C4.25775 12.8322 4.13839 13.2082 4.13188 13.482C4.07545 15.3599 4.27511 17.2421 3.96911 19.1178C3.79766 20.1676 4.108 21.137 4.8741 21.9086C6.70794 23.7604 8.56132 25.5904 10.3821 27.4509C10.8683 27.9465 11.2763 28.003 11.7299 27.4574C11.821 27.3466 11.9339 27.2509 12.0359 27.1488C12.7723 26.4127 12.7817 25.6832 12.0641 24.9601C10.6339 23.5235 9.21673 22.0781 7.76701 20.661C7.20926 20.1176 6.9445 19.5091 6.96403 18.731C7.03565 15.8011 7.08773 12.8713 7.13548 9.94147C7.14416 9.4394 7.31561 9.03296 7.66935 8.68521C8.49404 7.87233 9.30354 7.04424 10.1304 6.23571C10.3257 6.04445 10.5058 5.70321 10.8314 5.83579C11.1569 5.96837 11.0571 6.33786 11.0571 6.61389C11.0658 9.98059 11.1113 13.3495 11.0441 16.7162C11.0202 17.8703 11.3522 18.7071 12.2073 19.4678C13.2859 20.4284 14.2929 21.4761 15.276 22.5367C15.8077 23.1083 16.168 23.0562 16.678 22.515C17.8477 21.2826 19.0522 20.0807 20.2806 18.9048C20.821 18.3876 21.0315 17.8181 21.0271 17.077C21.0054 13.6733 21.0163 10.2697 21.0336 6.86602C21.0336 6.53348 20.8383 6.04662 21.268 5.90534C21.5849 5.80102 21.765 6.25745 22.0233 6.44002C24.4626 8.1614 25.3871 10.4631 24.9943 13.4451C24.7838 15.0469 24.8988 16.7009 24.9791 18.3267C25.0355 19.4395 24.6601 20.2372 23.8549 20.987C22.4009 22.3433 21.0553 23.8169 19.6143 25.1883C18.9828 25.7904 18.896 26.2142 19.5796 26.8532C21.2159 28.379 20.732 28.3638 22.2663 26.8532C23.7356 25.4057 25.1614 23.9125 26.648 22.4845C27.7961 21.3826 28.1802 20.1024 27.9176 18.5462C27.6246 16.8227 27.8351 15.0774 27.8004 13.3429C27.7961 13.1299 27.7917 12.8756 28.0283 12.7757C28.267 12.6757 28.4189 12.8843 28.5839 13.0169C32.8527 16.4336 33.15 21.6065 29.2914 25.4861C26.7392 28.0508 24.1653 30.5937 21.6326 33.178C21.0727 33.7496 20.732 33.78 20.1612 33.1736C19.0457 31.9913 17.8022 30.9306 16.6802 29.7548C16.1571 29.2049 15.8229 29.1614 15.2934 29.7222C14.1757 30.9067 12.9799 32.0152 11.8644 33.1997C11.3392 33.7561 10.9855 33.7344 10.4559 33.1954C7.64114 30.3307 4.79597 27.4965 1.9573 24.6537C0.891721 23.5865 0.50542 22.1781 -0.000244141 20.824V18.2159L0.00192609 18.218Z" fill="#FEFEFE"/>
<path d="M16.062 0.341278C17.9609 1.71056 18.217 3.64712 18.0434 5.79885C17.9262 7.24638 17.9869 7.28767 16.4743 7.2855C13.6508 7.28115 14.0805 7.50502 13.8483 4.72951C13.6834 2.756 14.6144 1.5432 15.8449 0.343452H16.062V0.341278Z" fill="#FEFEFE"/>
<path d="M15.845 38.5943C15.1419 37.8727 14.4582 37.1294 13.7269 36.4382C13.308 36.0426 13.3124 35.7275 13.7225 35.3645C13.831 35.2689 13.9244 35.158 14.0285 35.0602C16.4874 32.7346 15.5282 32.6542 18.1173 35.1124C18.6837 35.6492 18.7162 36.0904 18.1346 36.6425C17.4835 37.2598 16.8954 37.9422 16.2791 38.5964H15.845V38.5943Z" fill="#FEFEFE"/>
<path d="M18.0281 13.7646C18.0281 14.234 17.9499 14.7209 18.0433 15.1708C18.3601 16.7335 17.2707 17.542 16.3678 18.4592C16.2051 18.6244 16.0358 18.694 15.7884 18.594C15.0831 18.3028 13.9111 16.6466 13.9046 15.8576C13.8959 14.3753 13.9133 12.893 13.9025 11.4107C13.8959 10.6934 14.2019 10.3435 14.9355 10.3479C18.6401 10.3696 17.9521 9.95012 18.0259 13.2212C18.0302 13.4016 18.0259 13.582 18.0259 13.7646H18.0281Z" fill="#FEFEFE"/>
</svg>
